# Blender v3.0.0 OBJ File: 'FoodIngredient_Nori.blend'
# www.blender.org
mtllib FoodIngredient_Nori.mtl
o FoodIngredient_Nori_Plane.003
v -0.429470 0.000000 0.506599
v -0.506599 0.000000 0.429470
v -0.468035 0.000000 0.496266
v -0.496266 0.000000 0.468035
v 0.506599 0.000000 0.429470
v 0.429470 0.000000 0.506599
v 0.496266 0.000000 0.468035
v 0.468035 0.000000 0.496266
v -0.506599 0.000000 -0.429470
v -0.429470 0.000000 -0.506599
v -0.496266 0.000000 -0.468035
v -0.468035 0.000000 -0.496266
v 0.429470 0.000000 -0.506599
v 0.506599 0.000000 -0.429470
v 0.468035 0.000000 -0.496266
v 0.496266 0.000000 -0.468035
v -0.429470 0.035672 -0.506599
v -0.506599 0.035672 -0.429470
v -0.468035 0.035672 -0.496266
v -0.496266 0.035672 -0.468035
v -0.506599 0.035672 0.429470
v -0.429470 0.035672 0.506599
v -0.496266 0.035672 0.468035
v -0.468035 0.035672 0.496266
v 0.429470 0.035672 0.506599
v 0.506599 0.035672 0.429470
v 0.468035 0.035672 0.496266
v 0.496266 0.035672 0.468035
v 0.506599 0.035672 -0.429470
v 0.429470 0.035672 -0.506599
v 0.496266 0.035672 -0.468035
v 0.468035 0.035672 -0.496266
vt 0.471686 0.289854
vt 0.471686 0.290153
vt 0.471654 0.290153
vt 0.471654 0.289854
vt 0.471718 0.289800
vt 0.471718 0.289500
vt 0.471750 0.289500
vt 0.471750 0.289800
vt 0.471686 0.289854
vt 0.471686 0.289554
vt 0.471718 0.289554
vt 0.471718 0.289854
vt 0.471654 0.289962
vt 0.471645 0.289981
vt 0.471620 0.289995
vt 0.471586 0.290000
vt 0.470819 0.290000
vt 0.470784 0.289995
vt 0.470759 0.289981
vt 0.470750 0.289962
vt 0.470750 0.289538
vt 0.470759 0.289519
vt 0.470784 0.289505
vt 0.470819 0.289500
vt 0.471586 0.289500
vt 0.471620 0.289505
vt 0.471645 0.289519
vt 0.471654 0.289538
vt 0.471586 0.290000
vt 0.471620 0.290005
vt 0.471645 0.290019
vt 0.471654 0.290038
vt 0.471654 0.290462
vt 0.471645 0.290481
vt 0.471620 0.290495
vt 0.471586 0.290500
vt 0.470819 0.290500
vt 0.470784 0.290495
vt 0.470759 0.290481
vt 0.470750 0.290462
vt 0.470750 0.290038
vt 0.470759 0.290019
vt 0.470784 0.290005
vt 0.470819 0.290000
vt 0.471750 0.289817
vt 0.471718 0.289817
vt 0.471750 0.289837
vt 0.471718 0.289837
vt 0.471750 0.289854
vt 0.471718 0.289854
vt 0.471654 0.289800
vt 0.471686 0.289800
vt 0.471686 0.289817
vt 0.471654 0.289817
vt 0.471686 0.289837
vt 0.471654 0.289837
vt 0.471718 0.289871
vt 0.471686 0.289871
vt 0.471718 0.289890
vt 0.471686 0.289890
vt 0.471718 0.289907
vt 0.471686 0.289907
vt 0.471686 0.289537
vt 0.471718 0.289537
vt 0.471686 0.289517
vt 0.471718 0.289517
vt 0.471686 0.289500
vt 0.471718 0.289500
vn 0.0000 0.0000 1.0000
vn 1.0000 0.0000 0.0000
vn 0.0000 0.0000 -1.0000
vn 0.0000 -1.0000 0.0000
vn 0.0000 1.0000 -0.0000
vn 0.9659 0.0000 0.2588
vn 0.7071 0.0000 0.7071
vn 0.2588 0.0000 0.9659
vn -0.9659 0.0000 0.2588
vn -0.7071 0.0000 0.7071
vn -0.2588 0.0000 0.9659
vn 0.2588 0.0000 -0.9659
vn 0.7071 0.0000 -0.7071
vn 0.9659 0.0000 -0.2588
vn -0.2588 0.0000 -0.9659
vn -0.7071 0.0000 -0.7071
vn -0.9659 0.0000 -0.2588
vn -1.0000 0.0000 0.0000
usemtl Atlas
s off
f 1/1/1 6/2/1 25/3/1 22/4/1
f 5/5/2 14/6/2 29/7/2 26/8/2
f 13/9/3 10/10/3 17/11/3 30/12/3
f 1/13/4 3/14/4 4/15/4 2/16/4 9/17/4 11/18/4 12/19/4 10/20/4 13/21/4 15/22/4 16/23/4 14/24/4 5/25/4 7/26/4 8/27/4 6/28/4
f 21/29/5 23/30/5 24/31/5 22/32/5 25/33/5 27/34/5 28/35/5 26/36/5 29/37/5 31/38/5 32/39/5 30/40/5 17/41/5 19/42/5 20/43/5 18/44/5
f 5/5/6 26/8/6 28/45/6 7/46/6
f 7/46/7 28/45/7 27/47/7 8/48/7
f 8/48/8 27/47/8 25/49/8 6/50/8
f 21/51/9 2/52/9 4/53/9 23/54/9
f 23/54/10 4/53/10 3/55/10 24/56/10
f 24/56/11 3/55/11 1/1/11 22/4/11
f 13/9/12 30/12/12 32/57/12 15/58/12
f 15/58/13 32/57/13 31/59/13 16/60/13
f 16/60/14 31/59/14 29/61/14 14/62/14
f 17/11/15 10/10/15 12/63/15 19/64/15
f 19/64/16 12/63/16 11/65/16 20/66/16
f 20/66/17 11/65/17 9/67/17 18/68/17
f 9/67/18 2/52/18 21/51/18 18/68/18
