# Blender v3.0.0 OBJ File: 'Food_Roll.blend'
# www.blender.org
mtllib Food_Roll.mtl
o Food_Roll_Cube
v -0.216650 0.071817 0.262137
v -0.150640 0.005807 0.262137
v -0.197316 0.025141 0.262137
v -0.150640 0.439106 0.262137
v -0.216650 0.373096 0.262137
v -0.197316 0.419772 0.262137
v -0.150640 0.005807 0.030918
v -0.216650 0.071817 0.030918
v -0.197316 0.025141 0.030918
v -0.216650 0.373096 0.030918
v -0.150640 0.439106 0.030918
v -0.197316 0.419772 0.030918
v 0.150640 0.005807 0.262137
v 0.216650 0.071817 0.262137
v 0.197316 0.025141 0.262137
v 0.216650 0.373096 0.262137
v 0.150640 0.439106 0.262137
v 0.197316 0.419772 0.262137
v 0.216650 0.071817 0.030918
v 0.150640 0.005807 0.030918
v 0.197316 0.025141 0.030918
v 0.150640 0.439106 0.030918
v 0.216650 0.373096 0.030918
v 0.197316 0.419772 0.030918
v -0.160549 0.061908 -0.006152
v -0.122570 0.046176 -0.006152
v -0.122570 0.046176 0.299207
v -0.160549 0.061908 0.299207
v -0.176280 0.099886 -0.006152
v -0.176280 0.099886 0.299207
v -0.160549 0.383005 0.299207
v -0.122570 0.398737 0.299207
v -0.122570 0.398737 -0.006152
v -0.160549 0.383005 -0.006152
v -0.176280 0.345027 0.299207
v -0.176280 0.345027 -0.006152
v 0.160549 0.061908 0.299207
v 0.122570 0.046176 0.299207
v 0.122570 0.046176 -0.006152
v 0.160549 0.061908 -0.006152
v 0.176280 0.099886 0.299207
v 0.176280 0.099886 -0.006152
v 0.160549 0.383005 -0.006152
v 0.122570 0.398737 -0.006152
v 0.122570 0.398737 0.299207
v 0.160549 0.383005 0.299207
v 0.176280 0.345027 -0.006152
v 0.176280 0.345027 0.299207
v -0.150987 0.071470 0.014160
v -0.115270 0.056675 0.014160
v -0.115270 0.056675 0.278895
v -0.150987 0.071470 0.278895
v -0.165781 0.107186 0.014160
v -0.165781 0.107186 0.278895
v -0.150987 0.373443 0.278895
v -0.115270 0.388238 0.278895
v -0.115270 0.388238 0.014160
v -0.150987 0.373443 0.014160
v -0.165781 0.337727 0.278895
v -0.165781 0.337727 0.014160
v 0.150987 0.071470 0.278895
v 0.115270 0.056675 0.278895
v 0.115270 0.056675 0.014160
v 0.150987 0.071470 0.014160
v 0.165781 0.107186 0.278895
v 0.165781 0.107186 0.014160
v 0.150987 0.373443 0.014160
v 0.115270 0.388238 0.014160
v 0.115270 0.388238 0.278895
v 0.150987 0.373443 0.278895
v 0.165781 0.337727 0.014160
v 0.165781 0.337727 0.278895
v -0.086695 0.135761 0.014160
v -0.066187 0.127266 0.014160
v -0.066187 0.127266 0.278895
v -0.086695 0.135761 0.278895
v -0.095190 0.156269 0.014160
v -0.095190 0.156269 0.278895
v -0.086695 0.309152 0.278895
v -0.066187 0.317647 0.278895
v -0.066187 0.317647 0.014160
v -0.086695 0.309152 0.014160
v -0.095190 0.288644 0.278895
v -0.095190 0.288644 0.014160
v 0.086695 0.135761 0.278895
v 0.066187 0.127266 0.278895
v 0.066187 0.127266 0.014160
v 0.086695 0.135761 0.014160
v 0.095190 0.156269 0.278895
v 0.095190 0.156269 0.014160
v 0.086695 0.309152 0.014160
v 0.066187 0.317647 0.014160
v 0.066187 0.317647 0.278895
v 0.086695 0.309152 0.278895
v 0.095190 0.288644 0.014160
v 0.095190 0.288644 0.278895
v -0.057036 0.165420 0.014160
v -0.043544 0.159832 0.014160
v -0.043544 0.159832 0.278895
v -0.057036 0.165420 0.278895
v -0.062625 0.178913 0.014160
v -0.062625 0.178913 0.278895
v -0.057036 0.279493 0.278895
v -0.043544 0.285081 0.278895
v -0.043544 0.285081 0.014160
v -0.057036 0.279493 0.014160
v -0.062625 0.266000 0.278895
v -0.062625 0.266000 0.014160
v 0.057036 0.165420 0.278895
v 0.043544 0.159832 0.278895
v 0.043544 0.159832 0.014160
v 0.057036 0.165420 0.014160
v 0.062625 0.178913 0.278895
v 0.062625 0.178913 0.014160
v 0.057036 0.279493 0.014160
v 0.043544 0.285081 0.014160
v 0.043544 0.285081 0.278895
v 0.057036 0.279493 0.278895
v 0.062625 0.266000 0.014160
v 0.062625 0.266000 0.278895
vt 0.095211 0.228624
vt 0.094944 0.228624
vt 0.094969 0.228589
vt 0.095186 0.228589
vt 0.095295 0.228924
vt 0.095295 0.228664
vt 0.095500 0.228664
vt 0.095500 0.228924
vt 0.095475 0.228290
vt 0.095475 0.228550
vt 0.095270 0.228550
vt 0.095270 0.228290
vt 0.095089 0.228924
vt 0.095089 0.228664
vt 0.095295 0.228664
vt 0.095295 0.228924
vt 0.095253 0.228267
vt 0.095270 0.228307
vt 0.095234 0.228331
vt 0.095220 0.228298
vt 0.094705 0.228950
vt 0.094500 0.228950
vt 0.094500 0.228910
vt 0.094705 0.228910
vt 0.095295 0.228964
vt 0.095089 0.228964
vt 0.095475 0.228590
vt 0.095270 0.228590
vt 0.095089 0.228624
vt 0.095295 0.228624
vt 0.094500 0.229210
vt 0.094705 0.229210
vt 0.094705 0.229250
vt 0.094500 0.229250
vt 0.095500 0.228964
vt 0.095295 0.228964
vt 0.095270 0.228250
vt 0.095475 0.228250
vt 0.095295 0.228624
vt 0.095500 0.228624
vt 0.094705 0.229154
vt 0.094705 0.228942
vt 0.094724 0.228949
vt 0.094723 0.229148
vt 0.094705 0.228910
vt 0.094724 0.228918
vt 0.094517 0.228267
vt 0.094559 0.228250
vt 0.094584 0.228285
vt 0.094550 0.228298
vt 0.095253 0.228607
vt 0.095220 0.228575
vt 0.094885 0.228567
vt 0.094885 0.228307
vt 0.094921 0.228331
vt 0.094921 0.228543
vt 0.094902 0.228267
vt 0.094944 0.228250
vt 0.094969 0.228285
vt 0.094935 0.228298
vt 0.094902 0.228607
vt 0.094935 0.228575
vt 0.094868 0.228607
vt 0.094826 0.228624
vt 0.094801 0.228589
vt 0.094835 0.228575
vt 0.094826 0.228250
vt 0.094868 0.228267
vt 0.094835 0.228298
vt 0.094801 0.228285
vt 0.094500 0.228567
vt 0.094500 0.228307
vt 0.094536 0.228331
vt 0.094536 0.228543
vt 0.094559 0.228624
vt 0.094517 0.228607
vt 0.094550 0.228575
vt 0.094584 0.228589
vt 0.095211 0.228250
vt 0.095186 0.228285
vt 0.094885 0.228307
vt 0.094885 0.228567
vt 0.094849 0.228543
vt 0.094849 0.228331
vt 0.095270 0.228567
vt 0.095234 0.228543
vt 0.033295 0.224874
vt 0.033500 0.224874
vt 0.033456 0.224935
vt 0.033339 0.224935
vt 0.033250 0.224917
vt 0.033263 0.224886
vt 0.033320 0.224942
vt 0.033313 0.224960
vt 0.094760 0.228942
vt 0.094760 0.228910
vt 0.094778 0.228918
vt 0.094778 0.228949
vt 0.094850 0.229154
vt 0.094850 0.229187
vt 0.094832 0.229178
vt 0.094832 0.229148
vt 0.094742 0.228942
vt 0.094742 0.229154
vt 0.094723 0.229148
vt 0.094723 0.228949
vt 0.094814 0.229154
vt 0.094814 0.229187
vt 0.094796 0.229178
vt 0.094796 0.229148
vt 0.094814 0.228910
vt 0.094814 0.228942
vt 0.094796 0.228949
vt 0.094796 0.228918
vt 0.094796 0.228942
vt 0.094796 0.229154
vt 0.094778 0.229148
vt 0.094778 0.228949
vt 0.094850 0.228910
vt 0.094850 0.228942
vt 0.094832 0.228949
vt 0.094832 0.228918
vt 0.094705 0.229187
vt 0.094723 0.229178
vt 0.094760 0.229154
vt 0.094778 0.229148
vt 0.094742 0.229187
vt 0.094723 0.229178
vt 0.094760 0.229154
vt 0.094760 0.229187
vt 0.094742 0.229178
vt 0.094742 0.229148
vt 0.094796 0.229187
vt 0.094778 0.229178
vt 0.094832 0.229154
vt 0.094832 0.229187
vt 0.094814 0.229178
vt 0.094814 0.229148
vt 0.094832 0.228910
vt 0.094832 0.228942
vt 0.094814 0.228949
vt 0.094814 0.228918
vt 0.094760 0.228942
vt 0.094742 0.228949
vt 0.094742 0.228918
vt 0.094742 0.228910
vt 0.094723 0.228918
vt 0.094796 0.228910
vt 0.094778 0.228918
vt 0.157070 0.292442
vt 0.157089 0.292435
vt 0.157109 0.292463
vt 0.157097 0.292468
vt 0.157206 0.292435
vt 0.157224 0.292442
vt 0.157198 0.292468
vt 0.157186 0.292463
vt 0.033295 0.225160
vt 0.033263 0.225147
vt 0.033320 0.225091
vt 0.033339 0.225099
vt 0.033839 0.225116
vt 0.033826 0.225147
vt 0.033769 0.225091
vt 0.033776 0.225074
vt 0.033794 0.224874
vt 0.033826 0.224886
vt 0.033769 0.224942
vt 0.033751 0.224935
vt 0.033545 0.224917
vt 0.033545 0.225116
vt 0.033482 0.225074
vt 0.033482 0.224960
vt 0.033558 0.224886
vt 0.033589 0.224874
vt 0.033633 0.224935
vt 0.033615 0.224942
vt 0.033500 0.225160
vt 0.033456 0.225099
vt 0.033531 0.225147
vt 0.033474 0.225091
vt 0.033250 0.225116
vt 0.033313 0.225074
vt 0.033839 0.224917
vt 0.033776 0.224960
vt 0.033545 0.224917
vt 0.033607 0.224960
vt 0.033545 0.225116
vt 0.033607 0.225074
vt 0.033589 0.225160
vt 0.033558 0.225147
vt 0.033615 0.225091
vt 0.033633 0.225099
vt 0.033531 0.224886
vt 0.033474 0.224942
vt 0.033794 0.225160
vt 0.033751 0.225099
vt 0.598731 0.292463
vt 0.598743 0.292468
vt 0.598747 0.292479
vt 0.598747 0.292554
vt 0.598743 0.292566
vt 0.598731 0.292571
vt 0.598653 0.292571
vt 0.598641 0.292566
vt 0.598636 0.292554
vt 0.598636 0.292479
vt 0.598641 0.292468
vt 0.598653 0.292463
vt 0.598359 0.292571
vt 0.598347 0.292566
vt 0.598342 0.292554
vt 0.598342 0.292479
vt 0.598347 0.292468
vt 0.598359 0.292463
vt 0.598436 0.292463
vt 0.598448 0.292468
vt 0.598453 0.292479
vt 0.598453 0.292554
vt 0.598448 0.292566
vt 0.598436 0.292571
vt 0.157526 0.292460
vt 0.157526 0.292574
vt 0.157498 0.292554
vt 0.157498 0.292479
vt 0.157519 0.292591
vt 0.157501 0.292599
vt 0.157481 0.292571
vt 0.157493 0.292566
vt 0.157365 0.292591
vt 0.157357 0.292574
vt 0.157386 0.292554
vt 0.157391 0.292566
vt 0.157383 0.292599
vt 0.157403 0.292571
vt 0.157232 0.292460
vt 0.157203 0.292479
vt 0.157063 0.292460
vt 0.157092 0.292479
vt 0.157089 0.292599
vt 0.157070 0.292591
vt 0.157097 0.292566
vt 0.157109 0.292571
vt 0.157501 0.292435
vt 0.157519 0.292442
vt 0.157493 0.292468
vt 0.157481 0.292463
vt 0.157232 0.292574
vt 0.157203 0.292554
vt 0.157365 0.292442
vt 0.157383 0.292435
vt 0.157403 0.292463
vt 0.157391 0.292468
vt 0.157206 0.292599
vt 0.157186 0.292571
vt 0.157224 0.292591
vt 0.157198 0.292566
vt 0.157063 0.292574
vt 0.157092 0.292554
vt 0.157357 0.292460
vt 0.157386 0.292479
vn 0.6128 -0.1446 0.7769
vn 0.6128 0.1446 0.7769
vn 0.6363 0.0958 0.7655
vn 0.6363 -0.0958 0.7655
vn 0.9808 -0.1951 0.0000
vn 0.9808 0.1951 0.0000
vn 0.1951 0.9808 0.0000
vn -0.1951 0.9808 0.0000
vn -0.9808 -0.1951 0.0000
vn -0.9808 0.1951 0.0000
vn -0.4105 -0.4105 0.8143
vn -0.1446 -0.6128 0.7769
vn -0.0958 -0.6363 0.7655
vn -0.1951 -0.9808 0.0000
vn -0.3827 -0.9239 0.0000
vn -0.9239 -0.3827 0.0000
vn -0.3827 0.9239 0.0000
vn -0.9239 0.3827 0.0000
vn 0.1951 -0.9808 0.0000
vn 0.3827 -0.9239 0.0000
vn 0.9239 -0.3827 0.0000
vn 0.3827 0.9239 0.0000
vn 0.9239 0.3827 0.0000
vn 0.8429 -0.1892 0.5037
vn 0.8429 0.1892 0.5037
vn 0.8569 0.1445 0.4949
vn 0.8569 -0.1445 0.4949
vn 0.7869 0.3260 0.5239
vn 0.4105 0.4105 -0.8143
vn 0.6128 0.1446 -0.7769
vn 0.6363 0.0958 -0.7655
vn 0.4105 -0.4105 0.8143
vn 0.1446 0.6128 0.7769
vn -0.1446 0.6128 0.7769
vn -0.0958 0.6363 0.7655
vn 0.0958 0.6363 0.7655
vn -0.4105 0.4105 0.8143
vn -0.6128 0.1446 0.7769
vn -0.6363 0.0958 0.7655
vn 0.4105 0.4105 0.8143
vn -0.4105 -0.4105 -0.8143
vn -0.6128 -0.1446 -0.7769
vn -0.6363 -0.0958 -0.7655
vn 0.6128 -0.1446 -0.7769
vn 0.4105 -0.4105 -0.8143
vn 0.6363 -0.0958 -0.7655
vn -0.1446 0.6128 -0.7769
vn 0.1446 0.6128 -0.7769
vn 0.0958 0.6363 -0.7655
vn -0.0958 0.6363 -0.7655
vn -0.6128 0.1446 -0.7769
vn -0.4105 0.4105 -0.8143
vn -0.6363 0.0958 -0.7655
vn -0.6128 -0.1446 0.7769
vn -0.6363 -0.0958 0.7655
vn 0.1446 -0.6128 -0.7769
vn -0.1446 -0.6128 -0.7769
vn -0.0958 -0.6363 -0.7655
vn 0.0958 -0.6363 -0.7655
vn 0.1446 -0.6128 0.7769
vn 0.0958 -0.6363 0.7655
vn 0.0000 0.0000 -1.0000
vn -0.8429 0.1892 -0.5037
vn -0.7869 0.3260 -0.5239
vn -0.8569 0.1445 -0.4949
vn 0.1892 -0.8429 0.5037
vn 0.3260 -0.7869 0.5239
vn 0.1445 -0.8569 0.4949
vn 0.8429 0.1892 -0.5037
vn 0.8429 -0.1892 -0.5037
vn 0.8569 -0.1445 -0.4949
vn 0.8569 0.1445 -0.4949
vn -0.1892 -0.8429 -0.5037
vn -0.3260 -0.7869 -0.5239
vn -0.1445 -0.8569 -0.4949
vn 0.3260 -0.7869 -0.5239
vn 0.1892 -0.8429 -0.5037
vn 0.1445 -0.8569 -0.4949
vn -0.8429 0.1892 0.5037
vn -0.8429 -0.1892 0.5037
vn -0.8569 -0.1445 0.4949
vn -0.8569 0.1445 0.4949
vn -0.3260 -0.7869 0.5239
vn -0.1892 -0.8429 0.5037
vn -0.1445 -0.8569 0.4949
vn 0.7869 -0.3260 0.5239
vn -0.7869 -0.3260 -0.5239
vn -0.8429 -0.1892 -0.5037
vn -0.8569 -0.1445 -0.4949
vn 0.7869 -0.3260 -0.5239
vn 0.1892 0.8429 -0.5037
vn 0.3260 0.7869 -0.5239
vn 0.1445 0.8569 -0.4949
vn -0.7869 -0.3260 0.5239
vn -0.1892 0.8429 0.5037
vn -0.3260 0.7869 0.5239
vn -0.1445 0.8569 0.4949
vn 0.3260 0.7869 0.5239
vn 0.1892 0.8429 0.5037
vn 0.1445 0.8569 0.4949
vn -0.1892 0.8429 -0.5037
vn -0.1445 0.8569 -0.4949
vn -0.3260 0.7869 -0.5239
vn 0.7869 0.3260 -0.5239
vn -0.7869 0.3260 0.5239
vn 0.0000 0.0000 1.0000
usemtl Atlas
s 1
f 14/1/1 16/2/2 48/3/3 41/4/4
f 19/5/5 23/6/6 16/7/6 14/8/5
f 22/9/7 11/10/8 4/11/8 17/12/7
f 1/13/9 5/14/10 10/15/10 8/16/9
f 3/17/11 2/18/12 27/19/13 28/20/11
f 7/21/14 2/22/14 3/23/15 9/24/15
f 9/25/16 3/26/16 1/13/9 8/16/9
f 4/11/8 11/10/8 12/27/17 6/28/17
f 6/29/18 12/30/18 10/15/10 5/14/10
f 13/31/19 20/32/19 21/33/20 15/34/20
f 15/35/21 21/36/21 19/5/5 14/8/5
f 22/9/7 17/12/7 18/37/22 24/38/22
f 24/39/23 18/40/23 16/7/6 23/6/6
f 7/21/14 20/32/19 13/31/19 2/22/14
f 35/41/24 30/42/25 54/43/26 59/44/27
f 30/42/25 28/45/28 52/46/28 54/43/26
f 24/47/29 23/48/30 47/49/31 43/50/29
f 15/51/32 14/1/1 41/4/4 37/52/32
f 17/53/33 4/54/34 32/55/35 45/56/36
f 6/57/37 5/58/38 35/59/39 31/60/37
f 16/2/2 18/61/40 46/62/40 48/3/3
f 9/63/41 8/64/42 29/65/43 25/66/41
f 19/67/44 21/68/45 40/69/45 42/70/46
f 11/71/47 22/72/48 44/73/49 33/74/50
f 10/75/51 12/76/52 34/77/52 36/78/53
f 1/79/54 3/17/11 28/20/11 30/80/55
f 23/48/30 19/67/44 42/70/46 47/49/31
f 20/81/56 7/82/57 26/83/58 39/84/59
f 22/72/48 24/47/29 43/50/29 44/73/49
f 13/85/60 15/51/32 37/52/32 38/86/61
f 2/18/12 13/85/60 38/86/61 27/19/13
f 4/54/34 6/57/37 31/60/37 32/55/35
f 7/82/57 9/63/41 25/66/41 26/83/58
f 5/58/38 1/79/54 30/80/55 35/59/39
f 18/61/40 17/53/33 45/56/36 46/62/40
f 21/68/45 20/81/56 39/84/59 40/69/45
f 8/64/42 10/75/51 36/78/53 29/65/43
f 12/76/52 11/71/47 33/74/50 34/77/52
f 57/87/62 68/88/62 92/89/62 81/90/62
f 60/91/62 58/92/62 82/93/62 84/94/62
f 42/95/63 40/96/64 64/97/64 66/98/65
f 32/99/66 31/100/67 55/101/67 56/102/68
f 29/103/69 36/104/70 60/105/71 53/106/72
f 44/107/73 43/108/74 67/109/74 68/110/75
f 34/111/76 33/112/77 57/113/78 58/114/76
f 41/115/79 48/116/80 72/117/81 65/118/82
f 46/119/83 45/120/84 69/121/85 70/122/83
f 31/123/86 35/41/24 59/44/27 55/124/86
f 45/120/84 32/99/66 56/102/68 69/121/85
f 43/108/87 47/125/88 71/126/89 67/109/87
f 36/104/70 34/127/90 58/128/90 60/105/71
f 33/112/77 44/107/73 68/110/75 57/113/78
f 26/129/91 25/130/92 49/131/92 50/132/93
f 48/116/80 46/133/94 70/134/94 72/117/81
f 38/135/95 37/136/96 61/137/96 62/138/97
f 47/125/88 42/95/63 66/98/65 71/126/89
f 28/139/98 27/140/99 51/141/100 52/142/98
f 39/143/101 26/129/91 50/132/93 63/144/102
f 40/96/103 39/143/101 63/144/102 64/145/103
f 25/146/104 29/103/69 53/106/72 49/147/104
f 27/140/99 38/135/95 62/138/97 51/141/100
f 37/148/105 41/115/79 65/118/82 61/149/105
f 82/150/62 81/151/62 105/152/62 106/153/62
f 92/154/62 91/155/62 115/156/62 116/157/62
f 50/158/62 49/159/62 73/160/62 74/161/62
f 72/162/106 70/163/106 94/164/106 96/165/106
f 62/166/106 61/167/106 85/168/106 86/169/106
f 71/170/62 66/171/62 90/172/62 95/173/62
f 52/174/106 51/175/106 75/176/106 76/177/106
f 63/178/62 50/158/62 74/161/62 87/179/62
f 64/180/62 63/178/62 87/179/62 88/181/62
f 49/159/62 53/182/62 77/183/62 73/160/62
f 51/175/106 62/166/106 86/169/106 75/176/106
f 61/167/106 65/184/106 89/185/106 85/168/106
f 54/186/106 52/174/106 76/177/106 78/187/106
f 59/188/106 54/186/106 78/187/106 83/189/106
f 66/171/62 64/180/62 88/181/62 90/172/62
f 56/190/106 55/191/106 79/192/106 80/193/106
f 53/182/62 60/91/62 84/94/62 77/183/62
f 68/88/62 67/194/62 91/195/62 92/89/62
f 58/92/62 57/87/62 81/90/62 82/93/62
f 65/184/106 72/162/106 96/165/106 89/185/106
f 70/163/106 69/196/106 93/197/106 94/164/106
f 55/191/106 59/188/106 83/189/106 79/192/106
f 69/196/106 56/190/106 80/193/106 93/197/106
f 67/194/62 71/170/62 95/173/62 91/195/62
f 110/198/106 109/199/106 113/200/106 120/201/106 118/202/106 117/203/106 104/204/106 103/205/106 107/206/106 102/207/106 100/208/106 99/209/106
f 98/210/62 97/211/62 101/212/62 108/213/62 106/214/62 105/215/62 116/216/62 115/217/62 119/218/62 114/219/62 112/220/62 111/221/62
f 89/222/106 96/223/106 120/224/106 113/225/106
f 94/226/106 93/227/106 117/228/106 118/229/106
f 79/230/106 83/231/106 107/232/106 103/233/106
f 93/227/106 80/234/106 104/235/106 117/228/106
f 91/155/62 95/236/62 119/237/62 115/156/62
f 84/238/62 82/150/62 106/153/62 108/239/62
f 81/151/62 92/154/62 116/157/62 105/152/62
f 74/240/62 73/241/62 97/242/62 98/243/62
f 96/223/106 94/226/106 118/229/106 120/224/106
f 86/244/106 85/245/106 109/246/106 110/247/106
f 95/236/62 90/248/62 114/249/62 119/237/62
f 76/250/106 75/251/106 99/252/106 100/253/106
f 87/254/62 74/240/62 98/243/62 111/255/62
f 88/256/62 87/254/62 111/255/62 112/257/62
f 73/241/62 77/258/62 101/259/62 97/242/62
f 75/251/106 86/244/106 110/247/106 99/252/106
f 85/245/106 89/222/106 113/225/106 109/246/106
f 78/260/106 76/250/106 100/253/106 102/261/106
f 83/231/106 78/260/106 102/261/106 107/232/106
f 90/248/62 88/256/62 112/257/62 114/249/62
f 80/234/106 79/230/106 103/233/106 104/235/106
f 77/258/62 84/238/62 108/239/62 101/259/62
