# Blender v3.0.0 OBJ File: 'FoodIngredient_Avocado.blend'
# www.blender.org
mtllib FoodIngredient_Avocado.mtl
o FoodIngredient_Avocado_Cube.042
v -0.109887 0.200281 -0.022864
v 0.000000 0.193486 -0.070286
v 0.144306 0.209650 0.190802
v 0.000000 0.209650 0.209810
v 0.000000 -0.331650 0.190802
v 0.000000 0.331650 0.190802
v 0.000000 0.329076 0.115876
v 0.000000 -0.313629 0.098499
v 0.144306 0.208363 0.098177
v -0.144306 0.209650 0.190802
v -0.231838 -0.165825 0.190802
v 0.231838 -0.166790 0.091741
v 0.000000 -0.166402 0.210050
v 0.231838 -0.165825 0.190802
v 0.000000 -0.158671 -0.094515
v -0.176541 -0.163213 -0.041414
v -0.188072 0.043825 0.190802
v 0.188072 0.033849 0.082730
v 0.000000 0.043825 0.209810
v 0.188072 0.043825 0.190802
v 0.000000 0.004716 -0.128434
v -0.143214 0.014295 -0.067384
v -0.188072 0.033849 0.082730
v 0.143214 0.014295 -0.067384
v -0.231838 -0.166790 0.091741
v 0.176541 -0.163213 -0.041414
v 0.109887 0.200281 -0.022864
v 0.000000 -0.269434 -0.021936
v 0.000000 0.314979 0.028149
v -0.144306 0.208363 0.098177
v -0.173878 -0.290194 0.190802
v -0.119467 0.213355 0.216503
v -0.082415 0.286304 0.015396
v -0.104758 -0.159806 -0.081239
v 0.000000 -0.228655 -0.063650
v 0.000000 0.278844 -0.012364
v 0.104758 -0.159806 -0.081239
v 0.132406 -0.242878 -0.026806
v 0.108229 0.301150 0.190802
v 0.202165 -0.170173 0.216490
v 0.000000 -0.303777 0.216490
v 0.000000 0.306674 0.216503
v -0.173878 -0.276919 0.096809
v -0.108229 0.301150 0.190802
v 0.173878 -0.290194 0.190802
v 0.108229 0.298897 0.111451
v 0.000000 0.331006 0.162567
v 0.000000 -0.327145 0.158223
v 0.231838 -0.166066 0.156533
v -0.231838 -0.166066 0.156533
v -0.202165 -0.170173 0.216490
v -0.084982 0.007111 -0.113172
v 0.084982 0.007111 -0.113172
v 0.155699 0.044234 0.216503
v 0.188072 0.041331 0.154281
v -0.188072 0.041331 0.154281
v -0.220896 -0.030500 0.190802
v 0.220896 -0.043211 0.086109
v 0.000000 -0.023862 0.210050
v 0.220896 -0.030500 0.190802
v 0.000000 -0.075530 -0.115714
v -0.168210 -0.065726 -0.057645
v -0.155699 0.044234 0.216503
v -0.065206 0.195184 -0.058431
v 0.065206 0.195184 -0.058431
v 0.119467 0.213355 0.216503
v 0.144306 0.209328 0.158142
v -0.144306 0.209328 0.158142
v -0.155247 0.107194 0.190802
v 0.155247 0.104378 0.085466
v 0.000000 0.107194 0.209810
v 0.155247 0.107194 0.190802
v 0.000000 0.091308 -0.118137
v -0.118219 0.096435 -0.059500
v -0.108229 0.298897 0.111451
v 0.173878 -0.276919 0.096809
v -0.132406 -0.242878 -0.026806
v 0.082415 0.286304 0.015396
v 0.168210 -0.065726 -0.057645
v -0.220896 -0.043211 0.086109
v 0.118219 0.096435 -0.059500
v -0.155247 0.104378 0.085466
v -0.176857 0.023973 0.000669
v 0.176857 0.023973 0.000669
v -0.218014 -0.166379 0.018425
v 0.218014 -0.166379 0.018425
v 0.135701 0.205699 0.031108
v 0.000000 -0.293570 0.031742
v 0.000000 0.324264 0.065985
v -0.135701 0.205699 0.031108
v -0.149752 -0.269139 0.212520
v -0.088494 0.282480 0.212734
v -0.085791 -0.214894 -0.058769
v -0.053400 0.259176 -0.017399
v 0.149752 -0.269139 0.212520
v 0.088494 0.282480 0.212734
v 0.085791 -0.214894 -0.058769
v 0.053400 0.259176 -0.017399
v -0.173878 -0.286875 0.157800
v -0.108229 0.300587 0.161461
v 0.173878 -0.286875 0.157800
v 0.108229 0.300587 0.161461
v -0.192624 -0.024799 0.216490
v -0.099814 -0.073079 -0.101197
v 0.099814 -0.073079 -0.101197
v 0.192624 -0.024799 0.216490
v 0.220896 -0.033678 0.155125
v -0.220896 -0.033678 0.155125
v -0.128525 0.108862 0.216503
v -0.070150 0.092589 -0.103478
v 0.070150 0.092589 -0.103478
v 0.128525 0.108862 0.216503
v 0.155247 0.106490 0.154965
v -0.155247 0.106490 0.154965
v -0.101776 0.294623 0.057265
v 0.163510 -0.261772 0.028412
v -0.163510 -0.261772 0.028412
v 0.101776 0.294623 0.057265
v 0.207724 -0.055195 0.007328
v -0.207724 -0.055195 0.007328
v 0.145990 0.100985 0.006059
v -0.145990 0.100985 0.006059
v -0.120541 -0.023862 0.189547
v -0.112442 -0.023862 0.234816
v -0.112442 0.024260 0.189547
v -0.112442 -0.071983 0.189547
v -0.104819 -0.068648 0.232126
v -0.104819 0.020925 0.232126
v 0.120541 -0.023862 0.189547
v 0.112442 0.024260 0.189547
v 0.112442 -0.023862 0.234816
v 0.112442 -0.071983 0.189547
v 0.104819 0.020925 0.232126
v 0.104819 -0.068648 0.232126
v 0.000000 -0.023862 0.293215
v 0.048121 -0.023862 0.286684
v 0.000000 0.024260 0.286684
v -0.048121 -0.023862 0.286684
v 0.000000 -0.071983 0.286684
v 0.044786 -0.068648 0.280536
v 0.044786 0.020925 0.280536
v -0.044786 0.020925 0.280536
v -0.044786 -0.068648 0.280536
v 0.000000 -0.144403 0.189547
v 0.048121 -0.136303 0.189547
v 0.000000 -0.136303 0.234816
v -0.048121 -0.136303 0.189547
v 0.044786 -0.128680 0.232126
v -0.044786 -0.128680 0.232126
v 0.000000 0.096680 0.189547
v -0.048121 0.088580 0.189547
v 0.000000 0.088580 0.234816
v 0.048121 0.088580 0.189547
v -0.044786 0.080957 0.232126
v 0.044786 0.080957 0.232126
v -0.088262 -0.112124 0.189547
v -0.082187 -0.106049 0.229437
v -0.082187 -0.065313 0.262287
v -0.088262 -0.023862 0.267185
v -0.082187 0.017589 0.262287
v -0.082187 0.058326 0.229437
v -0.088262 0.064401 0.189547
v 0.082187 -0.106049 0.229437
v 0.088262 -0.112124 0.189547
v 0.088262 0.064401 0.189547
v 0.082187 0.058326 0.229437
v 0.082187 0.017589 0.262287
v 0.088262 -0.023862 0.267185
v 0.082187 -0.065313 0.262287
v -0.041451 -0.106049 0.262287
v 0.000000 -0.112124 0.267185
v 0.041451 -0.106049 0.262287
v 0.041451 0.058326 0.262287
v 0.000000 0.064401 0.267185
v -0.041451 0.058326 0.262287
v -0.069879 -0.093741 0.252361
v -0.069879 0.046018 0.252361
v 0.069879 -0.093741 0.252361
v 0.069879 0.046018 0.252361
vt 0.348707 0.230417
vt 0.348673 0.230329
vt 0.348733 0.230336
vt 0.348756 0.230425
vt 0.348779 0.230497
vt 0.348741 0.230487
vt 0.348952 0.229919
vt 0.348922 0.229991
vt 0.348901 0.229970
vt 0.348918 0.229918
vt 0.348929 0.229832
vt 0.348966 0.229830
vt 0.348862 0.229918
vt 0.348870 0.229832
vt 0.348854 0.229987
vt 0.348808 0.229970
vt 0.348804 0.229918
vt 0.348807 0.229832
vt 0.349250 0.229587
vt 0.349249 0.229679
vt 0.349217 0.229680
vt 0.349221 0.229587
vt 0.349224 0.229500
vt 0.349250 0.229500
vt 0.157017 0.285887
vt 0.157029 0.285799
vt 0.157052 0.285816
vt 0.157040 0.285881
vt 0.157053 0.285973
vt 0.157028 0.285978
vt 0.400891 0.220857
vt 0.400912 0.220946
vt 0.400803 0.220973
vt 0.400790 0.220881
vt 0.400802 0.220816
vt 0.400872 0.220777
vt 0.400951 0.220780
vt 0.400991 0.220833
vt 0.401020 0.220920
vt 0.348439 0.230240
vt 0.348441 0.230391
vt 0.348412 0.230391
vt 0.348411 0.230239
vt 0.348412 0.230080
vt 0.348441 0.230081
vt 0.157251 0.286329
vt 0.157094 0.286329
vt 0.157111 0.286300
vt 0.157244 0.286300
vt 0.157363 0.286239
vt 0.157392 0.286257
vt 0.348441 0.230175
vt 0.348441 0.230079
vt 0.348467 0.230079
vt 0.348465 0.230175
vt 0.348467 0.230273
vt 0.348441 0.230273
vt 0.157116 0.285750
vt 0.157215 0.285754
vt 0.157201 0.285780
vt 0.157122 0.285777
vt 0.348507 0.230175
vt 0.348511 0.230079
vt 0.348559 0.230085
vt 0.348551 0.230175
vt 0.348559 0.230268
vt 0.348511 0.230273
vt 0.348358 0.230238
vt 0.348358 0.230390
vt 0.348298 0.230379
vt 0.348300 0.230236
vt 0.348298 0.230087
vt 0.348358 0.230079
vt 0.349168 0.229588
vt 0.349156 0.229681
vt 0.349085 0.229682
vt 0.349109 0.229588
vt 0.349131 0.229504
vt 0.349180 0.229501
vt 0.157264 0.285827
vt 0.157295 0.285914
vt 0.157270 0.285920
vt 0.157241 0.285833
vt 0.348897 0.230426
vt 0.348897 0.230500
vt 0.348871 0.230500
vt 0.348869 0.230426
vt 0.348865 0.230338
vt 0.348896 0.230337
vt 0.157416 0.286136
vt 0.157388 0.286144
vt 0.157351 0.286021
vt 0.157379 0.286020
vt 0.348896 0.230111
vt 0.348897 0.230228
vt 0.348866 0.230226
vt 0.348865 0.230111
vt 0.348861 0.229995
vt 0.348890 0.229991
vt 0.349161 0.229933
vt 0.349159 0.230019
vt 0.349098 0.230003
vt 0.349095 0.229930
vt 0.349087 0.229830
vt 0.349158 0.229823
vt 0.349219 0.229815
vt 0.349218 0.229933
vt 0.349212 0.230028
vt 0.400968 0.221185
vt 0.400994 0.221300
vt 0.400861 0.221300
vt 0.400797 0.221226
vt 0.400776 0.221100
vt 0.400938 0.221061
vt 0.401101 0.221021
vt 0.401138 0.221144
vt 0.401113 0.221239
vt 0.349248 0.229933
vt 0.349241 0.230032
vt 0.349250 0.229812
vt 0.157018 0.286233
vt 0.157000 0.286112
vt 0.157026 0.286100
vt 0.157047 0.286226
vt 0.348871 0.229607
vt 0.348868 0.229541
vt 0.348942 0.229553
vt 0.348961 0.229604
vt 0.348958 0.229684
vt 0.348872 0.229683
vt 0.348783 0.229684
vt 0.348778 0.229604
vt 0.348792 0.229553
vt 0.348688 0.230110
vt 0.348697 0.230032
vt 0.348747 0.230019
vt 0.348743 0.230113
vt 0.348735 0.230209
vt 0.348675 0.230195
vt 0.349019 0.229597
vt 0.349012 0.229685
vt 0.348979 0.229524
vt 0.157336 0.285962
vt 0.157306 0.285970
vt 0.348897 0.230287
vt 0.348865 0.230286
vt 0.349154 0.229749
vt 0.349081 0.229755
vt 0.349217 0.229743
vt 0.400925 0.221002
vt 0.400793 0.221033
vt 0.401056 0.220970
vt 0.349249 0.229741
vt 0.157013 0.286040
vt 0.157043 0.286033
vt 0.348873 0.229756
vt 0.348945 0.229757
vt 0.348797 0.229757
vt 0.348666 0.230261
vt 0.348728 0.230273
vt 0.348990 0.229758
vt 0.348801 0.230282
vt 0.348805 0.230220
vt 0.348803 0.230338
vt 0.348740 0.229758
vt 0.348718 0.229685
vt 0.348759 0.229830
vt 0.349019 0.229757
vt 0.349026 0.229680
vt 0.349027 0.229832
vt 0.348808 0.230113
vt 0.348808 0.230005
vt 0.348710 0.229597
vt 0.348748 0.229524
vt 0.349040 0.229919
vt 0.348666 0.229587
vt 0.348714 0.229501
vt 0.348760 0.229919
vt 0.348778 0.229991
vt 0.349059 0.229587
vt 0.349093 0.229507
vt 0.348864 0.229500
vt 0.348253 0.230233
vt 0.348250 0.230113
vt 0.348250 0.230349
vt 0.348584 0.230175
vt 0.348596 0.230103
vt 0.348626 0.230130
vt 0.348621 0.230177
vt 0.348626 0.230226
vt 0.348596 0.230251
vt 0.348816 0.230427
vt 0.348827 0.230500
vt 0.464085 0.225284
vt 0.464086 0.225328
vt 0.464049 0.225327
vt 0.464046 0.225286
vt 0.464023 0.225328
vt 0.464019 0.225291
vt 0.464087 0.225367
vt 0.464052 0.225364
vt 0.464033 0.225355
vt 0.464049 0.225248
vt 0.464086 0.225243
vt 0.464052 0.225219
vt 0.464087 0.225212
vt 0.464023 0.225255
vt 0.464050 0.225032
vt 0.464055 0.225051
vt 0.464031 0.225065
vt 0.464019 0.225055
vt 0.464153 0.225284
vt 0.464153 0.225327
vt 0.464117 0.225326
vt 0.464114 0.225286
vt 0.464092 0.225328
vt 0.464087 0.225291
vt 0.464155 0.225367
vt 0.464121 0.225364
vt 0.464101 0.225355
vt 0.464117 0.225248
vt 0.464153 0.225243
vt 0.464121 0.225219
vt 0.464155 0.225212
vt 0.464092 0.225255
vt 0.464141 0.225192
vt 0.464164 0.225179
vt 0.464176 0.225189
vt 0.464099 0.225122
vt 0.464141 0.225118
vt 0.464141 0.225158
vt 0.464102 0.225165
vt 0.464105 0.225201
vt 0.464176 0.225115
vt 0.464173 0.225152
vt 0.464062 0.225165
vt 0.464056 0.225125
vt 0.464029 0.225165
vt 0.464020 0.225129
vt 0.464068 0.225198
vt 0.464042 0.225190
vt 0.464056 0.225085
vt 0.464095 0.225079
vt 0.464091 0.225043
vt 0.464022 0.225091
vt 0.464134 0.225078
vt 0.464167 0.225078
vt 0.464128 0.225045
vt 0.464154 0.225054
vt 0.463967 0.225067
vt 0.463967 0.225111
vt 0.463929 0.225108
vt 0.463927 0.225068
vt 0.463902 0.225108
vt 0.463897 0.225070
vt 0.463966 0.225149
vt 0.463931 0.225144
vt 0.463910 0.225134
vt 0.463929 0.225028
vt 0.463966 0.225025
vt 0.463930 0.224997
vt 0.463965 0.224991
vt 0.463901 0.225033
vt 0.463910 0.225009
vt 0.463965 0.225226
vt 0.463965 0.225270
vt 0.463928 0.225267
vt 0.463925 0.225227
vt 0.463902 0.225265
vt 0.463897 0.225228
vt 0.463966 0.225307
vt 0.463931 0.225302
vt 0.463911 0.225291
vt 0.463928 0.225187
vt 0.463965 0.225184
vt 0.463931 0.225154
vt 0.463966 0.225149
vt 0.463902 0.225191
vt 0.463911 0.225166
vn -0.7135 0.3720 -0.5937
vn -0.7382 0.2837 -0.6120
vn -0.9161 0.2733 -0.2933
vn -0.9145 0.2901 -0.2820
vn -0.6381 0.7308 -0.2423
vn -0.4795 0.7028 -0.5255
vn -0.2671 0.5939 -0.7589
vn -0.3571 0.4535 -0.8166
vn -0.3883 0.2786 -0.8784
vn -0.0000 0.4848 -0.8746
vn 0.0000 0.2705 -0.9627
vn -0.0000 0.6619 -0.7496
vn 0.2671 0.5939 -0.7589
vn 0.3571 0.4535 -0.8166
vn 0.3883 0.2786 -0.8784
vn 0.9032 0.2174 0.3700
vn 0.8784 0.2611 0.4003
vn 0.9600 0.2795 -0.0136
vn 0.9709 0.2396 -0.0046
vn 0.6683 0.7437 -0.0197
vn 0.6271 0.6922 0.3572
vn 0.2858 0.3351 0.8978
vn 0.3824 0.1111 0.9173
vn 0.3096 0.0791 0.9476
vn 0.0000 -0.0113 0.9999
vn 0.0000 -0.0062 1.0000
vn 0.0000 0.4136 0.9104
vn -0.2858 0.3351 0.8978
vn -0.3824 0.1111 0.9173
vn -0.3096 0.0791 0.9476
vn -0.0000 -0.9399 0.3414
vn -0.5881 -0.7258 0.3568
vn -0.6166 -0.7810 -0.0993
vn -0.0000 -0.9881 -0.1538
vn 0.6166 -0.7810 -0.0993
vn 0.5881 -0.7258 0.3568
vn 0.2368 -0.3262 0.9152
vn 0.0000 -0.3839 0.9234
vn -0.2368 -0.3262 0.9152
vn 0.0000 0.9329 0.3601
vn 0.0000 0.9996 -0.0291
vn -0.6683 0.7437 -0.0197
vn -0.6271 0.6922 0.3572
vn -0.0000 0.9976 -0.0695
vn 0.6689 0.7396 -0.0744
vn 0.6381 0.7308 -0.2423
vn -0.0000 0.9828 -0.1847
vn -0.6689 0.7396 -0.0744
vn 0.0000 -0.9739 -0.2271
vn -0.6038 -0.7764 -0.1808
vn -0.5501 -0.7498 -0.3678
vn 0.0000 -0.9424 -0.3345
vn 0.5501 -0.7498 -0.3678
vn 0.6038 -0.7764 -0.1808
vn 0.9662 0.2483 -0.0688
vn 0.9592 0.2713 -0.0795
vn 0.9161 0.2733 -0.2933
vn 0.9145 0.2901 -0.2820
vn -0.9032 0.2174 0.3700
vn -0.8784 0.2611 0.4003
vn -0.9709 0.2396 -0.0046
vn -0.9600 0.2795 -0.0136
vn -0.9069 -0.1542 0.3920
vn -0.3709 -0.0909 0.9242
vn -0.3750 0.1221 0.9190
vn -0.8973 0.2238 0.3805
vn -0.9689 0.2463 -0.0232
vn -0.9828 -0.1838 -0.0163
vn 0.9740 -0.1993 -0.1076
vn 0.9011 -0.2243 -0.3712
vn 0.9178 0.1730 -0.3573
vn 0.9672 0.2310 -0.1057
vn 0.9689 0.2463 -0.0232
vn 0.9828 -0.1838 -0.0163
vn 0.0000 0.0055 1.0000
vn 0.3709 -0.0909 0.9242
vn 0.3750 0.1221 0.9190
vn 0.0000 -0.0048 1.0000
vn 0.9069 -0.1542 0.3920
vn 0.8973 0.2238 0.3805
vn 0.0000 -0.3179 -0.9481
vn 0.0000 -0.5651 -0.8250
vn -0.2079 -0.5205 -0.8282
vn -0.3113 -0.2927 -0.9041
vn -0.3603 -0.1163 -0.9255
vn 0.0000 -0.1847 -0.9828
vn 0.3603 -0.1163 -0.9255
vn 0.3113 -0.2927 -0.9041
vn 0.2079 -0.5205 -0.8282
vn -0.6663 -0.2540 -0.7011
vn -0.3931 -0.6699 -0.6298
vn -0.9011 -0.2243 -0.3712
vn -0.9178 0.1730 -0.3573
vn -0.7176 0.0406 -0.6953
vn -0.8378 0.4001 0.3714
vn -0.3129 0.1547 0.9371
vn -0.9060 0.4222 -0.0322
vn 0.9115 0.3978 -0.1048
vn 0.8846 0.3346 -0.3248
vn 0.9060 0.4222 -0.0322
vn 0.0000 -0.0092 1.0000
vn 0.3129 0.1547 0.9371
vn 0.8378 0.4001 0.3714
vn 0.0000 -0.0054 -1.0000
vn -0.3904 0.0577 -0.9188
vn 0.3904 0.0577 -0.9188
vn -0.7303 0.2051 -0.6516
vn -0.8846 0.3346 -0.3248
vn -0.9115 0.3978 -0.1048
vn -0.9672 0.2310 -0.1057
vn -0.9592 0.2713 -0.0795
vn 0.7303 0.2051 -0.6516
vn 0.7176 0.0406 -0.6953
vn 0.7382 0.2837 -0.6120
vn -0.9740 -0.1993 -0.1076
vn 0.6663 -0.2540 -0.7011
vn 0.3931 -0.6699 -0.6298
vn 0.7135 0.3720 -0.5937
vn 0.4795 0.7028 -0.5255
vn 0.0000 -0.8262 -0.5633
vn -0.0000 0.8869 -0.4619
vn -0.9662 0.2483 -0.0688
vn -0.9832 0.0000 0.1825
vn -0.9178 -0.3476 0.1919
vn -0.8551 -0.3371 0.3938
vn -0.9152 0.0000 0.4031
vn -0.6056 -0.3063 0.7344
vn -0.6405 0.0000 0.7680
vn -0.6924 -0.6924 0.2027
vn -0.6528 -0.6528 0.3844
vn -0.5315 -0.5315 0.6595
vn -0.8551 0.3371 0.3938
vn -0.9178 0.3476 0.1919
vn -0.6528 0.6528 0.3844
vn -0.6924 0.6924 0.2027
vn -0.6056 0.3063 0.7344
vn -0.5315 0.5315 0.6595
vn 0.9832 -0.0000 0.1825
vn 0.9178 0.3476 0.1919
vn 0.8551 0.3371 0.3938
vn 0.9152 -0.0000 0.4031
vn 0.6056 0.3063 0.7344
vn 0.6405 0.0000 0.7680
vn 0.6924 0.6924 0.2027
vn 0.6528 0.6528 0.3844
vn 0.5315 0.5315 0.6595
vn 0.8551 -0.3371 0.3938
vn 0.9178 -0.3476 0.1919
vn 0.6528 -0.6528 0.3844
vn 0.6924 -0.6924 0.2027
vn 0.6056 -0.3063 0.7344
vn 0.5315 -0.5315 0.6595
vn 0.0000 0.0000 1.0000
vn 0.0000 -0.2983 0.9545
vn 0.2969 -0.2969 0.9076
vn 0.2983 -0.0000 0.9545
vn 0.0000 -0.6405 0.7680
vn 0.3063 -0.6056 0.7344
vn 0.2969 0.2969 0.9076
vn -0.0000 0.2983 0.9545
vn 0.3063 0.6056 0.7344
vn -0.0000 0.6405 0.7680
vn -0.2969 0.2969 0.9076
vn -0.2983 -0.0000 0.9545
vn -0.3063 0.6056 0.7344
vn -0.2969 -0.2969 0.9076
vn -0.3063 -0.6056 0.7344
vn 0.0000 -0.9832 0.1825
vn 0.3476 -0.9178 0.1919
vn 0.3371 -0.8551 0.3938
vn 0.0000 -0.9152 0.4031
vn -0.3371 -0.8551 0.3938
vn -0.3476 -0.9178 0.1919
vn 0.0000 0.9832 0.1825
vn -0.3476 0.9178 0.1919
vn -0.3371 0.8551 0.3938
vn 0.0000 0.9152 0.4031
vn 0.3371 0.8551 0.3938
vn 0.3476 0.9178 0.1919
usemtl Atlas
s 1
f 1/1/1 74/2/2 122/3/3 90/4/4
f 1/1/1 90/4/4 115/5/5 33/6/6
f 1/7/1 33/8/6 94/9/7 64/10/8
f 1/7/1 64/10/8 110/11/9 74/12/2
f 2/13/10 73/14/11 110/11/9 64/10/8
f 2/13/10 64/10/8 94/9/7 36/15/12
f 2/13/10 36/15/12 98/16/13 65/17/14
f 2/13/10 65/17/14 111/18/15 73/14/11
f 3/19/16 72/20/17 113/21/18 67/22/19
f 3/19/16 67/22/19 102/23/20 39/24/21
f 3/25/16 39/26/21 96/27/22 66/28/23
f 3/25/16 66/28/23 112/29/24 72/30/17
f 4/31/25 71/32/26 112/33/24 66/34/23
f 4/31/25 66/34/23 96/35/22 42/36/27
f 4/31/25 42/36/27 92/37/28 32/38/29
f 4/31/25 32/38/29 109/39/30 71/32/26
f 5/40/31 31/41/32 99/42/33 48/43/34
f 5/40/31 48/43/34 101/44/35 45/45/36
f 5/46/31 45/47/36 95/48/37 41/49/38
f 5/46/31 41/49/38 91/50/39 31/51/32
f 6/52/40 39/53/21 102/54/20 47/55/41
f 6/52/40 47/55/41 100/56/42 44/57/43
f 6/58/40 44/59/43 92/60/28 42/61/27
f 6/58/40 42/61/27 96/27/22 39/26/21
f 7/62/44 46/63/45 118/64/46 89/65/47
f 7/62/44 89/65/47 115/66/5 75/67/48
f 7/62/44 75/67/48 100/56/42 47/55/41
f 7/62/44 47/55/41 102/54/20 46/63/45
f 8/68/49 43/69/50 117/70/51 88/71/52
f 8/68/49 88/71/52 116/72/53 76/73/54
f 8/68/49 76/73/54 101/44/35 48/43/34
f 8/68/49 48/43/34 99/42/33 43/69/50
f 9/74/55 70/75/56 121/76/57 87/77/58
f 9/74/55 87/77/58 118/78/46 46/79/45
f 9/74/55 46/79/45 102/23/20 67/22/19
f 9/74/55 67/22/19 113/21/18 70/75/56
f 10/80/59 69/81/60 109/82/30 32/83/29
f 10/80/59 32/83/29 92/60/28 44/59/43
f 10/84/59 44/85/43 100/86/42 68/87/61
f 10/84/59 68/87/61 114/88/62 69/89/60
f 11/90/63 31/51/32 91/50/39 51/91/64
f 11/90/63 51/91/64 103/92/65 57/93/66
f 11/94/63 57/95/66 108/96/67 50/97/68
f 11/94/63 50/97/68 99/98/33 31/99/32
f 12/100/69 76/101/54 116/102/53 86/103/70
f 12/100/69 86/103/70 119/104/71 58/105/72
f 12/100/69 58/105/72 107/106/73 49/107/74
f 12/100/69 49/107/74 101/108/35 76/101/54
f 13/109/75 41/110/38 95/111/37 40/112/76
f 13/109/75 40/112/76 106/113/77 59/114/78
f 13/109/75 59/114/78 103/115/65 51/116/64
f 13/109/75 51/116/64 91/117/39 41/110/38
f 14/118/79 45/119/36 101/108/35 49/107/74
f 14/118/79 49/107/74 107/106/73 60/120/80
f 14/121/79 60/122/80 106/123/77 40/124/76
f 14/121/79 40/124/76 95/48/37 45/47/36
f 15/125/81 35/126/82 93/127/83 34/128/84
f 15/125/81 34/128/84 104/129/85 61/130/86
f 15/125/81 61/130/86 105/131/87 37/132/88
f 15/125/81 37/132/88 97/133/89 35/126/82
f 16/134/90 77/135/91 117/136/51 85/137/92
f 16/134/90 85/137/92 120/138/93 62/139/94
f 16/140/90 62/141/94 104/129/85 34/128/84
f 16/140/90 34/128/84 93/127/83 77/142/91
f 17/143/95 57/93/66 103/92/65 63/144/96
f 17/143/95 63/144/96 109/82/30 69/81/60
f 17/145/95 69/89/60 114/88/62 56/146/97
f 17/145/95 56/146/97 108/96/67 57/95/66
f 18/147/98 58/105/72 119/104/71 84/148/99
f 18/147/98 84/148/99 121/76/57 70/75/56
f 18/147/98 70/75/56 113/21/18 55/149/100
f 18/147/98 55/149/100 107/106/73 58/105/72
f 19/150/101 59/114/78 106/113/77 54/151/102
f 19/150/101 54/151/102 112/33/24 71/32/26
f 19/150/101 71/32/26 109/39/30 63/152/96
f 19/150/101 63/152/96 103/115/65 59/114/78
f 20/153/103 60/120/80 107/106/73 55/149/100
f 20/153/103 55/149/100 113/21/18 72/20/17
f 20/154/103 72/30/17 112/29/24 54/155/102
f 20/154/103 54/155/102 106/123/77 60/122/80
f 21/156/104 61/130/86 104/129/85 52/157/105
f 21/156/104 52/157/105 110/11/9 73/14/11
f 21/156/104 73/14/11 111/18/15 53/158/106
f 21/156/104 53/158/106 105/131/87 61/130/86
f 22/159/107 62/139/94 120/138/93 83/160/108
f 22/159/107 83/160/108 122/3/3 74/2/2
f 22/161/107 74/12/2 110/11/9 52/157/105
f 22/161/107 52/157/105 104/129/85 62/141/94
f 23/162/109 80/163/110 108/96/67 56/146/97
f 23/162/109 56/146/97 114/88/62 82/164/111
f 23/162/109 82/164/111 122/3/3 83/160/108
f 23/162/109 83/160/108 120/138/93 80/163/110
f 24/165/112 79/166/113 105/131/87 53/158/106
f 24/165/112 53/158/106 111/18/15 81/167/114
f 24/168/112 81/169/114 121/76/57 84/148/99
f 24/168/112 84/148/99 119/104/71 79/170/113
f 25/171/115 43/172/50 99/98/33 50/97/68
f 25/171/115 50/97/68 108/96/67 80/163/110
f 25/171/115 80/163/110 120/138/93 85/137/92
f 25/171/115 85/137/92 117/136/51 43/172/50
f 26/173/116 38/174/117 97/133/89 37/132/88
f 26/173/116 37/132/88 105/131/87 79/166/113
f 26/175/116 79/170/113 119/104/71 86/103/70
f 26/173/116 86/176/70 116/177/53 38/174/117
f 27/178/118 81/167/114 111/18/15 65/17/14
f 27/178/118 65/17/14 98/16/13 78/179/119
f 27/180/118 78/181/119 118/78/46 87/77/58
f 27/180/118 87/77/58 121/76/57 81/169/114
f 28/182/120 77/142/91 93/127/83 35/126/82
f 28/182/120 35/126/82 97/133/89 38/174/117
f 28/183/120 38/184/117 116/72/53 88/71/52
f 28/183/120 88/71/52 117/70/51 77/185/91
f 29/186/121 78/187/119 98/188/13 36/189/12
f 29/186/121 36/189/12 94/190/7 33/191/6
f 29/186/121 33/191/6 115/66/5 89/65/47
f 29/186/121 89/65/47 118/64/46 78/187/119
f 30/192/122 82/164/111 114/88/62 68/87/61
f 30/192/122 68/87/61 100/86/42 75/193/48
f 30/192/122 75/193/48 115/5/5 90/4/4
f 30/192/122 90/4/4 122/3/3 82/164/111
f 123/194/123 126/195/124 127/196/125 124/197/126
f 124/197/126 127/196/125 158/198/127 159/199/128
f 126/195/124 156/200/129 157/201/130 127/196/125
f 127/196/125 157/201/130 176/202/131 158/198/127
f 123/194/123 124/197/126 128/203/132 125/204/133
f 125/204/133 128/203/132 161/205/134 162/206/135
f 124/197/126 159/199/128 160/207/136 128/203/132
f 128/208/132 160/209/136 177/210/137 161/211/134
f 129/212/138 130/213/139 133/214/140 131/215/141
f 131/215/141 133/214/140 167/216/142 168/217/143
f 130/213/139 165/218/144 166/219/145 133/214/140
f 133/214/140 166/219/145 179/220/146 167/216/142
f 129/212/138 131/215/141 134/221/147 132/222/148
f 132/222/148 134/221/147 163/223/149 164/224/150
f 131/215/141 168/217/143 169/225/151 134/221/147
f 134/221/147 169/226/151 178/227/152 163/228/149
f 135/229/153 139/230/154 140/231/155 136/232/156
f 136/232/156 140/231/155 169/226/151 168/233/143
f 139/230/154 171/234/157 172/235/158 140/231/155
f 140/231/155 172/235/158 178/227/152 169/226/151
f 135/229/153 136/232/156 141/236/159 137/237/160
f 137/237/160 141/236/159 173/238/161 174/239/162
f 136/232/156 168/233/143 167/240/142 141/236/159
f 141/236/159 167/240/142 179/241/146 173/238/161
f 135/229/153 137/237/160 142/242/163 138/243/164
f 138/243/164 142/242/163 160/209/136 159/244/128
f 137/237/160 174/239/162 175/245/165 142/242/163
f 142/242/163 175/245/165 177/210/137 160/209/136
f 135/229/153 138/243/164 143/246/166 139/230/154
f 139/230/154 143/246/166 170/247/167 171/234/157
f 138/243/164 159/244/128 158/248/127 143/246/166
f 143/246/166 158/248/127 176/249/131 170/247/167
f 144/250/168 145/251/169 148/252/170 146/253/171
f 146/253/171 148/252/170 172/254/158 171/255/157
f 145/251/169 164/256/150 163/257/149 148/252/170
f 148/252/170 163/257/149 178/258/152 172/254/158
f 144/250/168 146/253/171 149/259/172 147/260/173
f 147/260/173 149/259/172 157/261/130 156/262/129
f 146/253/171 171/255/157 170/263/167 149/259/172
f 149/259/172 170/263/167 176/264/131 157/261/130
f 150/265/174 151/266/175 154/267/176 152/268/177
f 152/268/177 154/267/176 175/269/165 174/270/162
f 151/266/175 162/271/135 161/272/134 154/267/176
f 154/267/176 161/272/134 177/273/137 175/269/165
f 150/265/174 152/268/177 155/274/178 153/275/179
f 153/275/179 155/274/178 166/276/145 165/277/144
f 152/268/177 174/270/162 173/278/161 155/274/178
f 155/274/178 173/278/161 179/279/146 166/276/145
