# Blender v3.0.0 OBJ File: 'FoodIngredient_SeaUrchinOpen.blend'
# www.blender.org
mtllib FoodIngredient_SeaUrchinOpen.mtl
o FoodIngredient_SeaUrchinOpen_Icosphere.001
v -0.139270 -0.207450 0.075619
v 0.028880 -0.207450 0.155823
v -0.114955 -0.207450 -0.109088
v 0.068225 -0.207450 -0.143039
v 0.157120 -0.207450 0.020686
v -0.071092 0.151852 0.062221
v -0.225345 -0.048972 0.122353
v -0.186000 -0.048972 -0.176508
v 0.110390 -0.048972 -0.231441
v 0.254225 -0.048972 0.033469
v 0.005599 0.180652 0.020582
v -0.254225 0.048972 -0.033469
v -0.046730 0.048972 -0.252127
v 0.225345 0.048972 -0.122353
v 0.156349 0.086678 0.040427
v 0.092117 0.151852 0.031972
v -0.157120 0.207450 -0.020686
v -0.028880 0.207450 -0.155823
v 0.139270 0.207450 -0.075619
v 0.006737 0.217623 0.026726
v -0.136385 -0.222584 -0.017955
v -0.059221 -0.222584 0.124162
v -0.195607 -0.137564 0.106208
v 0.040563 -0.137564 0.218854
v 0.099784 -0.222584 0.094692
v -0.025069 -0.222584 -0.135260
v -0.161455 -0.137564 -0.153215
v 0.120892 -0.222584 -0.065639
v 0.095823 -0.137564 -0.200899
v 0.220676 -0.137564 0.029053
v 0.187501 0.104939 0.050523
v -0.153492 0.104939 0.113723
v -0.257277 0.000000 0.047684
v -0.180113 0.000000 0.189801
v -0.124853 0.000000 -0.229952
v -0.236169 0.000000 -0.112647
v 0.180113 0.000000 -0.189801
v 0.034152 0.000000 -0.259422
v 0.236169 0.000000 0.112647
v 0.257277 0.000000 -0.047684
v 0.138990 -0.077388 0.152230
v -0.220676 0.137564 -0.029053
v -0.040563 0.137564 -0.218854
v 0.195607 0.137564 -0.106208
v -0.071754 -0.077388 0.191290
v -0.120892 0.222584 0.065639
v 0.110482 0.183088 0.040384
v -0.099784 0.222584 -0.094692
v 0.059221 0.222584 -0.124162
v 0.136385 0.222584 0.017955
v 0.000000 -0.267983 0.000000
v -0.103187 -0.119846 0.216340
v -0.237638 -0.119846 -0.031284
v -0.043681 -0.119846 -0.235677
v 0.210642 -0.119846 -0.114369
v 0.173864 -0.119846 0.164991
v -0.210642 0.119846 0.114369
v -0.173864 0.119846 -0.164991
v 0.103187 0.119846 -0.216340
v 0.237638 0.119846 0.031284
v -0.085222 0.183088 0.076656
v -0.000000 0.267983 -0.000000
v 0.186384 0.013775 0.112413
v -0.130269 0.013775 0.171102
v -0.361016 0.155115 -0.188345
v 0.027766 0.141818 -0.429758
v -0.192289 -0.117407 -0.302188
v -0.284389 -0.271395 0.050189
v -0.028717 0.393296 -0.154942
v 0.424666 0.144367 -0.108162
v 0.037592 -0.090866 0.193202
v 0.205698 -0.278043 -0.212890
v 0.153593 -0.296413 0.276224
v -0.128027 0.086678 0.093134
v 0.155418 0.010651 0.092041
v 0.115893 -0.065376 0.125247
v -0.108660 0.010651 0.140986
v -0.059860 -0.065376 0.157822
v 0.031330 -0.076616 0.159416
vt 0.716152 0.844723
vt 0.716218 0.844719
vt 0.716210 0.844824
vt 0.716118 0.844785
vt 0.716025 0.844728
vt 0.716112 0.844664
vt 0.715409 0.844466
vt 0.715319 0.844528
vt 0.715290 0.844403
vt 0.716083 0.844837
vt 0.716016 0.844824
vt 0.716122 0.844879
vt 0.716023 0.844966
vt 0.715353 0.844566
vt 0.715336 0.844635
vt 0.715261 0.844617
vt 0.715420 0.844548
vt 0.715438 0.844653
vt 0.715334 0.844704
vt 0.715292 0.844721
vt 0.715393 0.844742
vt 0.715285 0.844814
vt 0.715426 0.845040
vt 0.715458 0.845085
vt 0.715362 0.845097
vt 0.715357 0.845025
vt 0.715375 0.844928
vt 0.715466 0.844988
vt 0.715551 0.845031
vt 0.716073 0.844612
vt 0.716108 0.844562
vt 0.716200 0.844613
vt 0.716007 0.844628
vt 0.716017 0.844550
vt 0.715370 0.845245
vt 0.715421 0.845205
vt 0.715475 0.845295
vt 0.715491 0.844542
vt 0.715513 0.844494
vt 0.715599 0.844558
vt 0.715530 0.844601
vt 0.715299 0.844857
vt 0.715356 0.844829
vt 0.715289 0.844927
vt 0.715460 0.844765
vt 0.715513 0.844721
vt 0.715935 0.844892
vt 0.715935 0.844963
vt 0.715847 0.844952
vt 0.715882 0.844857
vt 0.715503 0.844927
vt 0.715566 0.844926
vt 0.715465 0.844867
vt 0.715550 0.844820
vt 0.715722 0.844482
vt 0.715796 0.844447
vt 0.715801 0.844468
vt 0.715739 0.844497
vt 0.715879 0.844444
vt 0.715935 0.844504
vt 0.715917 0.844515
vt 0.715870 0.844465
vt 0.715699 0.844561
vt 0.715720 0.844563
vt 0.716144 0.844533
vt 0.716211 0.844554
vt 0.716217 0.845205
vt 0.716202 0.845261
vt 0.716099 0.845253
vt 0.716162 0.845175
vt 0.715660 0.844434
vt 0.715557 0.844665
vt 0.715606 0.844666
vt 0.715882 0.845277
vt 0.715774 0.845277
vt 0.715825 0.845120
vt 0.715425 0.844814
vt 0.715815 0.844832
vt 0.715767 0.844879
vt 0.715719 0.845150
vt 0.715774 0.845120
vt 0.715774 0.845285
vt 0.715923 0.844653
vt 0.715859 0.844704
vt 0.715853 0.844682
vt 0.715907 0.844639
vt 0.715778 0.844688
vt 0.715709 0.844642
vt 0.715729 0.844631
vt 0.715786 0.844669
vt 0.715963 0.844581
vt 0.715940 0.844579
vt 0.716103 0.845136
vt 0.716110 0.845066
vt 0.716217 0.845081
vt 0.716042 0.845164
vt 0.716007 0.845063
vt 0.715783 0.845056
vt 0.715749 0.844999
vt 0.715854 0.845051
vt 0.716119 0.845001
vt 0.716185 0.844985
vt 0.715694 0.845120
vt 0.715721 0.844934
vt 0.715660 0.844924
vt 0.715692 0.844821
vt 0.715662 0.845030
vt 0.777141 0.844563
vt 0.777160 0.844497
vt 0.777222 0.844468
vt 0.777291 0.844465
vt 0.777338 0.844515
vt 0.777361 0.844579
vt 0.777328 0.844639
vt 0.777274 0.844682
vt 0.777207 0.844669
vt 0.777150 0.844631
vt 0.715870 0.844744
vt 0.715763 0.844724
vt 0.715955 0.844678
vt 0.715690 0.844453
vt 0.715788 0.844407
vt 0.715970 0.844482
vt 0.716007 0.844583
vt 0.716262 0.845107
vt 0.716217 0.845066
vt 0.716262 0.844966
vt 0.715673 0.844664
vt 0.715660 0.844557
vt 0.715660 0.844767
vt 0.715566 0.844988
vt 0.715650 0.844984
vt 0.715650 0.845121
vt 0.716218 0.844403
vt 0.716158 0.845289
vt 0.716223 0.845261
vt 0.716223 0.845374
vt 0.715996 0.845120
vt 0.715996 0.845267
vt 0.715882 0.845166
vt 0.716205 0.844657
vt 0.715575 0.845292
vt 0.715475 0.845254
vt 0.715575 0.845187
vt 0.715475 0.845187
vt 0.716101 0.845292
vt 0.716158 0.845261
vt 0.716158 0.845403
vt 0.716101 0.845365
vt 0.716007 0.845365
vt 0.716032 0.845261
vt 0.715882 0.845302
vt 0.715942 0.845267
vt 0.715942 0.845353
vt 0.715660 0.845163
vt 0.715650 0.845269
vt 0.715587 0.845210
vt 0.715650 0.845121
vt 0.716034 0.844966
vt 0.715566 0.844867
vt 0.715644 0.844814
vt 0.715644 0.844984
vt 0.715996 0.844987
vt 0.715935 0.844979
vt 0.715996 0.844821
vt 0.715261 0.844997
vt 0.715896 0.844403
vt 0.715566 0.845187
vt 0.716006 0.845102
vt 0.715935 0.845102
vt 0.715966 0.844987
vt 0.715370 0.845310
vt 0.715261 0.845310
vt 0.715320 0.845187
vt 0.716007 0.844821
vn -0.3136 -0.9342 0.1703
vn -0.4934 -0.6760 0.5473
vn -0.2772 -0.3872 -0.8793
vn -0.1148 -0.6760 0.7279
vn 0.0650 -0.9342 0.3508
vn -0.7679 -0.3535 0.5342
vn -0.2588 -0.9342 -0.2456
vn -0.6730 -0.6760 -0.3001
vn -0.3350 -0.6760 -0.6564
vn 0.1536 -0.9342 -0.3221
vn 0.0775 -0.6760 -0.7328
vn -0.5668 -0.3810 -0.7305
vn 0.3538 -0.9342 0.0466
vn 0.7209 -0.6760 -0.1528
vn 0.6568 -0.6760 0.3342
vn -0.9216 -0.3191 0.2210
vn -0.6872 -0.3191 0.6526
vn -0.8745 0.0986 0.4748
vn 0.0481 -0.9885 -0.1437
vn -0.8330 -0.3191 -0.4519
vn -0.7218 0.0986 -0.6850
vn 0.6157 -0.3191 -0.7205
vn 0.1724 -0.3191 -0.9319
vn 0.4284 0.0986 -0.8982
vn 0.8755 -0.3191 0.3629
vn 0.9396 -0.3191 -0.1240
vn 0.9866 0.0986 0.1299
vn 0.5159 -0.1559 0.8423
vn 0.7331 0.4861 0.4756
vn -0.1798 -0.1559 0.9713
vn -0.9866 -0.0986 -0.1299
vn -0.9396 0.3191 0.1240
vn 0.0352 -0.4153 -0.9090
vn -0.1813 -0.0986 -0.9785
vn -0.4083 0.3192 -0.8553
vn 0.8620 -0.3732 -0.3430
vn 0.8745 -0.0986 -0.4748
vn 0.6872 0.3191 -0.6526
vn -0.0136 0.1749 -0.9845
vn 0.0322 0.9230 0.3833
vn -0.5140 0.4861 0.7068
vn 0.1073 0.9230 0.3694
vn -0.2442 -0.1157 0.9628
vn -0.4967 0.5511 0.6705
vn 0.5730 -0.1157 0.8113
vn -0.6568 0.6760 -0.3342
vn -0.7209 0.6760 0.1528
vn -0.3538 0.9342 -0.0466
vn 0.1148 0.6760 -0.7279
vn -0.3681 0.6760 -0.6384
vn 0.3375 0.0042 -0.9413
vn 0.7278 0.6760 -0.1157
vn 0.4934 0.6760 -0.5473
vn 0.3136 0.9342 -0.1703
vn 0.1630 0.4472 0.8795
vn 0.7040 0.5511 0.4480
vn 0.0944 0.3569 0.9294
vn 0.2742 0.4763 0.8354
vn 0.2730 0.4792 0.8342
vn 0.2409 0.3547 0.9034
vn -0.7156 0.2382 0.6567
vn 0.1495 0.5541 0.8189
vn 0.2411 0.3548 0.9033
vn 0.0415 0.4727 0.8803
vn -0.4668 -0.6882 -0.5555
vn 0.1922 0.9794 -0.0615
vn -0.8063 -0.5674 0.1671
vn -0.7404 0.6052 -0.2925
vn 0.1211 0.9909 0.0592
vn -0.9372 0.1779 -0.3000
vn 0.0120 -0.3928 0.9195
vn 0.3929 0.3075 -0.8666
vn -0.9604 -0.2217 0.1688
vn -0.6525 0.0042 -0.7578
vn -0.8464 0.4300 0.3142
vn 0.3746 -0.9134 0.1593
vn 0.3755 -0.6932 -0.6152
vn 0.8478 0.4781 0.2295
vn -0.7092 0.4781 0.5181
vn -0.0282 0.9903 0.1362
vn 0.5848 -0.3773 0.7181
vn 0.7354 -0.3746 0.5646
vn 0.0443 0.4831 0.8744
vn 0.1023 0.3519 0.9304
vn 0.1538 0.5541 0.8181
vn 0.8521 -0.3455 -0.3931
vn -0.4122 -0.9052 0.1035
vn 0.4926 0.4489 -0.7455
vn -0.3976 -0.8850 -0.2421
vn 0.2695 0.4910 0.8284
usemtl Atlas
s off
f 1/1/1 21/2/1 51/3/1 22/4/1
f 1/1/2 22/4/2 52/5/2 23/6/2
f 53/7/3 21/8/3 68/9/3
f 2/10/4 24/11/4 52/5/4 22/4/4
f 2/10/5 22/4/5 51/3/5 25/12/5
f 24/11/6 2/10/6 73/13/6
f 3/14/7 26/15/7 51/16/7 21/8/7
f 3/14/8 21/8/8 53/7/8 27/17/8
f 3/14/9 27/17/9 54/18/9 26/15/9
f 4/19/10 28/20/10 51/16/10 26/15/10
f 4/19/11 26/15/11 54/18/11 29/21/11
f 4/19/12 29/21/12 72/22/12
f 5/23/13 25/24/13 51/25/13 28/26/13
f 5/23/14 28/26/14 55/27/14 30/28/14
f 5/23/15 30/28/15 56/29/15 25/24/15
f 7/30/16 33/31/16 53/32/16 23/6/16
f 7/30/17 23/6/17 52/5/17 34/33/17
f 7/30/18 34/33/18 57/34/18 33/31/18
f 54/35/19 27/36/19 67/37/19
f 8/38/20 27/17/20 53/7/20 36/39/20
f 8/38/21 36/39/21 58/40/21 35/41/21
f 9/42/22 37/43/22 55/27/22 29/44/22
f 9/45/23 29/21/23 54/18/23 38/46/23
f 9/47/24 38/48/24 59/49/24 37/50/24
f 10/51/25 39/52/25 56/29/25 30/28/25
f 10/51/26 30/28/26 55/27/26 40/53/26
f 10/51/27 40/53/27 60/54/27 39/52/27
f 20/55/28 61/56/28 6/57/28 11/58/28
f 32/59/29 64/60/29 77/61/29 74/62/29
f 47/63/30 20/55/30 11/58/30 16/64/30
f 12/65/31 36/66/31 53/32/31 33/31/31
f 12/67/32 33/68/32 57/69/32 42/70/32
f 58/40/33 36/39/33 65/71/33
f 13/72/34 38/46/34 54/18/34 35/41/34
f 13/72/35 35/41/35 58/40/35 43/73/35
f 59/74/36 38/75/36 66/76/36
f 14/77/37 40/53/37 55/27/37 37/43/37
f 14/78/38 37/50/38 59/49/38 44/79/38
f 14/80/39 44/81/39 70/82/39
f 71/83/40 41/84/40 76/85/40 79/86/40
f 63/87/41 31/88/41 15/89/41 75/90/41
f 45/91/42 71/83/42 79/86/42 78/92/42
f 31/88/43 47/63/43 16/64/43 15/89/43
f 41/84/44 63/87/44 75/90/44 76/85/44
f 61/56/45 32/59/45 74/62/45 6/57/45
f 17/93/46 48/94/46 58/95/46 42/70/46
f 17/93/47 42/70/47 57/69/47 46/96/47
f 17/93/48 46/96/48 62/97/48 48/94/48
f 18/98/49 49/99/49 59/49/49 43/100/49
f 18/101/50 43/102/50 58/95/50 48/94/50
f 49/99/51 18/98/51 69/103/51
f 19/104/52 50/105/52 60/106/52 44/79/52
f 19/104/53 44/79/53 59/49/53 49/99/53
f 19/104/54 49/99/54 62/107/54 50/105/54
f 16/108/55 11/109/55 6/110/55 74/111/55 77/112/55 78/113/55 79/114/55 76/115/55 75/116/55 15/117/55
f 64/60/56 45/91/56 78/92/56 77/61/56
f 56/118/57 39/119/57 63/87/57 41/84/57
f 24/120/58 56/118/58 41/84/58 71/83/58
f 62/121/59 46/122/59 61/56/59 20/55/59
f 34/123/60 52/124/60 45/91/60 64/60/60
f 12/125/61 42/126/61 65/127/61
f 39/119/62 60/128/62 31/88/62 63/87/62
f 60/128/63 50/129/63 47/63/63 31/88/63
f 50/129/64 62/121/64 20/55/64 47/63/64
f 38/46/65 13/72/65 66/130/65
f 42/131/66 58/132/66 65/133/66
f 36/66/67 12/65/67 65/134/67
f 8/135/68 35/136/68 67/137/68
f 43/100/69 59/138/69 66/139/69
f 13/140/70 43/100/70 66/139/70
f 1/1/71 23/6/71 68/141/71
f 35/142/72 54/143/72 67/144/72
f 27/36/73 8/145/73 67/37/73
f 18/146/74 48/147/74 69/148/74
f 23/149/75 53/150/75 68/151/75
f 21/152/76 1/153/76 68/154/76
f 40/155/77 14/80/77 70/82/77
f 62/156/78 49/157/78 69/158/78
f 48/94/79 62/97/79 69/159/79
f 44/160/80 60/161/80 70/162/80
f 60/163/81 40/164/81 70/165/81
f 55/27/82 28/26/82 72/166/82
f 52/124/83 24/120/83 71/83/83 45/91/83
f 46/122/84 57/167/84 32/59/84 61/56/84
f 57/167/85 34/123/85 64/60/85 32/59/85
f 25/24/86 56/29/86 73/168/86
f 28/169/87 4/170/87 72/171/87
f 29/172/88 55/173/88 72/174/88
f 2/10/89 25/12/89 73/13/89
f 56/118/90 24/120/90 73/175/90
