# Blender v3.0.0 OBJ File: 'FoodIngredient_Rice.blend'
# www.blender.org
mtllib FoodIngredient_Rice.mtl
o FoodIngredient_Rice_Cube.063
v -0.411379 0.301486 0.000000
v -0.384602 0.300478 0.165523
v -0.334967 0.362923 0.000000
v -0.384602 0.300478 -0.165523
v -0.471428 0.233570 0.000000
v -0.439999 0.233570 0.188571
v -0.315227 0.358889 0.137873
v -0.315227 0.358889 -0.137873
v -0.439999 0.233570 -0.188571
v 0.000000 0.301486 -0.411379
v -0.165523 0.300478 -0.384602
v 0.000000 0.362923 -0.334967
v 0.165523 0.300478 -0.384602
v 0.000000 0.233570 -0.471428
v -0.188571 0.233570 -0.439999
v -0.137873 0.358889 -0.315227
v 0.137873 0.358889 -0.315227
v 0.188571 0.233570 -0.439999
v 0.411379 0.301486 0.000000
v 0.384602 0.300478 -0.165523
v 0.334967 0.362923 0.000000
v 0.384602 0.300478 0.165523
v 0.471428 0.233570 0.000000
v 0.439999 0.233570 -0.188571
v 0.315227 0.358889 -0.137873
v 0.315227 0.358889 0.137873
v 0.439999 0.233570 0.188571
v 0.000000 0.301486 0.411379
v 0.165523 0.300478 0.384602
v 0.000000 0.362923 0.334967
v -0.165523 0.300478 0.384602
v 0.000000 0.233570 0.471428
v 0.188571 0.233570 0.439999
v 0.137873 0.358889 0.315227
v -0.137873 0.358889 0.315227
v -0.188571 0.233570 0.439999
v 0.000000 0.004642 0.000000
v 0.000000 0.008857 -0.208685
v 0.208685 0.008857 0.000000
v 0.000000 0.008857 0.208685
v -0.208685 0.008857 0.000000
v -0.194222 0.012824 -0.194222
v 0.194222 0.012824 -0.194222
v 0.194222 0.012824 0.194222
v -0.194222 0.012824 0.194222
v 0.000000 0.450506 0.000000
v 0.000000 0.440710 -0.125187
v -0.125187 0.440710 0.000000
v 0.000000 0.440710 0.125187
v 0.125187 0.440710 0.000000
v 0.119432 0.431491 -0.119432
v -0.119432 0.431491 -0.119432
v -0.119432 0.431491 0.119432
v 0.119432 0.431491 0.119432
v -0.000000 0.072991 0.535987
v 0.214188 0.073425 0.500117
v 0.000000 0.114893 0.540583
v -0.214188 0.073425 0.500117
v 0.000000 0.042329 0.487621
v 0.194222 0.044065 0.454562
v 0.216233 0.114893 0.504544
v -0.216233 0.114893 0.504544
v -0.194222 0.044065 0.454562
v 0.535987 0.072991 0.000000
v 0.500117 0.073425 -0.214188
v 0.540583 0.114893 0.000000
v 0.500117 0.073425 0.214188
v 0.487621 0.042329 0.000000
v 0.454562 0.044065 -0.194222
v 0.504544 0.114893 -0.216233
v 0.504544 0.114893 0.216233
v 0.454562 0.044065 0.194222
v 0.000000 0.072991 -0.535987
v -0.214188 0.073425 -0.500117
v 0.000000 0.114893 -0.540583
v 0.214188 0.073425 -0.500117
v 0.000000 0.042329 -0.487621
v -0.194222 0.044065 -0.454562
v -0.216233 0.114893 -0.504544
v 0.216233 0.114893 -0.504544
v 0.194222 0.044065 -0.454562
v -0.535987 0.072991 -0.000000
v -0.500117 0.073425 0.214188
v -0.540583 0.114893 0.000000
v -0.500117 0.073425 -0.214188
v -0.487621 0.042329 0.000000
v -0.454562 0.044065 0.194222
v -0.504544 0.114893 0.216233
v -0.504544 0.114893 -0.216233
v -0.454562 0.044065 -0.194222
v -0.356418 0.024601 -0.179759
v -0.382762 0.021440 0.000000
v -0.356418 0.024601 0.179759
v -0.345714 0.233570 0.345714
v -0.303054 0.299469 0.303054
v -0.251148 0.354856 0.251148
v -0.228096 0.404121 0.118287
v -0.240225 0.411468 0.000000
v -0.228096 0.404121 -0.118287
v -0.396428 0.114893 -0.396428
v -0.392764 0.073859 -0.392764
v -0.356418 0.045800 -0.356418
v 0.179759 0.024601 -0.356418
v 0.000000 0.021440 -0.382762
v -0.179759 0.024601 -0.356418
v -0.118287 0.404121 -0.228096
v 0.000000 0.411468 -0.240225
v 0.118287 0.404121 -0.228096
v 0.396428 0.114893 -0.396428
v 0.392764 0.073859 -0.392764
v 0.356418 0.045800 -0.356418
v 0.356418 0.024601 0.179759
v 0.382762 0.021440 0.000000
v 0.356418 0.024601 -0.179759
v 0.228096 0.404121 -0.118287
v 0.240225 0.411468 0.000000
v 0.228096 0.404121 0.118287
v 0.396428 0.114893 0.396428
v 0.392764 0.073859 0.392764
v 0.356418 0.045800 0.356418
v -0.179759 0.024601 0.356418
v 0.000000 0.021440 0.382762
v 0.179759 0.024601 0.356418
v 0.118287 0.404121 0.228096
v 0.000000 0.411468 0.240225
v -0.118287 0.404121 0.228096
v -0.356418 0.045800 0.356418
v -0.392764 0.073859 0.392764
v -0.396428 0.114893 0.396428
v -0.251148 0.354856 -0.251148
v -0.303054 0.299469 -0.303054
v -0.345714 0.233570 -0.345714
v 0.251148 0.354856 -0.251148
v 0.303054 0.299469 -0.303054
v 0.345714 0.233570 -0.345714
v 0.251148 0.354856 0.251148
v 0.303054 0.299469 0.303054
v 0.345714 0.233570 0.345714
v 0.205860 0.168323 0.480340
v 0.000000 0.168323 0.514650
v -0.205860 0.168323 0.480340
v 0.480340 0.168323 -0.205860
v 0.514650 0.168323 0.000000
v 0.480340 0.168323 0.205860
v -0.205860 0.168323 -0.480340
v 0.000000 0.168323 -0.514650
v 0.205860 0.168323 -0.480340
v -0.480340 0.168323 0.205860
v -0.514650 0.168323 0.000000
v -0.480340 0.168323 -0.205860
v -0.303042 0.031006 0.303042
v -0.201955 0.389236 0.201955
v -0.303042 0.031006 -0.303042
v -0.201955 0.389236 -0.201955
v 0.303042 0.031006 0.303042
v 0.201955 0.389236 0.201955
v 0.303042 0.031006 -0.303042
v 0.201955 0.389236 -0.201955
v -0.377410 0.168323 0.377410
v -0.377410 0.168323 -0.377410
v 0.377410 0.168323 -0.377410
v 0.377410 0.168323 0.377410
vt 0.022937 0.228903
vt 0.022900 0.228897
vt 0.022901 0.228799
vt 0.022937 0.228817
vt 0.022662 0.228664
vt 0.022644 0.228689
vt 0.022569 0.228625
vt 0.022597 0.228608
vt 0.022865 0.228893
vt 0.022865 0.228786
vt 0.022867 0.228704
vt 0.022902 0.228724
vt 0.022747 0.228692
vt 0.022684 0.228631
vt 0.022755 0.228653
vt 0.022703 0.228587
vt 0.022764 0.228604
vt 0.022630 0.228586
vt 0.022661 0.228565
vt 0.022829 0.228655
vt 0.022837 0.228692
vt 0.022895 0.228630
vt 0.022916 0.228661
vt 0.022828 0.228608
vt 0.022874 0.228600
vt 0.022937 0.228994
vt 0.022900 0.229001
vt 0.022865 0.229007
vt 0.022937 0.229076
vt 0.022901 0.229095
vt 0.022866 0.229109
vt 0.022689 0.228903
vt 0.022652 0.228897
vt 0.022653 0.228799
vt 0.022689 0.228817
vt 0.022971 0.228594
vt 0.022997 0.228609
vt 0.022934 0.228685
vt 0.022617 0.228893
vt 0.022617 0.228786
vt 0.022619 0.228704
vt 0.022654 0.228724
vt 0.023000 0.228507
vt 0.022938 0.228575
vt 0.022961 0.228503
vt 0.022895 0.228558
vt 0.022912 0.228496
vt 0.022962 0.228427
vt 0.023000 0.228416
vt 0.022938 0.228361
vt 0.022969 0.228335
vt 0.022916 0.228431
vt 0.022909 0.228384
vt 0.022689 0.228994
vt 0.022652 0.229001
vt 0.022617 0.229007
vt 0.022689 0.229076
vt 0.022654 0.229095
vt 0.022618 0.229109
vt 0.022813 0.228903
vt 0.022776 0.228897
vt 0.022777 0.228799
vt 0.022813 0.228817
vt 0.022903 0.228280
vt 0.022919 0.228250
vt 0.022994 0.228314
vt 0.022741 0.228893
vt 0.022741 0.228786
vt 0.022743 0.228704
vt 0.022778 0.228724
vt 0.022819 0.228251
vt 0.022884 0.228316
vt 0.022813 0.228294
vt 0.022867 0.228363
vt 0.022806 0.228346
vt 0.022739 0.228293
vt 0.022729 0.228251
vt 0.022673 0.228317
vt 0.022649 0.228283
vt 0.022742 0.228342
vt 0.022696 0.228349
vt 0.022813 0.228994
vt 0.022776 0.229001
vt 0.022741 0.229007
vt 0.022813 0.229076
vt 0.022777 0.229095
vt 0.022742 0.229109
vt 0.022124 0.229036
vt 0.022087 0.229030
vt 0.022087 0.228932
vt 0.022124 0.228950
vt 0.022594 0.228350
vt 0.022566 0.228330
vt 0.022629 0.228254
vt 0.022051 0.229026
vt 0.022052 0.228919
vt 0.022054 0.228837
vt 0.022089 0.228857
vt 0.022566 0.228436
vt 0.022630 0.228372
vt 0.022607 0.228445
vt 0.022675 0.228392
vt 0.022659 0.228454
vt 0.022606 0.228520
vt 0.022566 0.228527
vt 0.022655 0.228519
vt 0.022123 0.229127
vt 0.022087 0.229134
vt 0.022052 0.229140
vt 0.022124 0.229209
vt 0.022088 0.229228
vt 0.022053 0.229242
vt 0.022282 0.228538
vt 0.022300 0.228426
vt 0.022401 0.228452
vt 0.022392 0.228557
vt 0.022486 0.228474
vt 0.022484 0.228573
vt 0.022316 0.228333
vt 0.022408 0.228363
vt 0.022469 0.228403
vt 0.022367 0.228660
vt 0.022263 0.228650
vt 0.022345 0.228746
vt 0.022248 0.228744
vt 0.022454 0.228667
vt 0.022415 0.228728
vt 0.022162 0.228625
vt 0.022172 0.228520
vt 0.022078 0.228603
vt 0.022080 0.228504
vt 0.022156 0.228713
vt 0.022096 0.228673
vt 0.022196 0.228417
vt 0.022219 0.228331
vt 0.022110 0.228410
vt 0.022149 0.228348
vt 0.022786 0.228476
vt 0.022797 0.228409
vt 0.022859 0.228422
vt 0.022852 0.228487
vt 0.022838 0.228550
vt 0.022775 0.228543
vt 0.022712 0.228530
vt 0.022720 0.228465
vt 0.022733 0.228401
vt 0.022000 0.228489
vt 0.022025 0.228494
vt 0.022025 0.228601
vt 0.022000 0.228608
vt 0.022063 0.228697
vt 0.022041 0.228713
vt 0.022000 0.229024
vt 0.022001 0.228913
vt 0.022023 0.228911
vt 0.022022 0.229024
vt 0.022003 0.228828
vt 0.022025 0.228825
vt 0.022023 0.229143
vt 0.022000 0.229143
vt 0.022024 0.229250
vt 0.022002 0.229248
vt 0.022038 0.228378
vt 0.022060 0.228393
vt 0.022110 0.228292
vt 0.022126 0.228315
vt 0.022236 0.228825
vt 0.022239 0.228800
vt 0.022345 0.228799
vt 0.022352 0.228825
vt 0.022439 0.228761
vt 0.022455 0.228784
vt 0.022689 0.228891
vt 0.022690 0.228780
vt 0.022712 0.228779
vt 0.022712 0.228891
vt 0.022692 0.228695
vt 0.022714 0.228692
vt 0.022712 0.229010
vt 0.022690 0.229010
vt 0.022713 0.229117
vt 0.022691 0.229116
vt 0.022126 0.228787
vt 0.022140 0.228764
vt 0.022566 0.228586
vt 0.022540 0.228582
vt 0.022539 0.228475
vt 0.022565 0.228468
vt 0.022502 0.228379
vt 0.022525 0.228362
vt 0.022566 0.228891
vt 0.022566 0.228780
vt 0.022589 0.228779
vt 0.022588 0.228891
vt 0.022568 0.228695
vt 0.022590 0.228692
vt 0.022588 0.229010
vt 0.022566 0.229010
vt 0.022589 0.229117
vt 0.022567 0.229116
vt 0.022528 0.228698
vt 0.022505 0.228683
vt 0.022330 0.228250
vt 0.022325 0.228276
vt 0.022220 0.228277
vt 0.022214 0.228250
vt 0.022813 0.228891
vt 0.022814 0.228780
vt 0.022836 0.228779
vt 0.022836 0.228891
vt 0.022816 0.228695
vt 0.022838 0.228692
vt 0.022836 0.229010
vt 0.022814 0.229010
vt 0.022837 0.229117
vt 0.022815 0.229116
vt 0.022440 0.228289
vt 0.022425 0.228312
vn -0.6928 0.7211 0.0000
vn -0.7959 0.6054 0.0000
vn -0.7439 0.6099 0.2732
vn -0.6459 0.7251 0.2388
vn -0.5565 0.6169 0.5565
vn -0.4827 0.7308 0.4827
vn -0.8703 0.4926 0.0000
vn -0.8142 0.4973 0.2996
vn -0.6105 0.5046 0.6105
vn -0.5094 0.8379 0.1962
vn -0.5449 0.8385 0.0000
vn -0.3372 0.9266 0.1663
vn -0.3548 0.9349 0.0000
vn -0.3862 0.8377 0.3862
vn -0.2966 0.9077 0.2966
vn -0.5094 0.8379 -0.1962
vn -0.6459 0.7251 -0.2388
vn -0.3862 0.8377 -0.3862
vn -0.4827 0.7308 -0.4827
vn -0.3372 0.9266 -0.1663
vn -0.2966 0.9077 -0.2966
vn -0.7439 0.6099 -0.2732
vn -0.8142 0.4973 -0.2996
vn -0.5565 0.6169 -0.5565
vn -0.6105 0.5046 -0.6105
vn 0.0000 0.7211 -0.6928
vn 0.0000 0.6054 -0.7959
vn -0.2732 0.6099 -0.7439
vn -0.2388 0.7251 -0.6459
vn 0.0000 0.4926 -0.8703
vn -0.2996 0.4973 -0.8142
vn -0.1962 0.8379 -0.5094
vn 0.0000 0.8385 -0.5449
vn -0.1663 0.9266 -0.3372
vn 0.0000 0.9349 -0.3548
vn 0.1962 0.8379 -0.5094
vn 0.2388 0.7251 -0.6459
vn 0.3862 0.8377 -0.3862
vn 0.4827 0.7308 -0.4827
vn 0.1663 0.9266 -0.3372
vn 0.2966 0.9077 -0.2966
vn 0.2732 0.6099 -0.7439
vn 0.2996 0.4973 -0.8142
vn 0.5565 0.6169 -0.5565
vn 0.6105 0.5046 -0.6105
vn 0.6928 0.7211 0.0000
vn 0.7959 0.6054 0.0000
vn 0.7439 0.6099 -0.2732
vn 0.6459 0.7251 -0.2388
vn 0.8703 0.4926 0.0000
vn 0.8142 0.4973 -0.2996
vn 0.5094 0.8379 -0.1962
vn 0.5449 0.8385 0.0000
vn 0.3372 0.9266 -0.1663
vn 0.3548 0.9349 0.0000
vn 0.5094 0.8379 0.1962
vn 0.6459 0.7251 0.2388
vn 0.3862 0.8377 0.3862
vn 0.4827 0.7308 0.4827
vn 0.3372 0.9266 0.1663
vn 0.2966 0.9077 0.2966
vn 0.7439 0.6099 0.2732
vn 0.8142 0.4973 0.2996
vn 0.5565 0.6169 0.5565
vn 0.6105 0.5046 0.6105
vn 0.0000 0.7211 0.6928
vn 0.0000 0.6054 0.7959
vn 0.2732 0.6099 0.7439
vn 0.2388 0.7251 0.6459
vn 0.0000 0.4926 0.8703
vn 0.2996 0.4973 0.8142
vn 0.1962 0.8379 0.5094
vn 0.0000 0.8385 0.5449
vn 0.1663 0.9266 0.3372
vn 0.0000 0.9349 0.3548
vn -0.1962 0.8379 0.5094
vn -0.2388 0.7251 0.6459
vn -0.1663 0.9266 0.3372
vn -0.2732 0.6099 0.7439
vn -0.2996 0.4973 0.8142
vn 0.0000 -1.0000 0.0000
vn -0.0485 -0.9988 0.0000
vn -0.0513 -0.9973 -0.0513
vn 0.0000 -0.9988 -0.0485
vn -0.0670 -0.9889 -0.1326
vn 0.0000 -0.9904 -0.1383
vn -0.1383 -0.9904 0.0000
vn -0.1326 -0.9889 -0.0670
vn -0.1204 -0.9854 -0.1204
vn 0.0513 -0.9973 -0.0513
vn 0.0485 -0.9988 0.0000
vn 0.1326 -0.9889 -0.0670
vn 0.1383 -0.9904 0.0000
vn 0.0670 -0.9889 -0.1326
vn 0.1204 -0.9854 -0.1204
vn 0.0513 -0.9973 0.0513
vn 0.0000 -0.9988 0.0485
vn 0.0670 -0.9889 0.1326
vn 0.0000 -0.9904 0.1383
vn 0.1326 -0.9889 0.0670
vn 0.1204 -0.9854 0.1204
vn -0.0513 -0.9973 0.0513
vn -0.1326 -0.9889 0.0670
vn -0.0670 -0.9889 0.1326
vn -0.1204 -0.9854 0.1204
vn 0.0000 1.0000 0.0000
vn 0.1650 0.9863 0.0000
vn 0.1619 0.9734 -0.1619
vn 0.0000 0.9863 -0.1650
vn -0.1619 0.9734 -0.1619
vn -0.1650 0.9863 0.0000
vn -0.1619 0.9734 0.1619
vn 0.0000 0.9863 0.1650
vn 0.1619 0.9734 0.1619
vn 0.0000 -0.5163 0.8563
vn 0.0000 -0.9250 0.3800
vn 0.1327 -0.9269 0.3510
vn 0.2972 -0.5228 0.7990
vn 0.2626 -0.9285 0.2626
vn 0.6013 -0.5261 0.6013
vn 0.3427 0.1641 0.9250
vn 0.0000 0.1645 0.9864
vn 0.6975 0.1639 0.6975
vn -0.3427 0.1641 0.9250
vn -0.2972 -0.5228 0.7990
vn -0.6975 0.1639 0.6975
vn -0.6013 -0.5261 0.6013
vn -0.1327 -0.9269 0.3510
vn -0.2626 -0.9285 0.2626
vn 0.8563 -0.5163 0.0000
vn 0.3800 -0.9250 0.0000
vn 0.3510 -0.9269 -0.1327
vn 0.7990 -0.5228 -0.2972
vn 0.2626 -0.9285 -0.2626
vn 0.6013 -0.5261 -0.6013
vn 0.9250 0.1641 -0.3427
vn 0.9864 0.1645 0.0000
vn 0.6975 0.1639 -0.6975
vn 0.9250 0.1641 0.3427
vn 0.7990 -0.5228 0.2972
vn 0.3510 -0.9269 0.1327
vn 0.0000 -0.5163 -0.8563
vn 0.0000 -0.9250 -0.3800
vn -0.1327 -0.9269 -0.3510
vn -0.2972 -0.5228 -0.7990
vn -0.2626 -0.9285 -0.2626
vn -0.6013 -0.5261 -0.6013
vn -0.3427 0.1641 -0.9250
vn 0.0000 0.1645 -0.9864
vn -0.6975 0.1639 -0.6975
vn 0.3427 0.1641 -0.9250
vn 0.2972 -0.5228 -0.7990
vn 0.1327 -0.9269 -0.3510
vn -0.8563 -0.5163 0.0000
vn -0.3800 -0.9250 0.0000
vn -0.3510 -0.9269 0.1327
vn -0.7990 -0.5228 0.2972
vn -0.9250 0.1641 0.3427
vn -0.9864 0.1645 0.0000
vn -0.9250 0.1641 -0.3427
vn -0.7990 -0.5228 -0.2972
vn -0.3510 -0.9269 -0.1327
usemtl Atlas
s 1
f 1/1/1 5/2/2 6/3/3 2/4/4
f 2/5/4 6/6/3 94/7/5 95/8/6
f 5/2/2 149/9/7 148/10/8 6/3/3
f 6/3/3 148/10/8 159/11/9 94/12/5
f 1/13/1 2/5/4 7/14/10 3/15/11
f 3/15/11 7/14/10 97/16/12 98/17/13
f 2/5/4 95/8/6 96/18/14 7/14/10
f 7/14/10 96/18/14 152/19/15 97/16/12
f 1/13/1 3/15/11 8/20/16 4/21/17
f 4/21/17 8/20/16 130/22/18 131/23/19
f 3/15/11 98/17/13 99/24/20 8/20/16
f 8/20/16 99/24/20 154/25/21 130/22/18
f 1/1/1 4/26/17 9/27/22 5/2/2
f 5/2/2 9/27/22 150/28/23 149/9/7
f 4/26/17 131/29/19 132/30/24 9/27/22
f 9/27/22 132/30/24 160/31/25 150/28/23
f 10/32/26 14/33/27 15/34/28 11/35/29
f 11/36/29 15/37/28 132/38/24 131/23/19
f 14/33/27 146/39/30 145/40/31 15/34/28
f 15/34/28 145/40/31 160/41/25 132/42/24
f 10/43/26 11/36/29 16/44/32 12/45/33
f 12/45/33 16/44/32 106/46/34 107/47/35
f 11/36/29 131/23/19 130/22/18 16/44/32
f 16/44/32 130/22/18 154/25/21 106/46/34
f 10/43/26 12/45/33 17/48/36 13/49/37
f 13/49/37 17/48/36 133/50/38 134/51/39
f 12/45/33 107/47/35 108/52/40 17/48/36
f 17/48/36 108/52/40 158/53/41 133/50/38
f 10/32/26 13/54/37 18/55/42 14/33/27
f 14/33/27 18/55/42 147/56/43 146/39/30
f 13/54/37 134/57/39 135/58/44 18/55/42
f 18/55/42 135/58/44 161/59/45 147/56/43
f 19/60/46 23/61/47 24/62/48 20/63/49
f 20/64/49 24/65/48 135/66/44 134/51/39
f 23/61/47 143/67/50 142/68/51 24/62/48
f 24/62/48 142/68/51 161/69/45 135/70/44
f 19/71/46 20/64/49 25/72/52 21/73/53
f 21/73/53 25/72/52 115/74/54 116/75/55
f 20/64/49 134/51/39 133/50/38 25/72/52
f 25/72/52 133/50/38 158/53/41 115/74/54
f 19/71/46 21/73/53 26/76/56 22/77/57
f 22/77/57 26/76/56 136/78/58 137/79/59
f 21/73/53 116/75/55 117/80/60 26/76/56
f 26/76/56 117/80/60 156/81/61 136/78/58
f 19/60/46 22/82/57 27/83/62 23/61/47
f 23/61/47 27/83/62 144/84/63 143/67/50
f 22/82/57 137/85/59 138/86/64 27/83/62
f 27/83/62 138/86/64 162/87/65 144/84/63
f 28/88/66 32/89/67 33/90/68 29/91/69
f 29/92/69 33/93/68 138/94/64 137/79/59
f 32/89/67 140/95/70 139/96/71 33/90/68
f 33/90/68 139/96/71 162/97/65 138/98/64
f 28/99/66 29/92/69 34/100/72 30/101/73
f 30/101/73 34/100/72 124/102/74 125/103/75
f 29/92/69 137/79/59 136/78/58 34/100/72
f 34/100/72 136/78/58 156/81/61 124/102/74
f 28/99/66 30/101/73 35/104/76 31/105/77
f 31/105/77 35/104/76 96/18/14 95/8/6
f 30/101/73 125/103/75 126/106/78 35/104/76
f 35/104/76 126/106/78 152/19/15 96/18/14
f 28/88/66 31/107/77 36/108/79 32/89/67
f 32/89/67 36/108/79 141/109/80 140/95/70
f 31/107/77 95/110/6 94/111/5 36/108/79
f 36/108/79 94/111/5 159/112/9 141/109/80
f 37/113/81 41/114/82 42/115/83 38/116/84
f 38/116/84 42/115/83 105/117/85 104/118/86
f 41/114/82 92/119/87 91/120/88 42/115/83
f 42/115/83 91/120/88 153/121/89 105/117/85
f 37/113/81 38/116/84 43/122/90 39/123/91
f 39/123/91 43/122/90 114/124/92 113/125/93
f 38/116/84 104/118/86 103/126/94 43/122/90
f 43/122/90 103/126/94 157/127/95 114/124/92
f 37/113/81 39/123/91 44/128/96 40/129/97
f 40/129/97 44/128/96 123/130/98 122/131/99
f 39/123/91 113/125/93 112/132/100 44/128/96
f 44/128/96 112/132/100 155/133/101 123/130/98
f 37/113/81 40/129/97 45/134/102 41/114/82
f 41/114/82 45/134/102 93/135/103 92/119/87
f 40/129/97 122/131/99 121/136/104 45/134/102
f 45/134/102 121/136/104 151/137/105 93/135/103
f 46/138/106 50/139/107 51/140/108 47/141/109
f 47/141/109 51/140/108 108/52/40 107/47/35
f 50/139/107 116/75/55 115/74/54 51/140/108
f 51/140/108 115/74/54 158/53/41 108/52/40
f 46/138/106 47/141/109 52/142/110 48/143/111
f 48/143/111 52/142/110 99/24/20 98/17/13
f 47/141/109 107/47/35 106/46/34 52/142/110
f 52/142/110 106/46/34 154/25/21 99/24/20
f 46/138/106 48/143/111 53/144/112 49/145/113
f 49/145/113 53/144/112 126/106/78 125/103/75
f 48/143/111 98/17/13 97/16/12 53/144/112
f 53/144/112 97/16/12 152/19/15 126/106/78
f 46/138/106 49/145/113 54/146/114 50/139/107
f 50/139/107 54/146/114 117/80/60 116/75/55
f 49/145/113 125/103/75 124/102/74 54/146/114
f 54/146/114 124/102/74 156/81/61 117/80/60
f 55/147/115 59/148/116 60/149/117 56/150/118
f 56/150/118 60/149/117 120/151/119 119/152/120
f 59/148/116 122/131/99 123/130/98 60/149/117
f 60/149/117 123/130/98 155/133/101 120/151/119
f 55/153/115 56/154/118 61/155/121 57/156/122
f 57/156/122 61/155/121 139/96/71 140/95/70
f 56/154/118 119/157/120 118/158/123 61/155/121
f 61/155/121 118/158/123 162/97/65 139/96/71
f 55/153/115 57/156/122 62/159/124 58/160/125
f 58/160/125 62/159/124 129/161/126 128/162/127
f 57/156/122 140/95/70 141/109/80 62/159/124
f 62/159/124 141/109/80 159/112/9 129/161/126
f 55/147/115 58/163/125 63/164/128 59/148/116
f 59/148/116 63/164/128 121/136/104 122/131/99
f 58/163/125 128/165/127 127/166/129 63/164/128
f 63/164/128 127/166/129 151/137/105 121/136/104
f 64/167/130 68/168/131 69/169/132 65/170/133
f 65/170/133 69/169/132 111/171/134 110/172/135
f 68/168/131 113/125/93 114/124/92 69/169/132
f 69/169/132 114/124/92 157/127/95 111/171/134
f 64/173/130 65/174/133 70/175/136 66/176/137
f 66/176/137 70/175/136 142/68/51 143/67/50
f 65/174/133 110/177/135 109/178/138 70/175/136
f 70/175/136 109/178/138 161/69/45 142/68/51
f 64/173/130 66/176/137 71/179/139 67/180/140
f 67/180/140 71/179/139 118/181/123 119/182/120
f 66/176/137 143/67/50 144/84/63 71/179/139
f 71/179/139 144/84/63 162/87/65 118/181/123
f 64/167/130 67/183/140 72/184/141 68/168/131
f 68/168/131 72/184/141 112/132/100 113/125/93
f 67/183/140 119/152/120 120/151/119 72/184/141
f 72/184/141 120/151/119 155/133/101 112/132/100
f 73/185/142 77/186/143 78/187/144 74/188/145
f 74/188/145 78/187/144 102/189/146 101/190/147
f 77/186/143 104/118/86 105/117/85 78/187/144
f 78/187/144 105/117/85 153/121/89 102/189/146
f 73/191/142 74/192/145 79/193/148 75/194/149
f 75/194/149 79/193/148 145/40/31 146/39/30
f 74/192/145 101/195/147 100/196/150 79/193/148
f 79/193/148 100/196/150 160/41/25 145/40/31
f 73/191/142 75/194/149 80/197/151 76/198/152
f 76/198/152 80/197/151 109/199/138 110/200/135
f 75/194/149 146/39/30 147/56/43 80/197/151
f 80/197/151 147/56/43 161/59/45 109/199/138
f 73/185/142 76/201/152 81/202/153 77/186/143
f 77/186/143 81/202/153 103/126/94 104/118/86
f 76/201/152 110/172/135 111/171/134 81/202/153
f 81/202/153 111/171/134 157/127/95 103/126/94
f 82/203/154 86/204/155 87/205/156 83/206/157
f 83/206/157 87/205/156 127/166/129 128/165/127
f 86/204/155 92/119/87 93/135/103 87/205/156
f 87/205/156 93/135/103 151/137/105 127/166/129
f 82/207/154 83/208/157 88/209/158 84/210/159
f 84/210/159 88/209/158 148/10/8 149/9/7
f 83/208/157 128/211/127 129/212/126 88/209/158
f 88/209/158 129/212/126 159/11/9 148/10/8
f 82/207/154 84/210/159 89/213/160 85/214/161
f 85/214/161 89/213/160 100/215/150 101/216/147
f 84/210/159 149/9/7 150/28/23 89/213/160
f 89/213/160 150/28/23 160/31/25 100/215/150
f 82/203/154 85/217/161 90/218/162 86/204/155
f 86/204/155 90/218/162 91/120/88 92/119/87
f 85/217/161 101/190/147 102/189/146 90/218/162
f 90/218/162 102/189/146 153/121/89 91/120/88
