# Blender v3.0.0 OBJ File: 'Environment_Counter_End.blend'
# www.blender.org
mtllib Environment_Counter_End.mtl
o Environment_Counter_End_Cube.032
v -2.000000 1.655985 0.818192
v -2.000000 1.750179 0.882915
v -2.000000 1.683574 0.863958
v -2.000000 1.750179 -0.882915
v -2.000000 1.655985 -0.818192
v -2.000000 1.683574 -0.863958
v -0.827647 1.750179 0.882915
v -0.827647 1.655985 0.818192
v -0.827647 1.683574 0.863958
v -0.827647 1.655985 -0.818192
v -0.827647 1.750179 -0.882915
v -0.827647 1.683574 -0.863958
v -2.000000 1.829386 0.882915
v -2.000000 1.923581 0.818192
v -2.000000 1.895992 0.863958
v -2.000000 1.923581 -0.818192
v -2.000000 1.829386 -0.882915
v -2.000000 1.895992 -0.863958
v -0.827647 1.923581 0.818192
v -0.827647 1.829386 0.882915
v -0.827647 1.895992 0.863958
v -0.827647 1.829386 -0.882915
v -0.827647 1.923581 -0.818192
v -0.827647 1.895992 -0.863958
v -2.000000 0.055985 0.818192
v -2.000000 0.150179 0.882915
v -2.000000 0.083574 0.863958
v -2.000000 0.150179 -0.882915
v -2.000000 0.055985 -0.818192
v -2.000000 0.083574 -0.863958
v -0.827647 0.150179 0.882915
v -0.827647 0.055985 0.818192
v -0.827647 0.083574 0.863958
v -0.827647 0.055985 -0.818192
v -0.827647 0.150179 -0.882915
v -0.827647 0.083574 -0.863958
v -2.000000 0.229386 0.882915
v -2.000000 0.323581 0.818192
v -2.000000 0.295992 0.863958
v -2.000000 0.323581 -0.818192
v -2.000000 0.229386 -0.882915
v -2.000000 0.295992 -0.863958
v -0.827647 0.323581 0.818192
v -0.827647 0.229386 0.882915
v -0.827647 0.295992 0.863958
v -0.827647 0.229386 -0.882915
v -0.827647 0.323581 -0.818192
v -0.827647 0.295992 -0.863958
v -0.537894 1.683574 0.863958
v -0.537894 1.750179 0.882915
v -0.537894 1.655985 0.818192
v -0.537894 1.683574 -0.863958
v -0.537894 1.655985 -0.818192
v -0.537894 1.750179 -0.882915
v -0.537894 1.895992 0.863958
v -0.537894 1.923581 0.818192
v -0.537894 1.829386 0.882915
v -0.537894 1.895992 -0.863958
v -0.537894 1.829386 -0.882915
v -0.537894 1.923581 -0.818192
v -0.827647 0.000000 0.863958
v -0.827647 0.000000 0.882915
v -0.827647 0.000000 0.818192
v -0.827647 0.000000 -0.863958
v -0.827647 0.000000 -0.818192
v -0.827647 0.000000 -0.882915
v -0.537894 0.000000 0.863958
v -0.537894 0.000000 0.882915
v -0.537894 0.000000 0.818192
v -0.537894 0.000000 -0.863958
v -0.537894 0.000000 -0.818192
v -0.537894 0.000000 -0.882915
v -2.000000 0.000000 -0.683318
v -2.000000 1.655985 -0.683318
v -2.000000 1.655985 0.683318
v -2.000000 0.000000 0.683318
v -2.000000 0.631548 0.700000
v -2.000000 1.695873 0.606943
v -2.000000 0.316091 0.606943
v -2.000000 0.631548 0.606943
v -2.000000 1.025640 0.606943
v -2.000000 1.341097 0.606943
v -2.000000 0.986323 0.606943
v -2.000000 0.670865 0.606943
v -2.000000 1.380415 0.606943
v -2.000000 0.316091 0.700000
v -2.000000 0.986323 0.700000
v -2.000000 1.695873 0.700000
v -2.000000 1.341097 0.700000
v -2.000000 1.025640 0.700000
v -2.000000 1.380415 0.700000
v -2.000000 0.670865 0.700000
v -0.955809 1.380415 0.606943
v -0.955809 1.695873 0.606943
v -0.955809 1.695873 0.700000
v -0.955809 1.380415 0.700000
v -0.825374 1.380415 0.651336
v -0.825374 1.380415 0.700000
v -0.815607 1.415990 0.606943
v -0.720163 1.380415 0.662001
v -0.720163 1.380415 0.700000
v -0.708049 1.424536 0.606943
v -1.130923 0.986323 0.606943
v -1.205144 0.986323 0.606943
v -1.205144 0.986323 0.700000
v -1.130923 0.986323 0.700000
v -1.205144 0.670865 0.606943
v -1.130923 0.670865 0.606943
v -1.205144 0.670865 0.700000
v -1.130923 0.670865 0.700000
v -2.000000 0.631548 -0.599892
v -2.000000 1.695873 -0.700000
v -2.000000 0.316091 -0.700000
v -2.000000 0.631548 -0.700000
v -2.000000 1.025640 -0.700000
v -2.000000 1.341097 -0.700000
v -2.000000 0.986323 -0.700000
v -2.000000 0.670865 -0.700000
v -2.000000 1.380415 -0.700000
v -2.000000 0.316091 -0.599892
v -2.000000 0.986323 -0.599892
v -2.000000 1.695873 -0.599892
v -2.000000 1.341097 -0.599892
v -2.000000 1.025640 -0.599892
v -2.000000 1.380415 -0.599892
v -2.000000 0.670865 -0.599892
v -0.955808 1.380415 -0.700000
v -0.955808 1.695873 -0.700000
v -0.955808 1.695873 -0.599892
v -0.955808 1.380415 -0.599892
v -0.825374 1.380415 -0.680021
v -0.825374 1.380415 -0.599892
v -0.815607 1.415990 -0.700000
v -0.720163 1.380415 -0.669356
v -0.720163 1.380415 -0.599892
v -0.708049 1.424536 -0.700000
v -1.130923 0.986323 -0.700000
v -1.205144 0.986323 -0.700000
v -1.205144 0.986323 -0.599892
v -1.130923 0.986323 -0.599892
v -1.205144 0.670865 -0.700000
v -1.130923 0.670865 -0.700000
v -1.205144 0.670865 -0.599892
v -1.130923 0.670865 -0.599892
v -2.000000 1.655985 -0.000000
v -2.000000 0.000000 -0.000000
v -0.662142 1.490679 0.700000
v -0.662142 0.000000 -0.683318
v -0.662142 1.695872 -0.599892
v -0.662142 0.986323 -0.700000
v -0.662142 1.380415 -0.599892
v -0.662142 1.341097 -0.599892
v -0.662142 1.695872 0.700000
v -0.662142 0.986323 0.606943
v -0.662142 1.684741 -0.599892
v -0.662142 1.380415 0.700000
v -0.662142 1.341097 0.700000
v -0.662142 0.316090 -0.599892
v -0.662142 1.684742 0.700000
v -0.662142 0.000000 0.683318
v -0.662142 0.631548 -0.599892
v -0.662142 1.341097 -0.700000
v -0.662142 0.316090 0.700000
v -0.662142 0.000000 -0.000000
v -0.662142 0.670865 -0.599892
v -0.662142 0.631548 0.700000
v -0.662142 1.341097 0.606943
v -0.662142 0.670865 0.700000
v -0.662142 1.695872 -0.700000
v -0.662142 1.503623 -0.700000
v -0.662142 1.695872 0.606943
v -0.662142 0.670865 -0.700000
v -0.662142 1.677322 -0.700000
v -0.662142 1.503624 0.606943
v -0.662142 0.670865 0.606943
v -0.662142 0.316090 -0.700000
v -0.662142 1.655985 -0.683318
v -0.662142 1.677322 0.606943
v -0.662142 1.025640 -0.700000
v -0.662142 0.986323 -0.599892
v -0.662142 0.316090 0.606943
v -0.662142 1.655985 -0.000000
v -0.662142 1.025640 0.606943
v -0.662142 0.986323 0.700000
v -0.662142 1.380415 -0.670208
v -0.662142 0.631548 -0.700000
v -0.662142 1.655985 0.683318
v -0.662142 1.380415 0.661149
v -0.662142 1.423994 -0.700000
v -0.662142 1.025640 -0.599892
v -0.662142 0.631548 0.606943
v -0.662142 1.490679 -0.599892
v -0.662142 1.423994 0.606943
v -0.662142 1.025640 0.700000
vt 0.096838 0.966599
vt 0.096838 0.966426
vt 0.096879 0.966426
vt 0.096879 0.966599
vt 0.097308 0.965709
vt 0.097325 0.965709
vt 0.097325 0.965844
vt 0.097308 0.965844
vt 0.097308 0.966467
vt 0.097308 0.966640
vt 0.097267 0.966640
vt 0.097267 0.966467
vt 0.097048 0.966498
vt 0.097065 0.966498
vt 0.097065 0.966671
vt 0.097048 0.966671
vt 0.097283 0.965885
vt 0.097265 0.965885
vt 0.097265 0.965844
vt 0.097283 0.965844
vt 0.096919 0.966599
vt 0.096879 0.966599
vt 0.096879 0.966426
vt 0.096919 0.966426
vt 0.097030 0.966671
vt 0.097013 0.966671
vt 0.097013 0.966498
vt 0.097030 0.966498
vt 0.096580 0.966508
vt 0.096580 0.966373
vt 0.096621 0.966373
vt 0.096621 0.966508
vt 0.097266 0.966183
vt 0.097283 0.966183
vt 0.097283 0.966224
vt 0.097266 0.966224
vt 0.097266 0.966142
vt 0.097266 0.966245
vt 0.097248 0.966245
vt 0.097248 0.966142
vt 0.097289 0.965844
vt 0.097248 0.965844
vt 0.097248 0.965671
vt 0.097289 0.965671
vt 0.097265 0.965885
vt 0.097283 0.965885
vt 0.097283 0.965925
vt 0.097265 0.965925
vt 0.097125 0.966601
vt 0.097125 0.966498
vt 0.097143 0.966498
vt 0.097143 0.966601
vt 0.097030 0.966498
vt 0.097048 0.966498
vt 0.097048 0.966633
vt 0.097030 0.966633
vt 0.097265 0.965844
vt 0.097265 0.965904
vt 0.097248 0.965904
vt 0.097248 0.965844
vt 0.097266 0.966142
vt 0.097283 0.966142
vt 0.097283 0.966183
vt 0.097147 0.966245
vt 0.097106 0.966245
vt 0.097106 0.966142
vt 0.097147 0.966142
vt 0.096580 0.966343
vt 0.096595 0.966335
vt 0.096620 0.966335
vt 0.096580 0.966357
vt 0.096621 0.966335
vt 0.154004 0.959409
vt 0.154004 0.959391
vt 0.154013 0.959392
vt 0.096556 0.966508
vt 0.096515 0.966508
vt 0.096515 0.966373
vt 0.096556 0.966373
vt 0.097316 0.965692
vt 0.097325 0.965692
vt 0.096551 0.966355
vt 0.096517 0.966335
vt 0.096540 0.966335
vt 0.096550 0.966341
vt 0.097318 0.965678
vt 0.097325 0.965678
vt 0.154004 0.959377
vt 0.154015 0.959379
vt 0.096954 0.966601
vt 0.096954 0.966498
vt 0.096995 0.966498
vt 0.096995 0.966601
vt 0.097065 0.966498
vt 0.097106 0.966498
vt 0.097106 0.966558
vt 0.097065 0.966558
vt 0.097207 0.965904
vt 0.097207 0.965844
vt 0.097248 0.965844
vt 0.097248 0.965904
vt 0.096325 0.966585
vt 0.096343 0.966585
vt 0.096343 0.966626
vt 0.096325 0.966626
vt 0.096360 0.966626
vt 0.096343 0.966626
vt 0.096343 0.966585
vt 0.096360 0.966585
vt 0.097226 0.966640
vt 0.097226 0.966467
vt 0.097267 0.966467
vt 0.097267 0.966640
vt 0.096562 0.966344
vt 0.096580 0.966344
vt 0.096580 0.966479
vt 0.096562 0.966479
vt 0.097226 0.966467
vt 0.097226 0.966640
vt 0.097185 0.966640
vt 0.097185 0.966467
vt 0.097299 0.965928
vt 0.097318 0.965928
vt 0.097318 0.966101
vt 0.097299 0.966101
vt 0.096534 0.966609
vt 0.096515 0.966609
vt 0.096515 0.966569
vt 0.096534 0.966569
vt 0.097185 0.966640
vt 0.097144 0.966640
vt 0.097144 0.966467
vt 0.097185 0.966467
vt 0.096580 0.966652
vt 0.096561 0.966652
vt 0.096561 0.966479
vt 0.096580 0.966479
vt 0.096838 0.966426
vt 0.096838 0.966291
vt 0.096879 0.966291
vt 0.096879 0.966426
vt 0.096580 0.966569
vt 0.096599 0.966569
vt 0.096599 0.966610
vt 0.096580 0.966610
vt 0.097125 0.966498
vt 0.097125 0.966601
vt 0.097106 0.966601
vt 0.097106 0.966498
vt 0.097248 0.965844
vt 0.097207 0.965844
vt 0.097207 0.965671
vt 0.097248 0.965671
vt 0.096621 0.966569
vt 0.096640 0.966569
vt 0.096640 0.966610
vt 0.096621 0.966610
vt 0.097248 0.966142
vt 0.097248 0.966245
vt 0.097229 0.966245
vt 0.097229 0.966142
vt 0.097289 0.965671
vt 0.097307 0.965671
vt 0.097307 0.965806
vt 0.097289 0.965806
vt 0.096802 0.966313
vt 0.096802 0.966253
vt 0.096821 0.966253
vt 0.096821 0.966313
vt 0.096599 0.966610
vt 0.096599 0.966569
vt 0.096618 0.966569
vt 0.096618 0.966610
vt 0.097147 0.966142
vt 0.097147 0.966245
vt 0.096838 0.966260
vt 0.096852 0.966253
vt 0.096877 0.966253
vt 0.096838 0.966274
vt 0.096879 0.966253
vt 0.153616 0.959991
vt 0.153611 0.959973
vt 0.153616 0.959974
vt 0.096919 0.966426
vt 0.096879 0.966426
vt 0.096879 0.966291
vt 0.096919 0.966291
vt 0.096565 0.966327
vt 0.096580 0.966327
vt 0.096915 0.966273
vt 0.096881 0.966253
vt 0.096904 0.966253
vt 0.096914 0.966259
vt 0.096567 0.966314
vt 0.096580 0.966314
vt 0.153262 0.960028
vt 0.153258 0.960027
vt 0.153258 0.960013
vt 0.153264 0.960014
vt 0.097188 0.966245
vt 0.097188 0.966142
vt 0.097229 0.966142
vt 0.097229 0.966245
vt 0.096621 0.966569
vt 0.096580 0.966569
vt 0.096580 0.966508
vt 0.096621 0.966508
vt 0.096515 0.966569
vt 0.096515 0.966508
vt 0.096556 0.966508
vt 0.096556 0.966569
vt 0.097083 0.966558
vt 0.097102 0.966558
vt 0.097102 0.966599
vt 0.097083 0.966599
vt 0.096534 0.966569
vt 0.096553 0.966569
vt 0.096553 0.966609
vt 0.096534 0.966609
vt 0.154004 0.959371
vt 0.154014 0.959371
vt 0.096515 0.966335
vt 0.096640 0.966508
vt 0.096621 0.966508
vt 0.096621 0.966335
vt 0.096640 0.966335
vt 0.097308 0.966467
vt 0.097325 0.966467
vt 0.097325 0.966640
vt 0.097308 0.966640
vt 0.096914 0.966253
vt 0.097299 0.966101
vt 0.097280 0.966101
vt 0.097280 0.965928
vt 0.097299 0.965928
vt 0.096550 0.966335
vt 0.096995 0.966498
vt 0.097013 0.966498
vt 0.097013 0.966671
vt 0.096995 0.966671
vt 0.097307 0.965844
vt 0.097289 0.965844
vt 0.097048 0.966671
vt 0.097030 0.966671
vt 0.096640 0.966569
vt 0.096621 0.966569
vt 0.096621 0.966508
vt 0.096640 0.966508
vt 0.096567 0.966306
vt 0.096580 0.966306
vt 0.097065 0.966619
vt 0.097065 0.966558
vt 0.097083 0.966558
vt 0.097318 0.965671
vt 0.097325 0.965671
vt 0.096838 0.966253
vt 0.096580 0.966335
vt 0.153258 0.960007
vt 0.153264 0.960007
vt 0.096879 0.966253
vt 0.029423 0.967846
vt 0.029271 0.967846
vt 0.029271 0.967836
vt 0.029423 0.967836
vt 0.029334 0.967472
vt 0.029486 0.967472
vt 0.029486 0.967482
vt 0.029334 0.967482
vt 0.029081 0.967894
vt 0.028929 0.967894
vt 0.028929 0.967586
vt 0.029081 0.967587
vt 0.028627 0.967578
vt 0.028636 0.967574
vt 0.028854 0.967574
vt 0.028854 0.967578
vt 0.028605 0.967894
vt 0.028605 0.967586
vt 0.028757 0.967586
vt 0.028757 0.967894
vt 0.029423 0.967855
vt 0.029271 0.967855
vt 0.028929 0.967578
vt 0.029081 0.967578
vt 0.029081 0.967903
vt 0.028929 0.967903
vt 0.029334 0.967463
vt 0.029486 0.967463
vt 0.028605 0.967578
vt 0.028757 0.967578
vt 0.029271 0.967828
vt 0.029423 0.967828
vt 0.029486 0.967491
vt 0.029334 0.967491
vt 0.028757 0.967903
vt 0.028605 0.967903
vt 0.029211 0.968160
vt 0.029202 0.968157
vt 0.029199 0.968148
vt 0.029199 0.967840
vt 0.029202 0.967831
vt 0.029211 0.967828
vt 0.029221 0.967828
vt 0.029230 0.967831
vt 0.029233 0.967840
vt 0.029233 0.968148
vt 0.029230 0.968157
vt 0.029221 0.968160
vt 0.028851 0.967730
vt 0.028851 0.967881
vt 0.028841 0.967881
vt 0.028841 0.967730
vt 0.028851 0.967578
vt 0.028851 0.967730
vt 0.028841 0.967730
vt 0.028841 0.967578
vt 0.029233 0.967819
vt 0.029081 0.967819
vt 0.029081 0.967511
vt 0.029233 0.967511
vt 0.028917 0.967578
vt 0.028926 0.967582
vt 0.028929 0.967590
vt 0.028929 0.967898
vt 0.028926 0.967907
vt 0.028917 0.967910
vt 0.028907 0.967910
vt 0.028898 0.967907
vt 0.028894 0.967898
vt 0.028894 0.967590
vt 0.028898 0.967582
vt 0.028907 0.967578
vt 0.029233 0.967819
vt 0.029233 0.967511
vt 0.029386 0.967511
vt 0.029386 0.967819
vt 0.028860 0.967730
vt 0.028860 0.967881
vt 0.029081 0.967503
vt 0.029233 0.967503
vt 0.029233 0.967828
vt 0.029081 0.967828
vt 0.028860 0.967578
vt 0.028860 0.967730
vt 0.029233 0.967503
vt 0.029386 0.967503
vt 0.028832 0.967881
vt 0.028832 0.967730
vt 0.028832 0.967730
vt 0.028832 0.967578
vt 0.029386 0.967828
vt 0.029233 0.967828
vt 0.028882 0.967578
vt 0.028891 0.967582
vt 0.028894 0.967590
vt 0.028894 0.967898
vt 0.028891 0.967907
vt 0.028882 0.967910
vt 0.028872 0.967910
vt 0.028863 0.967907
vt 0.028860 0.967898
vt 0.028860 0.967590
vt 0.028863 0.967582
vt 0.028872 0.967578
vt 0.028627 0.967246
vt 0.028636 0.967249
vt 0.028639 0.967258
vt 0.028639 0.967566
vt 0.028617 0.967578
vt 0.028608 0.967574
vt 0.028605 0.967566
vt 0.028605 0.967258
vt 0.028608 0.967249
vt 0.028617 0.967246
vt 0.029296 0.967491
vt 0.029296 0.967482
vt 0.029233 0.967846
vt 0.029271 0.968073
vt 0.029233 0.968073
vt 0.028794 0.967586
vt 0.028794 0.967894
vt 0.029233 0.967836
vt 0.029233 0.967828
vt 0.028794 0.967903
vt 0.028863 0.967249
vt 0.028854 0.967246
vt 0.029081 0.967246
vt 0.029081 0.967249
vt 0.029296 0.967472
vt 0.029296 0.967246
vt 0.029334 0.967246
vt 0.029081 0.967566
vt 0.029081 0.967574
vt 0.028794 0.967578
vt 0.028832 0.967582
vt 0.028832 0.967590
vt 0.028794 0.967590
vt 0.028794 0.967582
vt 0.028832 0.967906
vt 0.028832 0.967910
vt 0.028794 0.967910
vt 0.028794 0.967906
vt 0.028832 0.967898
vt 0.028794 0.967898
vt 0.028832 0.967578
vt 0.028794 0.967578
vt 0.028866 0.967258
vt 0.029081 0.967258
vt 0.028854 0.967246
vt 0.028854 0.967249
vt 0.028854 0.967258
vt 0.028854 0.967566
vt 0.028854 0.967578
vt 0.029081 0.967578
vt 0.029296 0.967374
vt 0.029296 0.967503
vt 0.029081 0.967503
vt 0.029081 0.967374
vt 0.029296 0.967246
vt 0.029081 0.967246
vt 0.028929 0.968160
vt 0.028929 0.968031
vt 0.029103 0.968031
vt 0.029103 0.968160
vt 0.028929 0.967903
vt 0.029103 0.967903
vt 0.028778 0.967903
vt 0.028778 0.968031
vt 0.028605 0.968031
vt 0.028605 0.967903
vt 0.029423 0.968042
vt 0.029423 0.967828
vt 0.029597 0.967828
vt 0.029597 0.968042
vt 0.029386 0.967717
vt 0.029386 0.967503
vt 0.029559 0.967503
vt 0.029559 0.967717
vt 0.028778 0.968160
vt 0.028605 0.968160
vn -0.0000 0.0000 1.0000
vn 0.0000 -1.0000 0.0000
vn 0.0000 1.0000 -0.0000
vn -1.0000 0.0000 -0.0000
vn 0.0000 0.0000 -1.0000
vn 0.1993 -0.7856 -0.5857
vn 0.0624 -0.7855 -0.6157
vn 1.0000 -0.0000 0.0000
vn 0.1300 -0.5124 -0.8488
vn 0.0638 -0.5475 -0.8344
vn -0.0092 -0.7793 -0.6265
vn -0.0097 -0.5665 -0.8240
vn 0.0000 -0.1382 0.9904
vn 0.0000 -0.0689 0.9976
vn 0.0000 0.1382 0.9904
vn -0.0000 -0.0689 -0.9976
vn -0.0000 -0.1382 -0.9904
vn -0.0000 0.1382 -0.9904
vn -0.0000 -0.9634 -0.2679
vn 0.0000 -0.9634 0.2679
vn -0.0000 0.9634 -0.2679
vn 0.0000 0.9634 0.2679
vn 0.0000 -0.6074 0.7944
vn -0.0000 -0.6074 -0.7944
vn 0.0000 0.8564 0.5163
vn 0.0000 0.6074 0.7944
vn 0.0000 0.2737 0.9618
vn -0.0000 0.2737 -0.9618
vn -0.0000 0.6074 -0.7944
vn -0.0000 0.8564 -0.5163
usemtl Atlas
s off
f 86/1/1 163/2/1 166/3/1 77/4/1
f 93/5/2 96/6/2 91/7/2 85/8/2
f 90/9/1 194/10/1 157/11/1 89/12/1
f 80/13/3 77/14/3 166/15/3 191/16/3
f 85/17/4 91/18/4 88/19/4 78/20/4
f 81/21/5 82/22/5 167/23/5 183/24/5
f 82/25/3 89/26/3 157/27/3 167/28/3
f 91/29/1 96/30/1 95/31/1 88/32/1
f 81/33/4 90/34/4 89/35/4 82/36/4
f 104/37/3 83/38/3 87/39/3 105/40/3
f 79/41/5 80/42/5 191/43/5 181/44/5
f 79/45/4 86/46/4 77/47/4 80/48/4
f 84/49/2 107/50/2 109/51/2 92/52/2
f 78/53/3 88/54/3 95/55/3 94/56/3
f 108/57/2 175/58/2 168/59/2 110/60/2
f 83/38/4 84/61/4 92/62/4 87/63/4
f 87/64/1 92/65/1 109/66/1 105/67/1
f 101/68/1 147/69/1 159/70/1 98/71/1
f 95/31/1 96/30/1 98/71/1 159/70/1 153/72/1
f 93/73/6 99/74/6 97/75/6
f 85/76/5 78/77/5 94/78/5 93/79/5
f 97/80/2 98/81/2 96/6/2 93/5/2
f 99/82/5 178/83/5 174/84/5 102/85/5
f 98/81/2 97/80/2 100/86/2 101/87/2
f 97/75/7 99/74/7 102/88/7 100/89/7
f 83/90/5 104/91/5 107/92/5 84/93/5
f 106/94/1 110/95/1 168/96/1 184/97/1
f 103/98/5 154/99/5 175/100/5 108/101/5
f 106/102/4 103/103/4 108/104/4 110/105/4
f 104/106/8 105/107/8 109/108/8 107/109/8
f 120/110/1 158/111/1 161/112/1 111/113/1
f 127/114/2 130/115/2 125/116/2 119/117/2
f 124/118/1 190/119/1 152/120/1 123/121/1
f 114/122/3 111/123/3 161/124/3 186/125/3
f 119/126/4 125/127/4 122/128/4 112/129/4
f 115/130/5 116/131/5 162/132/5 179/133/5
f 116/134/3 123/135/3 152/136/3 162/137/3
f 125/138/1 130/139/1 129/140/1 122/141/1
f 115/142/4 124/143/4 123/144/4 116/145/4
f 138/146/3 117/147/3 121/148/3 139/149/3
f 113/150/5 114/151/5 186/152/5 176/153/5
f 113/154/4 120/155/4 111/156/4 114/157/4
f 118/158/2 141/159/2 143/160/2 126/161/2
f 112/162/3 122/163/3 129/164/3 128/165/3
f 142/166/2 172/167/2 165/168/2 144/169/2
f 117/170/4 118/171/4 126/172/4 121/173/4
f 121/174/1 126/161/1 143/160/1 139/175/1
f 135/176/1 192/177/1 155/178/1 132/179/1
f 129/140/1 130/139/1 132/179/1 155/178/1 149/180/1
f 127/181/9 133/182/9 131/183/9
f 119/184/5 112/185/5 128/186/5 127/187/5
f 131/188/2 132/189/2 130/115/2 127/114/2
f 133/190/5 173/191/5 170/192/5 136/193/5
f 132/189/2 131/188/2 134/194/2 135/195/2
f 131/196/10 133/197/10 136/198/10 134/199/10
f 117/200/5 138/201/5 141/202/5 118/203/5
f 140/204/1 144/205/1 165/206/1 180/207/1
f 137/208/5 150/209/5 172/210/5 142/211/5
f 140/212/4 137/213/4 142/214/4 144/215/4
f 138/216/8 139/217/8 143/218/8 141/219/8
f 193/220/11 188/221/11 100/89/11 102/88/11
f 171/222/5 178/83/5 99/82/5 93/79/5 94/78/5
f 176/223/2 158/224/2 120/225/2 113/226/2
f 181/227/2 163/228/2 86/229/2 79/230/2
f 170/192/5 189/231/5 136/193/5
f 179/232/2 190/233/2 124/234/2 115/235/2
f 174/84/5 193/236/5 102/85/5
f 183/237/2 194/238/2 90/239/2 81/240/2
f 149/241/3 169/242/3 128/165/3 129/164/3
f 153/243/3 171/244/3 94/56/3 95/55/3
f 180/245/3 150/246/3 137/247/3 140/248/3
f 185/249/2 151/250/2 135/195/2 134/194/2
f 184/97/3 154/251/3 103/252/3 106/253/3
f 188/254/2 156/255/2 101/87/2 100/86/2
f 151/256/1 192/177/1 135/176/1
f 156/257/1 147/69/1 101/68/1
f 189/258/12 185/259/12 134/199/12 136/198/12
f 169/260/5 173/191/5 133/190/5 127/187/5 128/186/5
s 1
f 2/261/13 7/262/14 20/263/15 13/264/15
f 11/265/16 4/266/17 17/267/18 22/268/18
f 5/269/19 10/270/19 8/271/20 1/272/20
f 54/273/8 52/274/8 70/275/8 72/276/8
f 16/277/21 14/278/22 19/279/22 23/280/21
f 7/262/14 2/261/13 3/281/23 9/282/23
f 9/283/23 3/284/23 1/272/20 8/271/20
f 10/270/19 5/269/19 6/285/24 12/286/24
f 12/287/24 6/288/24 4/266/17 11/265/16
f 19/279/22 14/278/22 15/289/25 21/290/26
f 21/291/26 15/292/27 13/264/15 20/263/15
f 22/268/18 17/267/18 18/293/28 24/294/29
f 24/295/29 18/296/30 16/277/21 23/280/21
f 4/297/4 6/298/4 5/299/4 1/300/4 3/301/4 2/302/4 13/303/4 15/304/4 14/305/4 16/306/4 18/307/4 17/308/4
f 26/309/13 31/310/13 44/311/15 37/312/15
f 35/313/17 28/314/17 41/315/18 46/316/18
f 29/317/19 34/318/19 32/319/20 25/320/20
f 31/321/8 33/322/8 32/323/8 34/324/8 36/325/8 35/326/8 46/327/8 48/328/8 47/329/8 43/330/8 45/331/8 44/332/8
f 40/333/21 38/334/22 43/335/22 47/336/21
f 31/310/13 26/309/13 27/337/23 33/338/23
f 33/339/23 27/340/23 25/320/20 32/319/20
f 34/318/19 29/317/19 30/341/24 36/342/24
f 36/343/24 30/344/24 28/314/17 35/313/17
f 43/335/22 38/334/22 39/345/26 45/346/26
f 45/347/26 39/348/26 37/312/15 44/311/15
f 46/316/18 41/315/18 42/349/29 48/350/29
f 48/351/29 42/352/29 40/333/21 47/336/21
f 28/353/4 30/354/4 29/355/4 25/356/4 27/357/4 26/358/4 37/359/4 39/360/4 38/361/4 40/362/4 42/363/4 41/364/4
f 50/365/8 49/366/8 51/367/8 53/368/8 52/274/8 54/273/8 59/369/8 58/370/8 60/371/8 56/372/8 55/373/8 57/374/8
f 22/268/18 24/294/29 58/375/29 59/376/18
f 50/377/1 7/262/14 62/378/1 68/379/1
f 23/280/21 19/279/22 56/380/22 60/381/21
f 21/291/26 20/263/15 57/382/15 55/383/26
f 24/295/29 23/280/21 60/381/21 58/384/29
f 12/385/4 11/386/4 66/387/4 64/388/4
f 20/263/15 7/262/14 50/377/1 57/382/15
f 11/265/16 22/268/18 59/376/18 54/389/5
f 11/265/16 54/389/5 72/390/5 66/391/5
f 9/283/4 8/271/4 63/392/4 61/393/4
f 19/279/22 21/290/26 55/394/26 56/380/22
f 61/395/2 63/396/2 69/397/2 67/398/2
f 64/399/2 66/400/2 72/401/2 70/402/2
f 63/396/2 65/403/2 71/404/2 69/397/2
f 62/405/2 61/395/2 67/398/2 68/406/2
f 65/403/2 64/399/2 70/402/2 71/404/2
f 8/271/4 10/407/4 65/408/4 63/392/4
f 49/366/8 50/365/8 68/409/8 67/410/8
f 51/367/8 49/366/8 67/410/8 69/411/8
f 53/368/8 51/367/8 69/411/8 71/412/8
f 7/413/4 9/283/4 61/393/4 62/414/4
f 10/407/4 12/385/4 64/388/4 65/408/4
f 52/274/8 53/368/8 71/412/8 70/275/8
f 145/415/4 74/416/4 73/417/4 146/418/4
f 75/419/4 145/415/4 146/418/4 76/420/4
f 187/421/3 182/422/3 145/423/3 75/424/3
f 182/422/3 177/425/3 74/426/3 145/423/3
f 148/427/2 164/428/2 146/429/2 73/430/2
f 177/431/5 148/432/5 73/433/5 74/434/5
f 160/435/1 187/436/1 75/437/1 76/438/1
f 164/428/2 160/439/2 76/440/2 146/429/2
