# Blender v3.0.0 OBJ File: 'Environment_Stool.blend'
# www.blender.org
mtllib Environment_Stool.mtl
o Environment_Stool_Cylinder.017
v -0.352817 0.000000 -0.232021
v -0.352817 0.697436 -0.232021
v -0.232021 0.000000 -0.352817
v -0.232021 0.697436 -0.352817
v -0.232021 0.000000 -0.111225
v -0.232021 0.697436 -0.111225
v -0.111224 0.000000 -0.232021
v -0.111224 0.697436 -0.232021
v 0.232021 0.000000 -0.352817
v 0.232021 0.697436 -0.352817
v 0.352818 0.000000 -0.232021
v 0.352818 0.697436 -0.232021
v 0.111225 0.000000 -0.232021
v 0.111225 0.697436 -0.232021
v 0.232021 0.000000 -0.111224
v 0.232021 0.697436 -0.111224
v -0.232021 0.000000 0.352817
v -0.232021 0.697436 0.352817
v -0.352818 0.000000 0.232021
v -0.352818 0.697436 0.232021
v -0.111225 0.000000 0.232021
v -0.111225 0.697436 0.232021
v -0.232021 0.000000 0.111224
v -0.232021 0.697436 0.111224
v 0.352817 0.000000 0.232021
v 0.352817 0.697436 0.232021
v 0.232021 0.000000 0.352817
v 0.232021 0.697436 0.352817
v 0.232021 0.000000 0.111225
v 0.232021 0.697436 0.111225
v 0.111224 0.000000 0.232021
v 0.111224 0.697436 0.232021
v 0.291877 0.447877 0.258227
v 0.291878 0.447877 -0.232478
v 0.172164 0.447877 0.258226
v 0.172164 0.447877 -0.232478
v 0.291877 0.335261 0.258227
v 0.291878 0.335260 -0.232478
v 0.172164 0.335260 0.258226
v 0.172164 0.335260 -0.232478
v -0.291878 0.447877 -0.258226
v -0.291878 0.447877 0.232478
v -0.172164 0.447877 -0.258226
v -0.172164 0.447877 0.232478
v -0.291878 0.335261 -0.258226
v -0.291878 0.335260 0.232478
v -0.172164 0.335260 -0.258226
v -0.172164 0.335260 0.232478
v -0.258226 0.447877 0.291878
v 0.232478 0.447877 0.291878
v -0.258226 0.447877 0.172164
v 0.232478 0.447877 0.172164
v -0.258226 0.335261 0.291878
v 0.232478 0.335260 0.291878
v -0.258226 0.335260 0.172164
v 0.232478 0.335260 0.172164
v -0.000000 0.639649 -0.472882
v -0.000000 0.684250 -0.570966
v -0.000000 0.876456 -0.472882
v -0.000000 0.831855 -0.570966
v 0.146129 0.639649 -0.449737
v 0.176438 0.684250 -0.543021
v 0.146129 0.876456 -0.449737
v 0.176438 0.831855 -0.543021
v 0.277953 0.639649 -0.382569
v 0.335605 0.684250 -0.461921
v 0.277953 0.876456 -0.382569
v 0.335605 0.831855 -0.461921
v 0.382569 0.639649 -0.277953
v 0.461921 0.684250 -0.335606
v 0.382569 0.876456 -0.277953
v 0.461921 0.831855 -0.335606
v 0.449737 0.639649 -0.146129
v 0.543021 0.684250 -0.176438
v 0.449737 0.876456 -0.146129
v 0.543021 0.831855 -0.176438
v 0.472882 0.639649 -0.000000
v 0.570966 0.684250 -0.000000
v 0.472882 0.876456 -0.000000
v 0.570966 0.831855 -0.000000
v 0.449737 0.639649 0.146129
v 0.543021 0.684250 0.176438
v 0.449737 0.876456 0.146129
v 0.543021 0.831855 0.176438
v 0.382569 0.639649 0.277953
v 0.461921 0.684250 0.335605
v 0.382569 0.876456 0.277953
v 0.461921 0.831855 0.335605
v 0.277953 0.639649 0.382569
v 0.335605 0.684250 0.461921
v 0.277953 0.876456 0.382569
v 0.335605 0.831855 0.461921
v 0.146128 0.639649 0.449737
v 0.176438 0.684250 0.543021
v 0.146128 0.876456 0.449737
v 0.176438 0.831855 0.543021
v -0.000000 0.639649 0.472882
v -0.000000 0.684250 0.570966
v -0.000000 0.876456 0.472882
v -0.000000 0.831855 0.570966
v -0.146129 0.639649 0.449737
v -0.176438 0.684250 0.543021
v -0.146129 0.876456 0.449737
v -0.176438 0.831855 0.543021
v -0.277953 0.639649 0.382569
v -0.335606 0.684250 0.461921
v -0.277953 0.876456 0.382569
v -0.335606 0.831855 0.461921
v -0.382570 0.639649 0.277953
v -0.461922 0.684250 0.335605
v -0.382570 0.876456 0.277953
v -0.461922 0.831855 0.335605
v -0.449738 0.639649 0.146128
v -0.543021 0.684250 0.176438
v -0.449738 0.876456 0.146128
v -0.543021 0.831855 0.176438
v -0.472882 0.639649 -0.000001
v -0.570966 0.684250 -0.000001
v -0.472882 0.876456 -0.000001
v -0.570966 0.831855 -0.000001
v -0.449737 0.639649 -0.146129
v -0.543021 0.684250 -0.176439
v -0.449737 0.876456 -0.146129
v -0.543021 0.831855 -0.176439
v -0.382569 0.639649 -0.277953
v -0.461921 0.684250 -0.335606
v -0.382569 0.876456 -0.277953
v -0.461921 0.831855 -0.335606
v -0.277952 0.639649 -0.382570
v -0.335605 0.684250 -0.461922
v -0.277952 0.876456 -0.382570
v -0.335605 0.831855 -0.461922
v -0.146128 0.639649 -0.449738
v -0.176437 0.684250 -0.543021
v -0.146128 0.876456 -0.449738
v -0.176437 0.831855 -0.543021
v -0.232478 0.335260 -0.172164
v 0.258226 0.335260 -0.172164
v -0.232478 0.335260 -0.291878
v 0.258226 0.335261 -0.291878
v -0.232478 0.447877 -0.172164
v 0.258226 0.447877 -0.172164
v -0.232478 0.447877 -0.291878
v 0.258226 0.447877 -0.291877
v -0.352817 0.000000 -0.232021
v -0.352817 0.697436 -0.232021
v -0.232021 0.000000 -0.352817
v -0.232021 0.697436 -0.352817
v -0.232021 0.000000 -0.111225
v -0.232021 0.697436 -0.111225
v -0.111224 0.000000 -0.232021
v -0.111224 0.697436 -0.232021
v 0.232021 0.000000 -0.352817
v 0.232021 0.697436 -0.352817
v 0.352818 0.000000 -0.232021
v 0.352818 0.697436 -0.232021
v 0.111225 0.000000 -0.232021
v 0.111225 0.697436 -0.232021
v 0.232021 0.000000 -0.111224
v 0.232021 0.697436 -0.111224
v -0.232021 0.000000 0.352817
v -0.232021 0.697436 0.352817
v -0.352818 0.000000 0.232021
v -0.352818 0.697436 0.232021
v -0.111225 0.000000 0.232021
v -0.111225 0.697436 0.232021
v -0.232021 0.000000 0.111224
v -0.232021 0.697436 0.111224
v 0.352817 0.000000 0.232021
v 0.352817 0.697436 0.232021
v 0.232021 0.000000 0.352817
v 0.232021 0.697436 0.352817
v 0.232021 0.000000 0.111225
v 0.232021 0.697436 0.111225
v 0.111224 0.000000 0.232021
v 0.111224 0.697436 0.232021
v 0.291877 0.447877 0.258227
v 0.291878 0.447877 -0.232478
v 0.172164 0.447877 0.258226
v 0.172164 0.447877 -0.232478
v 0.291877 0.335261 0.258227
v 0.291878 0.335260 -0.232478
v 0.172164 0.335260 0.258226
v 0.172164 0.335260 -0.232478
v -0.291878 0.447877 -0.258226
v -0.291878 0.447877 0.232478
v -0.172164 0.447877 -0.258226
v -0.172164 0.447877 0.232478
v -0.291878 0.335261 -0.258226
v -0.291878 0.335260 0.232478
v -0.172164 0.335260 -0.258226
v -0.172164 0.335260 0.232478
v -0.258226 0.447877 0.291878
v 0.232478 0.447877 0.291878
v -0.258226 0.447877 0.172164
v 0.232478 0.447877 0.172164
v -0.258226 0.335261 0.291878
v 0.232478 0.335260 0.291878
v -0.258226 0.335260 0.172164
v 0.232478 0.335260 0.172164
vt 0.031875 0.969659
vt 0.031875 0.969683
vt 0.031871 0.969683
vt 0.031871 0.969659
vt 0.031857 0.969707
vt 0.031857 0.969683
vt 0.031853 0.969707
vt 0.031853 0.969683
vt 0.031844 0.969731
vt 0.031844 0.969707
vt 0.031848 0.969707
vt 0.031848 0.969731
vt 0.031838 0.969748
vt 0.031844 0.969748
vt 0.031844 0.969754
vt 0.031838 0.969754
vt 0.031802 0.969754
vt 0.031802 0.969759
vt 0.031797 0.969759
vt 0.031797 0.969754
vt 0.031845 0.969659
vt 0.031845 0.969683
vt 0.031841 0.969683
vt 0.031841 0.969659
vt 0.031837 0.969683
vt 0.031837 0.969659
vt 0.031871 0.969659
vt 0.031871 0.969683
vt 0.031866 0.969683
vt 0.031866 0.969659
vt 0.031879 0.969683
vt 0.031879 0.969659
vt 0.031828 0.969759
vt 0.031822 0.969759
vt 0.031822 0.969754
vt 0.031828 0.969754
vt 0.031889 0.969717
vt 0.031870 0.969707
vt 0.031870 0.969731
vt 0.031866 0.969731
vt 0.031866 0.969707
vt 0.031879 0.969707
vt 0.031879 0.969683
vt 0.031849 0.969683
vt 0.031849 0.969659
vt 0.031845 0.969683
vt 0.031845 0.969659
vt 0.031883 0.969729
vt 0.031876 0.969754
vt 0.031870 0.969754
vt 0.031876 0.969748
vt 0.031833 0.969659
vt 0.031833 0.969683
vt 0.031829 0.969683
vt 0.031829 0.969659
vt 0.031857 0.969707
vt 0.031857 0.969731
vt 0.031853 0.969731
vt 0.031853 0.969707
vt 0.031874 0.969731
vt 0.031874 0.969707
vt 0.031837 0.969659
vt 0.031837 0.969683
vt 0.031888 0.969754
vt 0.031882 0.969754
vt 0.031882 0.969748
vt 0.031861 0.969754
vt 0.031855 0.969754
vt 0.031874 0.969748
vt 0.031874 0.969731
vt 0.031878 0.969731
vt 0.031878 0.969748
vt 0.031822 0.969737
vt 0.031822 0.969754
vt 0.031818 0.969754
vt 0.031818 0.969737
vt 0.031870 0.969748
vt 0.031870 0.969731
vt 0.031874 0.969731
vt 0.031874 0.969748
vt 0.031866 0.969748
vt 0.031866 0.969731
vt 0.031870 0.969731
vt 0.031870 0.969748
vt 0.031814 0.969754
vt 0.031814 0.969737
vt 0.031818 0.969737
vt 0.031818 0.969754
vt 0.031795 0.969737
vt 0.031795 0.969754
vt 0.031884 0.969676
vt 0.031884 0.969659
vt 0.031853 0.969748
vt 0.031853 0.969731
vt 0.031857 0.969731
vt 0.031857 0.969748
vt 0.031803 0.969754
vt 0.031803 0.969737
vt 0.031806 0.969737
vt 0.031806 0.969754
vt 0.031843 0.969730
vt 0.031839 0.969747
vt 0.031839 0.969730
vt 0.031891 0.969683
vt 0.031891 0.969700
vt 0.031810 0.969737
vt 0.031810 0.969754
vt 0.031806 0.969754
vt 0.031806 0.969737
vt 0.031886 0.969748
vt 0.031886 0.969731
vt 0.031890 0.969731
vt 0.031890 0.969748
vt 0.031861 0.969748
vt 0.031861 0.969731
vt 0.031799 0.969737
vt 0.031799 0.969754
vt 0.031874 0.969707
vt 0.031874 0.969731
vt 0.031870 0.969731
vt 0.031870 0.969707
vt 0.031857 0.969683
vt 0.031857 0.969659
vt 0.031853 0.969683
vt 0.031853 0.969659
vt 0.031848 0.969731
vt 0.031848 0.969707
vt 0.031844 0.969748
vt 0.031850 0.969748
vt 0.031850 0.969754
vt 0.031844 0.969754
vt 0.031797 0.969754
vt 0.031797 0.969759
vt 0.031791 0.969759
vt 0.031791 0.969754
vt 0.031845 0.969683
vt 0.031845 0.969707
vt 0.031841 0.969707
vt 0.031841 0.969683
vt 0.031837 0.969707
vt 0.031837 0.969683
vt 0.031871 0.969683
vt 0.031871 0.969707
vt 0.031866 0.969707
vt 0.031866 0.969683
vt 0.031875 0.969683
vt 0.031875 0.969659
vt 0.031822 0.969759
vt 0.031816 0.969759
vt 0.031816 0.969754
vt 0.031822 0.969754
vt 0.031882 0.969748
vt 0.031882 0.969754
vt 0.031876 0.969754
vt 0.031866 0.969707
vt 0.031866 0.969731
vt 0.031861 0.969731
vt 0.031861 0.969707
vt 0.031879 0.969731
vt 0.031879 0.969707
vt 0.031849 0.969707
vt 0.031849 0.969683
vt 0.031845 0.969707
vt 0.031845 0.969683
vt 0.031816 0.969754
vt 0.031816 0.969759
vt 0.031810 0.969759
vt 0.031810 0.969754
vt 0.031855 0.969754
vt 0.031850 0.969754
vt 0.031855 0.969748
vt 0.031833 0.969683
vt 0.031833 0.969707
vt 0.031829 0.969707
vt 0.031829 0.969683
vt 0.031861 0.969707
vt 0.031861 0.969731
vt 0.031857 0.969731
vt 0.031857 0.969707
vt 0.031874 0.969707
vt 0.031874 0.969683
vt 0.031837 0.969683
vt 0.031837 0.969707
vt 0.031835 0.969752
vt 0.031835 0.969758
vt 0.031829 0.969758
vt 0.031829 0.969752
vt 0.031867 0.969754
vt 0.031861 0.969754
vt 0.031834 0.969752
vt 0.031834 0.969735
vt 0.031838 0.969735
vt 0.031838 0.969752
vt 0.031825 0.969737
vt 0.031825 0.969754
vt 0.031822 0.969754
vt 0.031822 0.969737
vt 0.031829 0.969752
vt 0.031829 0.969735
vt 0.031833 0.969735
vt 0.031833 0.969752
vt 0.031883 0.969700
vt 0.031883 0.969683
vt 0.031887 0.969683
vt 0.031887 0.969700
vt 0.031857 0.969748
vt 0.031857 0.969731
vt 0.031861 0.969731
vt 0.031861 0.969748
vt 0.031810 0.969754
vt 0.031810 0.969737
vt 0.031814 0.969737
vt 0.031814 0.969754
vt 0.031878 0.969748
vt 0.031878 0.969731
vt 0.031883 0.969731
vt 0.031883 0.969748
vt 0.031848 0.969748
vt 0.031848 0.969731
vt 0.031852 0.969731
vt 0.031852 0.969748
vt 0.031799 0.969754
vt 0.031799 0.969737
vt 0.031803 0.969737
vt 0.031803 0.969754
vt 0.031848 0.969731
vt 0.031844 0.969748
vt 0.031844 0.969731
vt 0.031891 0.969700
vt 0.031891 0.969717
vt 0.031887 0.969717
vt 0.031887 0.969700
vt 0.589914 0.969725
vt 0.589909 0.969725
vt 0.589909 0.969719
vt 0.589914 0.969719
vt 0.589932 0.969659
vt 0.589937 0.969659
vt 0.589937 0.969664
vt 0.589932 0.969664
vt 0.589937 0.969670
vt 0.589932 0.969670
vt 0.589937 0.969676
vt 0.589932 0.969676
vt 0.589937 0.969682
vt 0.589932 0.969682
vt 0.589937 0.969687
vt 0.589932 0.969687
vt 0.589937 0.969691
vt 0.589932 0.969691
vt 0.589904 0.969712
vt 0.589899 0.969712
vt 0.589904 0.969718
vt 0.589899 0.969718
vt 0.589904 0.969725
vt 0.589899 0.969725
vt 0.589904 0.969730
vt 0.589899 0.969730
vt 0.589904 0.969735
vt 0.589899 0.969735
vt 0.589904 0.969730
vt 0.589909 0.969730
vt 0.589904 0.969724
vt 0.589909 0.969724
vt 0.589904 0.969718
vt 0.589909 0.969718
vt 0.589904 0.969712
vt 0.589909 0.969712
vt 0.589904 0.969707
vt 0.589909 0.969707
vt 0.589914 0.969713
vt 0.589909 0.969713
vt 0.589896 0.969676
vt 0.589896 0.969681
vt 0.589895 0.969686
vt 0.589892 0.969690
vt 0.589888 0.969693
vt 0.589883 0.969695
vt 0.589878 0.969695
vt 0.589873 0.969693
vt 0.589869 0.969690
vt 0.589866 0.969686
vt 0.589865 0.969681
vt 0.589865 0.969676
vt 0.589866 0.969671
vt 0.589869 0.969667
vt 0.589873 0.969664
vt 0.589878 0.969663
vt 0.589883 0.969663
vt 0.589888 0.969664
vt 0.589892 0.969667
vt 0.589895 0.969671
vt 0.589866 0.969710
vt 0.589865 0.969715
vt 0.589869 0.969706
vt 0.589873 0.969703
vt 0.589878 0.969701
vt 0.589883 0.969701
vt 0.589888 0.969703
vt 0.589892 0.969706
vt 0.589895 0.969710
vt 0.589896 0.969715
vt 0.589896 0.969720
vt 0.589895 0.969725
vt 0.589892 0.969729
vt 0.589888 0.969732
vt 0.589883 0.969733
vt 0.589878 0.969733
vt 0.589873 0.969732
vt 0.589869 0.969729
vt 0.589866 0.969725
vt 0.589865 0.969720
vn -0.7071 0.0000 -0.7071
vn 0.7071 0.0000 -0.7071
vn 0.7071 0.0000 0.7071
vn -0.7071 0.0000 0.7071
vn 0.0000 -1.0000 0.0000
vn 0.0000 1.0000 -0.0000
vn -1.0000 -0.0000 -0.0000
vn 1.0000 0.0000 0.0000
vn -0.0000 -0.0000 -1.0000
vn 0.0000 0.0000 1.0000
vn -0.3090 0.0000 -0.9511
vn 0.5878 0.0000 -0.8090
vn 0.8090 0.0000 -0.5878
vn 0.9511 0.0000 -0.3090
vn 0.9511 0.0000 0.3090
vn 0.8090 0.0000 0.5878
vn 0.5878 0.0000 0.8090
vn 0.3090 0.0000 0.9511
vn -0.3090 0.0000 0.9511
vn -0.5878 0.0000 0.8090
vn -0.8090 0.0000 0.5878
vn -0.9511 0.0000 0.3090
vn -0.9511 0.0000 -0.3090
vn -0.8090 0.0000 -0.5878
vn -0.5878 0.0000 -0.8090
vn 0.3090 0.0000 -0.9511
vn 0.0716 0.9728 -0.2205
vn 0.0000 0.9728 -0.2318
vn -0.0716 0.9728 -0.2205
vn -0.1363 0.9728 -0.1875
vn -0.1875 0.9728 -0.1363
vn -0.2205 0.9728 -0.0716
vn -0.2318 0.9728 -0.0000
vn -0.2205 0.9728 0.0716
vn -0.1875 0.9728 0.1363
vn -0.1363 0.9728 0.1875
vn -0.0716 0.9728 0.2205
vn -0.0000 0.9728 0.2318
vn 0.0716 0.9728 0.2205
vn 0.1363 0.9728 0.1875
vn 0.1875 0.9728 0.1363
vn 0.2205 0.9728 0.0716
vn 0.2318 0.9728 0.0000
vn 0.2205 0.9728 -0.0716
vn 0.1875 0.9728 -0.1363
vn 0.1363 0.9728 -0.1875
vn 0.0000 -0.9103 -0.4139
vn 0.1279 -0.9103 -0.3937
vn 0.0716 -0.9728 -0.2205
vn 0.0000 -0.9728 -0.2318
vn 0.1279 0.9103 -0.3937
vn 0.0000 0.9103 -0.4139
vn 0.2433 -0.9103 -0.3349
vn 0.1363 -0.9728 -0.1875
vn 0.2433 0.9103 -0.3349
vn 0.3349 -0.9103 -0.2433
vn 0.1875 -0.9728 -0.1363
vn 0.3349 0.9103 -0.2433
vn 0.3937 -0.9103 -0.1279
vn 0.2205 -0.9728 -0.0716
vn 0.3937 0.9103 -0.1279
vn 0.4139 -0.9103 0.0000
vn 0.2318 -0.9728 0.0000
vn 0.4139 0.9103 0.0000
vn 0.3937 -0.9103 0.1279
vn 0.2205 -0.9728 0.0716
vn 0.3937 0.9103 0.1279
vn 0.3349 -0.9103 0.2433
vn 0.1875 -0.9728 0.1363
vn 0.3349 0.9103 0.2433
vn 0.2433 -0.9103 0.3349
vn 0.1363 -0.9728 0.1875
vn 0.2433 0.9103 0.3349
vn 0.1279 -0.9103 0.3937
vn 0.0716 -0.9728 0.2205
vn 0.1279 0.9103 0.3937
vn -0.0000 -0.9103 0.4139
vn -0.0000 -0.9728 0.2318
vn -0.0000 0.9103 0.4139
vn -0.1279 -0.9103 0.3937
vn -0.0716 -0.9728 0.2205
vn -0.1279 0.9103 0.3937
vn -0.2433 -0.9103 0.3349
vn -0.1363 -0.9728 0.1875
vn -0.2433 0.9103 0.3349
vn -0.3349 -0.9103 0.2433
vn -0.1875 -0.9728 0.1363
vn -0.3349 0.9103 0.2433
vn -0.3937 -0.9103 0.1279
vn -0.2205 -0.9728 0.0716
vn -0.3937 0.9103 0.1279
vn -0.4139 -0.9103 -0.0000
vn -0.2318 -0.9728 -0.0000
vn -0.4139 0.9103 -0.0000
vn -0.3937 -0.9103 -0.1279
vn -0.2205 -0.9728 -0.0716
vn -0.3937 0.9103 -0.1279
vn -0.3349 -0.9103 -0.2433
vn -0.1875 -0.9728 -0.1363
vn -0.3349 0.9103 -0.2433
vn -0.2433 -0.9103 -0.3349
vn -0.1363 -0.9728 -0.1875
vn -0.2433 0.9103 -0.3349
vn -0.1279 -0.9103 -0.3937
vn -0.0716 -0.9728 -0.2205
vn -0.1279 0.9103 -0.3937
usemtl Atlas
s off
f 1/1/1 2/2/1 4/3/1 3/4/1
f 3/4/2 4/3/2 8/5/2 7/6/2
f 7/6/3 8/5/3 6/7/3 5/8/3
f 5/9/4 6/10/4 2/11/4 1/12/4
f 3/13/5 7/14/5 5/15/5 1/16/5
f 8/17/6 4/18/6 2/19/6 6/20/6
f 9/21/2 10/22/2 12/23/2 11/24/2
f 11/24/3 12/23/3 16/25/3 15/26/3
f 15/27/4 16/28/4 14/29/4 13/30/4
f 13/30/1 14/29/1 10/31/1 9/32/1
f 11/33/5 15/34/5 13/35/5 9/36/5
f 16/28/6 12/37/6 10/31/6 14/29/6
f 17/38/4 18/39/4 20/40/4 19/41/4
f 19/41/1 20/40/1 24/42/1 23/43/1
f 23/43/2 24/42/2 22/44/2 21/45/2
f 21/45/3 22/44/3 18/46/3 17/47/3
f 19/41/5 23/43/5 21/48/5 17/38/5
f 24/49/6 20/50/6 18/39/6 22/51/6
f 25/52/3 26/53/3 28/54/3 27/55/3
f 27/56/4 28/57/4 32/58/4 31/59/4
f 31/59/1 32/58/1 30/60/1 29/61/1
f 29/62/2 30/63/2 26/53/2 25/52/2
f 27/56/5 31/64/5 29/65/5 25/66/5
f 32/58/6 28/67/6 26/68/6 30/60/6
f 33/69/6 34/70/6 36/71/6 35/72/6
f 35/73/7 36/74/7 40/75/7 39/76/7
f 39/77/5 40/78/5 38/79/5 37/80/5
f 37/80/8 38/79/8 34/70/8 33/69/8
f 41/81/6 42/82/6 44/83/6 43/84/6
f 43/85/8 44/86/8 48/87/8 47/88/8
f 47/88/5 48/87/5 46/89/5 45/90/5
f 45/91/7 46/92/7 42/82/7 41/81/7
f 49/93/6 50/94/6 52/95/6 51/96/6
f 51/97/9 52/98/9 56/99/9 55/100/9
f 55/101/5 56/99/5 54/102/5 53/103/5
f 53/104/10 54/105/10 50/94/10 49/93/10
f 140/106/9 139/107/9 143/108/9 144/109/9
f 142/110/10 141/111/10 137/112/10 138/113/10
f 144/114/6 143/115/6 141/111/6 142/110/6
f 138/116/5 137/117/5 139/107/5 140/106/5
f 145/118/1 146/119/1 148/120/1 147/121/1
f 147/121/2 148/120/2 152/122/2 151/123/2
f 151/123/3 152/122/3 150/124/3 149/125/3
f 149/126/4 150/127/4 146/119/4 145/118/4
f 147/128/5 151/129/5 149/130/5 145/131/5
f 152/132/6 148/133/6 146/134/6 150/135/6
f 153/136/2 154/137/2 156/138/2 155/139/2
f 155/139/3 156/138/3 160/140/3 159/141/3
f 159/142/4 160/143/4 158/144/4 157/145/4
f 157/145/1 158/144/1 154/146/1 153/147/1
f 155/148/5 159/149/5 157/150/5 153/151/5
f 160/143/6 156/152/6 154/153/6 158/154/6
f 161/155/4 162/156/4 164/157/4 163/158/4
f 163/158/1 164/157/1 168/159/1 167/160/1
f 167/160/2 168/159/2 166/161/2 165/162/2
f 165/162/3 166/161/3 162/163/3 161/164/3
f 163/165/5 167/166/5 165/167/5 161/168/5
f 168/169/6 164/170/6 162/163/6 166/171/6
f 169/172/3 170/173/3 172/174/3 171/175/3
f 171/176/4 172/177/4 176/178/4 175/179/4
f 175/179/1 176/178/1 174/180/1 173/181/1
f 173/182/2 174/183/2 170/173/2 169/172/2
f 171/184/5 175/185/5 173/186/5 169/187/5
f 176/178/6 172/188/6 170/189/6 174/180/6
f 177/190/6 178/191/6 180/192/6 179/193/6
f 179/194/7 180/195/7 184/196/7 183/197/7
f 183/198/5 184/199/5 182/200/5 181/201/5
f 181/202/8 182/203/8 178/204/8 177/205/8
f 185/206/6 186/207/6 188/208/6 187/209/6
f 187/210/8 188/211/8 192/212/8 191/213/8
f 191/214/5 192/215/5 190/216/5 189/217/5
f 189/217/7 190/216/7 186/207/7 185/206/7
f 193/218/6 194/219/6 196/220/6 195/221/6
f 195/222/9 196/223/9 200/224/9 199/225/9
f 199/226/5 200/224/5 198/227/5 197/228/5
f 197/229/10 198/230/10 194/231/10 193/232/10
s 1
f 134/233/11 136/234/11 60/235/9 58/236/9
f 66/237/12 68/238/12 72/239/13 70/240/13
f 70/240/13 72/239/13 76/241/14 74/242/14
f 74/242/14 76/241/14 80/243/8 78/244/8
f 78/244/8 80/243/8 84/245/15 82/246/15
f 82/246/15 84/245/15 88/247/16 86/248/16
f 86/248/16 88/247/16 92/249/17 90/250/17
f 90/250/17 92/249/17 96/251/18 94/252/18
f 94/252/18 96/251/18 100/253/10 98/254/10
f 98/254/10 100/253/10 104/255/19 102/256/19
f 102/256/19 104/255/19 108/257/20 106/258/20
f 106/258/20 108/257/20 112/259/21 110/260/21
f 110/260/21 112/259/21 116/261/22 114/262/22
f 114/262/22 116/261/22 120/263/7 118/264/7
f 118/264/7 120/263/7 124/265/23 122/266/23
f 122/266/23 124/265/23 128/267/24 126/268/24
f 126/268/24 128/267/24 132/269/25 130/270/25
f 130/270/25 132/269/25 136/234/11 134/233/11
f 62/271/26 64/272/26 68/238/12 66/237/12
f 63/273/27 59/274/28 135/275/29 131/276/30 127/277/31 123/278/32 119/279/33 115/280/34 111/281/35 107/282/36 103/283/37 99/284/38 95/285/39 91/286/40 87/287/41 83/288/42 79/289/43 75/290/44 71/291/45 67/292/46
f 58/236/9 60/235/9 64/272/26 62/271/26
f 58/236/47 62/271/48 61/293/49 57/294/50
f 64/272/51 60/235/52 59/274/28 63/273/27
f 62/271/48 66/237/53 65/295/54 61/293/49
f 68/238/55 64/272/51 63/273/27 67/292/46
f 66/237/53 70/240/56 69/296/57 65/295/54
f 72/239/58 68/238/55 67/292/46 71/291/45
f 70/240/56 74/242/59 73/297/60 69/296/57
f 76/241/61 72/239/58 71/291/45 75/290/44
f 74/242/59 78/244/62 77/298/63 73/297/60
f 80/243/64 76/241/61 75/290/44 79/289/43
f 78/244/62 82/246/65 81/299/66 77/298/63
f 84/245/67 80/243/64 79/289/43 83/288/42
f 82/246/65 86/248/68 85/300/69 81/299/66
f 88/247/70 84/245/67 83/288/42 87/287/41
f 86/248/68 90/250/71 89/301/72 85/300/69
f 92/249/73 88/247/70 87/287/41 91/286/40
f 90/250/71 94/252/74 93/302/75 89/301/72
f 96/251/76 92/249/73 91/286/40 95/285/39
f 94/252/74 98/254/77 97/303/78 93/302/75
f 100/253/79 96/251/76 95/285/39 99/284/38
f 98/254/77 102/256/80 101/304/81 97/303/78
f 104/255/82 100/253/79 99/284/38 103/283/37
f 102/256/80 106/258/83 105/305/84 101/304/81
f 108/257/85 104/255/82 103/283/37 107/282/36
f 106/258/83 110/260/86 109/306/87 105/305/84
f 112/259/88 108/257/85 107/282/36 111/281/35
f 110/260/86 114/262/89 113/307/90 109/306/87
f 116/261/91 112/259/88 111/281/35 115/280/34
f 114/262/89 118/264/92 117/308/93 113/307/90
f 120/263/94 116/261/91 115/280/34 119/279/33
f 118/264/92 122/266/95 121/309/96 117/308/93
f 124/265/97 120/263/94 119/279/33 123/278/32
f 122/266/95 126/268/98 125/310/99 121/309/96
f 128/267/100 124/265/97 123/278/32 127/277/31
f 126/268/98 130/270/101 129/311/102 125/310/99
f 132/269/103 128/267/100 127/277/31 131/276/30
f 130/270/101 134/233/104 133/312/105 129/311/102
f 136/234/106 132/269/103 131/276/30 135/275/29
f 134/233/104 58/236/47 57/294/50 133/312/105
f 60/235/52 136/234/106 135/275/29 59/274/28
f 57/294/50 61/293/49 65/295/54 69/296/57 73/297/60 77/298/63 81/299/66 85/300/69 89/301/72 93/302/75 97/303/78 101/304/81 105/305/84 109/306/87 113/307/90 117/308/93 121/309/96 125/310/99 129/311/102 133/312/105
