# Blender v3.0.0 OBJ File: 'Environment_Table.blend'
# www.blender.org
mtllib Environment_Table.mtl
o Environment_Table_Cylinder.023
v -1.087222 0.000000 0.935346
v -0.933220 1.366970 0.935346
v -1.087222 0.000000 0.764514
v -0.933220 1.366970 0.764514
v -0.762388 0.000000 0.935346
v -0.762388 1.366970 0.935346
v -0.762388 0.000000 0.764514
v -0.762388 1.366970 0.764514
v -0.874009 1.124567 0.909787
v -0.874009 1.124567 0.790073
v -0.874009 0.997640 0.909787
v -0.874009 0.997640 0.790073
v 0.762388 0.000000 0.935346
v 0.762388 1.366970 0.935346
v 1.087398 0.000000 0.935346
v 0.933220 1.366970 0.935346
v 0.762388 0.000000 0.764514
v 0.762388 1.366970 0.764514
v 1.087398 0.000000 0.764514
v 0.933219 1.366970 0.764514
v 0.874009 1.124567 0.909787
v 0.874009 1.124567 0.790073
v 0.874009 0.997640 0.909787
v 0.874009 0.997640 0.790073
v 0.909786 1.124567 0.874009
v 0.790073 1.124567 0.874009
v 0.909786 0.997640 0.874009
v 0.790073 0.997640 0.874009
v 0.909787 1.124567 -0.874008
v 0.790074 1.124567 -0.874008
v 0.909787 0.997640 -0.874008
v 0.790074 0.997640 -0.874008
v 1.087398 0.000000 -0.935346
v 0.933220 1.366970 -0.935346
v 1.087398 0.000000 -0.764514
v 0.933220 1.366970 -0.764514
v 0.762388 0.000000 -0.935346
v 0.762388 1.366970 -0.935346
v 0.762388 0.000000 -0.764514
v 0.762388 1.366970 -0.764514
v 0.874009 1.124567 -0.909787
v 0.874009 1.124567 -0.790073
v 0.874009 0.997640 -0.909787
v 0.874009 0.997640 -0.790073
v -0.874008 1.124567 -0.909787
v -0.874009 1.124567 -0.790073
v -0.874008 0.997640 -0.909787
v -0.874009 0.997640 -0.790073
v -1.089700 0.000000 -0.933220
v -0.935346 1.366970 -0.933220
v -0.764514 0.000000 -0.933220
v -0.764514 1.366970 -0.933220
v -1.089700 0.000000 -0.762388
v -0.935346 1.366970 -0.762388
v -0.764514 0.000000 -0.762388
v -0.764514 1.366970 -0.762388
v -0.909787 1.124567 -0.874009
v -0.790073 1.124567 -0.874009
v -0.909787 0.997640 -0.874009
v -0.790073 0.997640 -0.874009
v -0.909787 1.124567 0.874009
v -0.790073 1.124567 0.874009
v -0.909787 0.997640 0.874009
v -0.790073 0.997640 0.874009
v -0.984276 1.549360 0.853484
v -1.021320 1.500177 0.856835
v -0.769914 1.549360 1.000776
v -0.774791 1.500177 1.026229
v -0.955079 1.549360 0.928356
v -0.988291 1.500177 0.941532
v -0.878881 1.549360 0.980714
v -0.898055 1.500177 1.003535
v -0.769914 1.549360 -1.059833
v -0.774791 1.500177 -1.085286
v -0.984277 1.549360 -0.912540
v -1.021320 1.500177 -0.915891
v -0.878881 1.549360 -1.039771
v -0.898055 1.500177 -1.062592
v -0.955079 1.549360 -0.987413
v -0.988291 1.500177 -1.000589
v 0.769916 1.549360 1.000776
v 0.774792 1.500177 1.026229
v 0.984278 1.549360 0.853484
v 1.021321 1.500177 0.856835
v 0.878882 1.549360 0.980714
v 0.898057 1.500177 1.003535
v 0.955080 1.549360 0.928356
v 0.988293 1.500177 0.941532
v 0.984278 1.549360 -0.912541
v 1.021321 1.500177 -0.915892
v 0.769915 1.549360 -1.059833
v 0.774792 1.500177 -1.085286
v 0.955080 1.549360 -0.987413
v 0.988292 1.500177 -1.000589
v 0.878882 1.549360 -1.039771
v 0.898057 1.500177 -1.062592
v 0.984278 1.309687 0.853484
v 1.021321 1.358870 0.856835
v 0.769916 1.309687 1.000776
v 0.774792 1.358870 1.026229
v 0.955080 1.309687 0.928356
v 0.988293 1.358870 0.941532
v 0.878882 1.309687 0.980714
v 0.898057 1.358870 1.003535
v -0.769914 1.309687 1.000776
v -0.774791 1.358870 1.026229
v -0.984276 1.309687 0.853484
v -1.021320 1.358870 0.856835
v -0.878881 1.309687 0.980714
v -0.898055 1.358870 1.003535
v -0.955079 1.309687 0.928356
v -0.988291 1.358870 0.941532
v -0.984277 1.309687 -0.912540
v -1.021320 1.358870 -0.915891
v -0.769914 1.309687 -1.059833
v -0.774791 1.358870 -1.085286
v -0.955079 1.309687 -0.987413
v -0.988291 1.358870 -1.000589
v -0.878881 1.309687 -1.039771
v -0.898055 1.358870 -1.062592
v 0.769915 1.309687 -1.059833
v 0.774792 1.358870 -1.085286
v 0.984278 1.309687 -0.912541
v 1.021321 1.358870 -0.915892
v 0.878882 1.309687 -1.039771
v 0.898057 1.358870 -1.062592
v 0.955080 1.309687 -0.987413
v 0.988292 1.358870 -1.000589
v 1.006053 0.161147 -0.935346
v 0.933220 0.458875 -0.935346
v 0.978181 0.228042 -0.935346
v 0.954552 0.308113 -0.935346
v 0.938764 0.389171 -0.935346
v -0.762388 0.458875 0.764514
v -0.762388 0.161128 0.764514
v -0.762388 0.384438 0.764514
v -0.762388 0.310001 0.764514
v -0.762388 0.235564 0.764514
v 0.762388 0.458875 0.935346
v 0.762388 0.161147 0.935346
v 0.762388 0.384443 0.935346
v 0.762388 0.310011 0.935346
v 0.762388 0.235579 0.935346
v 0.762388 0.161147 0.764514
v 0.762388 0.458875 0.764514
v 0.762388 0.235579 0.764514
v 0.762388 0.310011 0.764514
v 0.762388 0.384443 0.764514
v 1.006052 0.161147 0.935346
v 0.933220 0.458875 0.935346
v 0.978181 0.228042 0.935346
v 0.954552 0.308113 0.935346
v 0.938764 0.389171 0.935346
v -0.935346 0.458875 -0.762388
v -1.008252 0.161167 -0.762388
v -0.940895 0.389172 -0.762388
v -0.956699 0.308119 -0.762388
v -0.980352 0.228054 -0.762388
v -0.933220 0.458875 0.935346
v -1.005979 0.161128 0.935346
v -0.938758 0.389170 0.935346
v -0.954530 0.308108 0.935346
v -0.978135 0.228030 0.935346
v -0.764514 0.458875 -0.933220
v -0.764514 0.161167 -0.933220
v -0.764514 0.384448 -0.933220
v -0.764514 0.310021 -0.933220
v -0.764514 0.235594 -0.933220
v 0.933220 0.458875 -0.764514
v 1.006053 0.161147 -0.764514
v 0.938764 0.389171 -0.764514
v 0.954552 0.308113 -0.764514
v 0.978181 0.228042 -0.764514
v 0.762388 0.458875 -0.935346
v 0.762388 0.161147 -0.935346
v 0.762388 0.384443 -0.935346
v 0.762388 0.310011 -0.935346
v 0.762388 0.235579 -0.935346
v -0.762388 0.161128 0.935346
v -0.762388 0.458875 0.935346
v -0.762388 0.235564 0.935346
v -0.762388 0.310001 0.935346
v -0.762388 0.384438 0.935346
v -1.005979 0.161128 0.764514
v -0.933220 0.458875 0.764514
v -0.978135 0.228030 0.764514
v -0.954530 0.308108 0.764514
v -0.938758 0.389170 0.764514
v 0.933219 0.458875 0.764514
v 1.006052 0.161147 0.764514
v 0.938763 0.389171 0.764514
v 0.954552 0.308113 0.764514
v 0.978180 0.228042 0.764514
v -0.764514 0.161167 -0.762388
v -0.764514 0.458875 -0.762388
v -0.764514 0.235594 -0.762388
v -0.764514 0.310021 -0.762388
v -0.764514 0.384448 -0.762388
v 0.762388 0.161147 -0.764514
v 0.762388 0.458875 -0.764514
v 0.762388 0.235579 -0.764514
v 0.762388 0.310011 -0.764514
v 0.762388 0.384443 -0.764514
v -1.008252 0.161167 -0.933220
v -0.935346 0.458875 -0.933220
v -0.980352 0.228054 -0.933220
v -0.956699 0.308119 -0.933220
v -0.940895 0.389172 -0.933220
vt 0.030586 0.966372
vt 0.030586 0.966341
vt 0.030619 0.966341
vt 0.030619 0.966372
vt 0.030652 0.966284
vt 0.030619 0.966284
vt 0.030619 0.966109
vt 0.030652 0.966109
vt 0.030355 0.966771
vt 0.030370 0.966740
vt 0.030418 0.966740
vt 0.030418 0.966771
vt 0.030447 0.966596
vt 0.030481 0.966596
vt 0.030481 0.966771
vt 0.030447 0.966771
vt 0.030146 0.966834
vt 0.030146 0.966771
vt 0.030179 0.966771
vt 0.030179 0.966834
vt 0.030212 0.966804
vt 0.030212 0.966771
vt 0.030245 0.966771
vt 0.030245 0.966804
vt 0.030636 0.967108
vt 0.030613 0.967108
vt 0.030613 0.966770
vt 0.030636 0.966770
vt 0.030671 0.966845
vt 0.030646 0.966845
vt 0.030646 0.966507
vt 0.030671 0.966507
vt 0.030744 0.966507
vt 0.030767 0.966507
vt 0.030767 0.966845
vt 0.030744 0.966845
vt 0.030720 0.966845
vt 0.030695 0.966845
vt 0.030695 0.966507
vt 0.030720 0.966507
vt 0.030229 0.966683
vt 0.030196 0.966683
vt 0.030196 0.966507
vt 0.030229 0.966507
vt 0.030547 0.966598
vt 0.030580 0.966598
vt 0.030580 0.966773
vt 0.030547 0.966773
vt 0.030259 0.966596
vt 0.030292 0.966596
vt 0.030292 0.966771
vt 0.030259 0.966771
vt 0.030229 0.966507
vt 0.030292 0.966507
vt 0.030292 0.966538
vt 0.030245 0.966538
vt 0.030113 0.966834
vt 0.030113 0.966771
vt 0.030146 0.966771
vt 0.030146 0.966834
vt 0.030278 0.966804
vt 0.030278 0.966771
vt 0.030774 0.966447
vt 0.030751 0.966447
vt 0.030751 0.966109
vt 0.030774 0.966109
vt 0.030720 0.966507
vt 0.030744 0.966507
vt 0.030744 0.966845
vt 0.030720 0.966845
vt 0.030000 0.966771
vt 0.030023 0.966771
vt 0.030023 0.967109
vt 0.030000 0.967109
vt 0.030702 0.966447
vt 0.030677 0.966447
vt 0.030677 0.966109
vt 0.030702 0.966109
vt 0.030619 0.966372
vt 0.030619 0.966341
vt 0.030652 0.966341
vt 0.030652 0.966372
vt 0.030166 0.966683
vt 0.030133 0.966683
vt 0.030133 0.966507
vt 0.030166 0.966507
vt 0.030613 0.966595
vt 0.030646 0.966595
vt 0.030646 0.966770
vt 0.030613 0.966770
vt 0.030547 0.966507
vt 0.030547 0.966540
vt 0.030514 0.966540
vt 0.030514 0.966507
vt 0.030080 0.966834
vt 0.030080 0.966771
vt 0.030113 0.966771
vt 0.030113 0.966834
vt 0.030245 0.966804
vt 0.030245 0.966771
vt 0.030278 0.966771
vt 0.030278 0.966804
vt 0.030791 0.966845
vt 0.030767 0.966845
vt 0.030767 0.966507
vt 0.030791 0.966507
vt 0.030652 0.966109
vt 0.030677 0.966109
vt 0.030677 0.966447
vt 0.030652 0.966447
vt 0.030046 0.967109
vt 0.030023 0.967109
vt 0.030023 0.966771
vt 0.030046 0.966771
vt 0.030726 0.966109
vt 0.030751 0.966109
vt 0.030751 0.966447
vt 0.030726 0.966447
vt 0.030619 0.966284
vt 0.030586 0.966284
vt 0.030586 0.966109
vt 0.030619 0.966109
vt 0.029977 0.966771
vt 0.029993 0.966740
vt 0.030040 0.966740
vt 0.030040 0.966771
vt 0.030514 0.966682
vt 0.030481 0.966682
vt 0.030481 0.966507
vt 0.030514 0.966507
vt 0.030103 0.966507
vt 0.030103 0.966538
vt 0.030056 0.966538
vt 0.030040 0.966507
vt 0.030080 0.966771
vt 0.030080 0.966834
vt 0.030179 0.966804
vt 0.030179 0.966771
vt 0.030212 0.966771
vt 0.030212 0.966804
vt 0.030603 0.967108
vt 0.030580 0.967108
vt 0.030580 0.966770
vt 0.030603 0.966770
vt 0.030702 0.966109
vt 0.030726 0.966109
vt 0.030726 0.966447
vt 0.030702 0.966447
vt 0.029977 0.966771
vt 0.030000 0.966771
vt 0.030000 0.967109
vt 0.029977 0.967109
vt 0.030213 0.966507
vt 0.030192 0.966503
vt 0.030178 0.966493
vt 0.030172 0.966479
vt 0.030172 0.966138
vt 0.030178 0.966123
vt 0.030192 0.966113
vt 0.030213 0.966109
vt 0.030512 0.966109
vt 0.030533 0.966113
vt 0.030548 0.966123
vt 0.030553 0.966138
vt 0.030553 0.966479
vt 0.030548 0.966493
vt 0.030533 0.966503
vt 0.030512 0.966507
vt 0.029921 0.966524
vt 0.029894 0.966524
vt 0.029894 0.966507
vt 0.029921 0.966507
vt 0.029800 0.966525
vt 0.029827 0.966525
vt 0.029827 0.966548
vt 0.029800 0.966548
vt 0.029800 0.966872
vt 0.029827 0.966872
vt 0.029827 0.966889
vt 0.029800 0.966889
vt 0.029921 0.966866
vt 0.029894 0.966866
vt 0.029874 0.966872
vt 0.029846 0.966872
vt 0.029846 0.966848
vt 0.029874 0.966848
vt 0.029827 0.966848
vt 0.029800 0.966848
vt 0.029874 0.966889
vt 0.029846 0.966889
vt 0.029846 0.966548
vt 0.029874 0.966548
vt 0.029967 0.966882
vt 0.029940 0.966882
vt 0.029939 0.966866
vt 0.029966 0.966866
vt 0.029966 0.966524
vt 0.029939 0.966524
vt 0.029940 0.966507
vt 0.029967 0.966507
vt 0.029846 0.966525
vt 0.029874 0.966525
vt 0.030172 0.966479
vt 0.030166 0.966493
vt 0.030151 0.966503
vt 0.030130 0.966507
vt 0.029832 0.966507
vt 0.029811 0.966503
vt 0.029796 0.966493
vt 0.029791 0.966479
vt 0.029791 0.966138
vt 0.029796 0.966123
vt 0.029811 0.966113
vt 0.029832 0.966109
vt 0.030130 0.966109
vt 0.030151 0.966113
vt 0.030166 0.966123
vt 0.030172 0.966138
vt 0.029846 0.966507
vt 0.029800 0.966507
vt 0.029827 0.966507
vt 0.029883 0.966880
vt 0.029884 0.966865
vt 0.029894 0.966882
vt 0.029930 0.966865
vt 0.029930 0.966880
vt 0.029921 0.966882
vt 0.029791 0.966528
vt 0.029791 0.966514
vt 0.029837 0.966514
vt 0.029837 0.966528
vt 0.029791 0.966549
vt 0.029837 0.966549
vt 0.029930 0.966510
vt 0.029930 0.966524
vt 0.029884 0.966524
vt 0.029883 0.966510
vt 0.029883 0.966868
vt 0.029883 0.966883
vt 0.029837 0.966883
vt 0.029837 0.966868
vt 0.029883 0.966847
vt 0.029837 0.966847
vt 0.029791 0.966868
vt 0.029791 0.966847
vt 0.029837 0.966847
vt 0.029837 0.966868
vt 0.029791 0.966883
vt 0.029837 0.966883
vt 0.029976 0.966865
vt 0.029977 0.966880
vt 0.029931 0.966880
vt 0.029930 0.966865
vt 0.029977 0.966510
vt 0.029976 0.966524
vt 0.029930 0.966524
vt 0.029931 0.966510
vt 0.029837 0.966528
vt 0.029837 0.966514
vt 0.029883 0.966528
vt 0.029837 0.966549
vt 0.029883 0.966549
vt 0.030695 0.966845
vt 0.030671 0.966845
vt 0.030671 0.966507
vt 0.030695 0.966507
vt 0.030613 0.966770
vt 0.030580 0.966770
vt 0.030580 0.966739
vt 0.030613 0.966739
vt 0.030547 0.966507
vt 0.030580 0.966507
vt 0.030580 0.966540
vt 0.030547 0.966540
vt 0.030355 0.966507
vt 0.030355 0.966538
vt 0.030308 0.966538
vt 0.030292 0.966507
vt 0.030119 0.966740
vt 0.030166 0.966740
vt 0.030166 0.966771
vt 0.030553 0.966200
vt 0.030586 0.966200
vt 0.030586 0.966375
vt 0.030553 0.966375
vt 0.030613 0.966682
vt 0.030580 0.966682
vt 0.030580 0.966507
vt 0.030613 0.966507
vt 0.030586 0.966109
vt 0.030586 0.966142
vt 0.030553 0.966142
vt 0.030553 0.966109
vt 0.030481 0.966773
vt 0.030481 0.966740
vt 0.030514 0.966740
vt 0.030514 0.966773
vt 0.030229 0.966771
vt 0.030166 0.966771
vt 0.030182 0.966740
vt 0.030229 0.966740
vt 0.030646 0.966507
vt 0.030646 0.966538
vt 0.030613 0.966538
vt 0.030613 0.966507
vt 0.030514 0.966598
vt 0.030547 0.966598
vt 0.030547 0.966773
vt 0.030514 0.966773
vt 0.030040 0.966683
vt 0.030007 0.966683
vt 0.030007 0.966507
vt 0.030040 0.966507
vt 0.030070 0.966596
vt 0.030103 0.966596
vt 0.030103 0.966771
vt 0.030070 0.966771
vt 0.030481 0.966507
vt 0.030481 0.966538
vt 0.030433 0.966538
vt 0.030418 0.966507
vt 0.030418 0.966683
vt 0.030385 0.966683
vt 0.030385 0.966507
vt 0.030418 0.966507
vt 0.030187 0.966727
vt 0.030229 0.966726
vt 0.030192 0.966712
vt 0.030229 0.966711
vt 0.030195 0.966696
vt 0.030229 0.966697
vt 0.030258 0.966582
vt 0.030292 0.966581
vt 0.030255 0.966567
vt 0.030292 0.966567
vt 0.030250 0.966551
vt 0.030292 0.966553
vt 0.030547 0.966553
vt 0.030514 0.966553
vt 0.030547 0.966569
vt 0.030514 0.966569
vt 0.030547 0.966585
vt 0.030514 0.966585
vt 0.030613 0.966581
vt 0.030646 0.966581
vt 0.030613 0.966567
vt 0.030646 0.966567
vt 0.030613 0.966552
vt 0.030646 0.966552
vt 0.030040 0.966697
vt 0.030006 0.966696
vt 0.030040 0.966711
vt 0.030003 0.966712
vt 0.030040 0.966726
vt 0.029998 0.966727
vt 0.030103 0.966553
vt 0.030061 0.966551
vt 0.030103 0.966567
vt 0.030066 0.966567
vt 0.030103 0.966581
vt 0.030069 0.966582
vt 0.030418 0.966697
vt 0.030383 0.966696
vt 0.030418 0.966711
vt 0.030380 0.966712
vt 0.030418 0.966726
vt 0.030376 0.966727
vt 0.030481 0.966553
vt 0.030439 0.966551
vt 0.030481 0.966567
vt 0.030443 0.966567
vt 0.030481 0.966581
vt 0.030446 0.966582
vt 0.030580 0.966553
vt 0.030547 0.966553
vt 0.030580 0.966569
vt 0.030547 0.966569
vt 0.030580 0.966585
vt 0.030547 0.966585
vt 0.030580 0.966725
vt 0.030613 0.966725
vt 0.030580 0.966710
vt 0.030613 0.966710
vt 0.030580 0.966696
vt 0.030613 0.966696
vt 0.030124 0.966727
vt 0.030166 0.966726
vt 0.030129 0.966712
vt 0.030166 0.966711
vt 0.030132 0.966696
vt 0.030166 0.966697
vt 0.030355 0.966596
vt 0.030322 0.966596
vt 0.030321 0.966582
vt 0.030355 0.966581
vt 0.030317 0.966567
vt 0.030355 0.966567
vt 0.030313 0.966551
vt 0.030355 0.966553
vt 0.030586 0.966327
vt 0.030619 0.966327
vt 0.030586 0.966312
vt 0.030619 0.966312
vt 0.030586 0.966298
vt 0.030619 0.966298
vt 0.030514 0.966695
vt 0.030481 0.966695
vt 0.030514 0.966711
vt 0.030481 0.966711
vt 0.030514 0.966727
vt 0.030481 0.966727
vt 0.030553 0.966187
vt 0.030586 0.966187
vt 0.030553 0.966171
vt 0.030586 0.966171
vt 0.030553 0.966155
vt 0.030586 0.966155
vt 0.030619 0.966327
vt 0.030652 0.966327
vt 0.030619 0.966312
vt 0.030652 0.966312
vt 0.030619 0.966298
vt 0.030652 0.966298
vt 0.030355 0.966771
vn 1.0000 0.0000 0.0000
vn 0.0000 -0.0000 -1.0000
vn -0.0000 0.0000 1.0000
vn 0.0000 -1.0000 0.0000
vn 0.0000 1.0000 0.0000
vn 0.9992 0.0397 -0.0000
vn -1.0000 0.0000 -0.0000
vn 0.8927 0.4506 0.0000
vn 0.9085 0.4179 0.0000
vn -0.9992 0.0397 -0.0000
vn -0.9359 -0.3065 -0.1735
vn -0.9359 0.3065 -0.1735
vn -0.7578 0.2860 -0.5864
vn -0.7578 -0.2860 -0.5864
vn -0.3774 0.2519 0.8911
vn -0.3774 -0.2519 0.8911
vn -0.0895 -0.2360 0.9676
vn -0.0895 0.2360 0.9676
vn 0.3774 0.2519 0.8911
vn 0.3774 -0.2519 0.8911
vn 0.7578 -0.2860 0.5864
vn 0.7578 0.2860 0.5864
vn -0.9359 -0.3065 0.1735
vn -0.9359 0.3065 0.1735
vn -0.3774 -0.2519 -0.8911
vn -0.3774 0.2519 -0.8911
vn -0.0895 0.2360 -0.9676
vn -0.0895 -0.2360 -0.9676
vn 0.0895 -0.2360 0.9676
vn 0.0895 0.2360 0.9676
vn 0.0895 0.2360 -0.9676
vn 0.0895 -0.2360 -0.9676
vn 0.9359 -0.3065 0.1735
vn 0.9359 0.3065 0.1735
vn 0.9359 0.3065 -0.1735
vn 0.9359 -0.3065 -0.1735
vn 0.7578 -0.2860 -0.5864
vn 0.7578 0.2860 -0.5864
vn 0.3774 0.2519 -0.8911
vn 0.3774 -0.2519 -0.8911
vn -0.7578 0.2860 0.5864
vn -0.7578 -0.2860 0.5864
vn -0.6260 0.5663 0.5360
vn -0.7842 0.6011 0.1537
vn -0.7842 -0.6011 0.1537
vn -0.6260 -0.5663 0.5360
vn -0.3129 0.4974 0.8091
vn -0.3129 -0.4974 0.8091
vn -0.0781 0.4643 0.8822
vn -0.0781 -0.4643 0.8822
vn -0.6260 -0.5663 -0.5360
vn -0.7842 -0.6011 -0.1537
vn -0.7842 0.6011 -0.1537
vn -0.6260 0.5663 -0.5360
vn -0.3129 -0.4974 -0.8091
vn -0.3129 0.4974 -0.8091
vn -0.0781 -0.4643 -0.8822
vn -0.0781 0.4643 -0.8822
vn 0.3129 0.4974 0.8091
vn 0.0781 0.4643 0.8822
vn 0.0781 -0.4643 0.8822
vn 0.3129 -0.4974 0.8091
vn 0.6260 0.5663 0.5360
vn 0.6260 -0.5663 0.5360
vn 0.7842 0.6011 0.1537
vn 0.7842 -0.6011 0.1537
vn 0.6260 0.5664 -0.5360
vn 0.7842 0.6011 -0.1537
vn 0.7842 -0.6011 -0.1537
vn 0.6260 -0.5663 -0.5360
vn 0.3129 0.4974 -0.8091
vn 0.3129 -0.4974 -0.8091
vn 0.0781 0.4643 -0.8822
vn 0.0781 -0.4643 -0.8822
vn -0.9992 0.0396 0.0000
vn -0.8929 0.4502 0.0000
vn -0.9087 0.4175 0.0000
vn -0.8925 0.4510 -0.0000
vn -0.9083 0.4183 -0.0000
vn 0.9425 0.3343 0.0000
vn 0.9714 0.2374 0.0000
vn 0.9908 0.1355 0.0000
vn -0.9908 0.1356 -0.0000
vn -0.9714 0.2376 -0.0000
vn -0.9424 0.3346 -0.0000
vn -0.9908 0.1353 0.0000
vn -0.9715 0.2371 0.0000
vn -0.9426 0.3340 0.0000
usemtl Atlas
s 1
f 51/1/1 165/2/1 194/3/1 55/4/1
f 180/5/1 134/6/1 8/7/1 6/8/1
f 3/9/2 184/10/2 135/11/2 7/12/2
f 159/13/3 180/14/3 6/15/3 2/16/3
f 3/17/4 7/18/4 5/19/4 1/20/4
f 8/21/5 4/22/5 2/23/5 6/24/5
f 24/25/4 23/26/4 11/27/4 12/28/4
f 22/29/2 24/30/2 12/31/2 10/32/2
f 21/33/5 22/34/5 10/35/5 9/36/5
f 31/37/1 29/38/1 25/39/1 27/40/1
f 139/41/3 150/42/3 16/43/3 14/44/3
f 150/45/6 189/46/6 20/47/1 16/48/1
f 189/49/2 145/50/2 18/51/2 20/52/2
f 19/53/2 17/54/2 144/55/2 190/56/2
f 15/57/4 13/58/4 17/59/4 19/60/4
f 20/52/5 18/51/5 14/61/5 16/62/5
f 32/63/4 31/64/4 27/65/4 28/66/4
f 30/67/7 32/68/7 28/69/7 26/70/7
f 29/71/5 30/72/5 26/73/5 25/74/5
f 47/75/2 45/76/2 41/77/2 43/78/2
f 7/79/1 135/80/1 179/81/1 5/82/1
f 200/83/3 169/84/3 36/85/3 40/86/3
f 174/87/7 200/88/7 40/89/7 38/90/7
f 33/91/8 129/92/9 170/93/9 35/94/8
f 35/95/4 39/96/4 37/97/4 33/98/4
f 40/99/5 36/100/5 34/101/5 38/102/5
f 48/103/4 47/104/4 43/105/4 44/106/4
f 46/107/3 48/108/3 44/109/3 42/110/3
f 45/111/5 46/112/5 42/113/5 41/114/5
f 63/115/7 61/116/7 57/117/7 59/118/7
f 195/119/1 164/120/1 52/121/1 56/122/1
f 49/123/2 204/124/2 165/125/2 51/126/2
f 205/127/10 154/128/10 54/129/7 50/130/7
f 55/131/3 194/132/3 155/133/3 53/134/3
f 51/126/4 55/135/4 53/136/4 49/123/4
f 56/137/5 52/138/5 50/139/5 54/140/5
f 64/141/4 63/142/4 59/143/4 60/144/4
f 62/145/1 64/146/1 60/147/1 58/148/1
f 61/149/5 62/150/5 58/151/5 57/152/5
f 73/153/5 77/154/5 79/155/5 75/156/5 65/157/5 69/158/5 71/159/5 67/160/5 81/161/5 85/162/5 87/163/5 83/164/5 89/165/5 93/166/5 95/167/5 91/168/5
f 114/169/11 76/170/12 80/171/13 118/172/14
f 72/173/15 110/174/16 106/175/17 68/176/18
f 86/177/19 104/178/20 102/179/21 88/180/22
f 76/170/12 114/169/11 108/181/23 66/182/24
f 120/183/25 78/184/26 74/185/27 116/186/28
f 68/176/18 106/175/17 100/187/29 82/188/30
f 118/189/14 80/190/13 78/184/26 120/183/25
f 82/188/30 100/187/29 104/178/20 86/177/19
f 92/191/31 122/192/32 116/186/28 74/185/27
f 88/193/22 102/194/21 98/195/33 84/196/34
f 90/197/35 124/198/36 128/199/37 94/200/38
f 84/196/34 98/195/33 124/198/36 90/197/35
f 96/201/39 126/202/40 122/192/32 92/191/31
f 113/203/4 117/204/4 119/205/4 115/206/4 121/207/4 125/208/4 127/209/4 123/210/4 97/211/4 101/212/4 103/213/4 99/214/4 105/215/4 109/216/4 111/217/4 107/218/4
f 94/219/38 128/199/37 126/202/40 96/201/39
f 70/220/41 112/221/42 110/174/16 72/173/15
f 69/222/43 65/223/44 66/182/24 70/224/41
f 107/225/45 111/226/46 112/227/42 108/181/23
f 71/228/47 69/229/43 70/220/41 72/173/15
f 111/230/46 109/231/48 110/174/16 112/221/42
f 67/232/49 71/228/47 72/173/15 68/176/18
f 109/231/48 105/233/50 106/175/17 110/174/16
f 117/234/51 113/235/52 114/169/11 118/172/14
f 75/236/53 79/237/54 80/171/13 76/170/12
f 119/238/55 117/239/51 118/189/14 120/183/25
f 79/240/54 77/241/56 78/184/26 80/190/13
f 115/242/57 119/238/55 120/183/25 116/186/28
f 77/241/56 73/243/58 74/185/27 78/184/26
f 85/244/59 81/245/60 82/188/30 86/177/19
f 99/246/61 103/247/62 104/178/20 100/187/29
f 87/248/63 85/244/59 86/177/19 88/180/22
f 103/247/62 101/249/64 102/179/21 104/178/20
f 83/250/65 87/251/63 88/193/22 84/196/34
f 101/252/64 97/253/66 98/195/33 102/194/21
f 93/254/67 89/255/68 90/197/35 94/200/38
f 123/256/69 127/257/70 128/199/37 124/198/36
f 95/258/71 93/259/67 94/219/38 96/201/39
f 127/257/70 125/260/72 126/202/40 128/199/37
f 91/261/73 95/258/71 96/201/39 92/191/31
f 125/260/72 121/262/74 122/192/32 126/202/40
f 81/245/60 67/232/49 68/176/18 82/188/30
f 105/233/50 99/246/61 100/187/29 106/175/17
f 92/191/31 74/185/27 73/243/58 91/261/73
f 76/170/12 66/182/24 65/223/44 75/236/53
f 84/196/34 90/197/35 89/255/68 83/250/65
f 113/235/52 107/225/45 108/181/23 114/169/11
f 121/262/74 115/242/57 116/186/28 122/192/32
f 97/253/66 123/256/69 124/198/36 98/195/33
f 66/182/24 108/181/23 112/227/42 70/224/41
f 23/263/3 21/264/3 9/265/3 11/266/3
f 17/267/7 13/268/7 140/269/7 144/270/7
f 15/271/8 19/272/8 190/273/9 149/274/9
f 37/275/2 175/276/2 129/277/2 33/278/2
f 35/95/3 170/279/3 199/280/3 39/281/3
f 185/282/75 159/283/75 2/284/7 4/285/7
f 145/286/7 139/287/7 14/288/7 18/289/7
f 1/290/76 160/291/77 184/292/77 3/293/76
f 53/294/78 155/295/79 204/296/79 49/297/78
f 13/298/3 15/299/3 149/300/3 140/301/3
f 39/302/7 199/303/7 175/304/7 37/305/7
f 169/306/6 130/307/6 34/308/1 36/309/1
f 164/310/2 205/311/2 50/312/2 52/313/2
f 154/314/3 195/315/3 56/316/3 54/317/3
f 5/318/3 179/319/3 160/320/3 1/321/3
f 134/322/2 185/323/2 4/324/2 8/325/2
f 140/301/3 149/300/3 151/326/3 143/327/3
f 143/327/3 151/326/3 152/328/3 142/329/3
f 142/329/3 152/328/3 153/330/3 141/331/3
f 141/331/3 153/330/3 150/42/3 139/41/3
f 145/50/2 189/49/2 191/332/2 148/333/2
f 148/333/2 191/332/2 192/334/2 147/335/2
f 147/335/2 192/334/2 193/336/2 146/337/2
f 146/337/2 193/336/2 190/56/2 144/55/2
f 170/93/9 129/92/9 131/338/80 173/339/80
f 173/339/80 131/338/80 132/340/81 172/341/81
f 172/341/81 132/340/81 133/342/82 171/343/82
f 171/343/82 133/342/82 130/307/6 169/306/6
f 200/88/7 174/87/7 176/344/7 203/345/7
f 203/345/7 176/344/7 177/346/7 202/347/7
f 202/347/7 177/346/7 178/348/7 201/349/7
f 201/349/7 178/348/7 175/304/7 199/303/7
f 205/311/2 164/310/2 166/350/2 208/351/2
f 208/351/2 166/350/2 167/352/2 207/353/2
f 207/353/2 167/352/2 168/354/2 206/355/2
f 206/355/2 168/354/2 165/125/2 204/124/2
f 155/133/3 194/132/3 196/356/3 158/357/3
f 158/357/3 196/356/3 197/358/3 157/359/3
f 157/359/3 197/358/3 198/360/3 156/361/3
f 156/361/3 198/360/3 195/315/3 154/314/3
f 185/323/2 134/322/2 136/362/2 188/363/2
f 188/363/2 136/362/2 137/364/2 187/365/2
f 187/365/2 137/364/2 138/366/2 186/367/2
f 186/367/2 138/366/2 135/11/2 184/10/2
f 160/320/3 179/319/3 181/368/3 163/369/3
f 163/369/3 181/368/3 182/370/3 162/371/3
f 162/371/3 182/370/3 183/372/3 161/373/3
f 161/373/3 183/372/3 180/14/3 159/13/3
f 149/274/9 190/273/9 193/374/80 151/375/80
f 151/375/80 193/374/80 192/376/81 152/377/81
f 152/377/81 192/376/81 191/378/82 153/379/82
f 153/379/82 191/378/82 189/46/6 150/45/6
f 144/270/7 140/269/7 143/380/7 146/381/7
f 146/381/7 143/380/7 142/382/7 147/383/7
f 147/383/7 142/382/7 141/384/7 148/385/7
f 148/385/7 141/384/7 139/287/7 145/286/7
f 199/280/3 170/279/3 173/386/3 201/387/3
f 201/387/3 173/386/3 172/388/3 202/389/3
f 202/389/3 172/388/3 171/390/3 203/391/3
f 203/391/3 171/390/3 169/84/3 200/83/3
f 174/392/2 130/393/2 133/394/2 176/395/2
f 176/395/2 133/394/2 132/396/2 177/397/2
f 177/397/2 132/396/2 131/398/2 178/399/2
f 178/399/2 131/398/2 129/277/2 175/276/2
f 194/3/1 165/2/1 168/400/1 196/401/1
f 196/401/1 168/400/1 167/402/1 197/403/1
f 197/403/1 167/402/1 166/404/1 198/405/1
f 198/405/1 166/404/1 164/120/1 195/119/1
f 154/128/10 205/127/10 208/406/83 156/407/83
f 156/407/83 208/406/83 207/408/84 157/409/84
f 157/409/84 207/408/84 206/410/85 158/411/85
f 158/411/85 206/410/85 204/296/79 155/295/79
f 159/283/75 185/282/75 188/412/86 161/413/86
f 161/413/86 188/412/86 187/414/87 162/415/87
f 162/415/87 187/414/87 186/416/88 163/417/88
f 163/417/88 186/416/88 184/292/77 160/291/77
f 179/81/1 135/80/1 138/418/1 181/419/1
f 181/419/1 138/418/1 137/420/1 182/421/1
f 182/421/1 137/420/1 136/422/1 183/423/1
f 183/423/1 136/422/1 134/6/1 180/5/1
f 130/393/2 174/392/2 38/424/2 34/101/2
