# Blender v3.0.0 OBJ File: 'Environment_Arch.blend'
# www.blender.org
mtllib Environment_Arch.mtl
o Environment_Arch_Cylinder.019
v 3.069865 4.374393 0.275527
v 3.069865 4.374393 -0.275527
v 3.010879 4.988758 0.275527
v 3.010879 4.988758 -0.275527
v 2.836185 5.579514 0.275527
v 2.836185 5.579513 -0.275527
v 2.552499 6.123957 0.275527
v 2.552499 6.123956 -0.275527
v 2.170721 6.601166 0.275527
v 2.170721 6.601165 -0.275527
v 1.705524 6.992801 0.275527
v 1.705524 6.992801 -0.275527
v 1.174784 7.283812 0.275527
v 1.174784 7.283812 -0.275527
v 0.598897 7.463016 0.275527
v 0.598897 7.463015 -0.275527
v -0.000005 7.523525 0.275527
v -0.000005 7.523525 -0.275527
v -0.598907 7.463015 0.275527
v -0.598907 7.463015 -0.275527
v -1.174793 7.283812 0.275527
v -1.174793 7.283811 -0.275527
v -1.705533 6.992799 0.275527
v -1.705533 6.992799 -0.275527
v -2.170730 6.601164 0.275527
v -2.170730 6.601164 -0.275527
v -2.552508 6.123955 0.275527
v -2.552508 6.123955 -0.275527
v -2.836194 5.579512 0.275527
v -2.836194 5.579511 -0.275527
v -3.010886 4.988756 0.275527
v -3.010886 4.988755 -0.275527
v -3.069873 4.374390 0.275527
v -3.069873 4.374390 -0.275527
v 2.633031 4.370080 0.286848
v 2.633031 4.370079 -0.286848
v 2.579769 4.938670 0.286848
v 2.579769 4.938670 -0.286848
v 2.430096 5.432096 0.286848
v 2.430096 5.432095 -0.286848
v 2.187030 5.886841 0.286848
v 2.187030 5.886841 -0.286848
v 1.859917 6.285436 0.286848
v 1.859917 6.285435 -0.286848
v 1.461323 6.612548 0.286848
v 1.461323 6.612548 -0.286848
v 1.006577 6.855615 0.286848
v 1.006577 6.855615 -0.286848
v 0.513152 7.005288 0.286848
v 0.513152 7.005287 -0.286848
v -0.000005 7.055821 0.286848
v -0.000005 7.055821 -0.286848
v -0.513162 7.005287 0.286848
v -0.513162 7.005287 -0.286848
v -1.006587 6.855614 0.286848
v -1.006587 6.855613 -0.286848
v -1.461332 6.612547 0.286848
v -1.461332 6.612547 -0.286848
v -1.859926 6.285434 0.286848
v -1.859926 6.285434 -0.286848
v -2.187039 5.886839 0.286848
v -2.187039 5.886839 -0.286848
v -2.430105 5.432094 0.286848
v -2.430105 5.432093 -0.286848
v -2.579777 4.938668 0.286848
v -2.579777 4.938668 -0.286848
v -2.633039 4.370077 0.286848
v -2.633039 4.370076 -0.286848
v 3.069865 0.002158 -0.275527
v 3.069865 0.002158 0.275527
v -3.069873 0.002155 -0.275527
v -3.069873 0.002155 0.275527
v 2.633031 -0.002156 -0.286848
v 2.633031 -0.002155 0.286848
v -2.633039 -0.002159 -0.286848
v -2.633039 -0.002159 0.286848
vt 0.218280 0.971591
vt 0.218322 0.971591
vt 0.218322 0.971637
vt 0.218280 0.971637
vt 0.218322 0.971682
vt 0.218280 0.971682
vt 0.218322 0.971724
vt 0.218280 0.971724
vt 0.218322 0.971760
vt 0.218280 0.971760
vt 0.217405 0.971657
vt 0.217364 0.971657
vt 0.217364 0.971619
vt 0.217405 0.971619
vt 0.217364 0.971577
vt 0.217405 0.971577
vt 0.217364 0.971532
vt 0.217405 0.971532
vt 0.217364 0.971487
vt 0.217405 0.971487
vt 0.217364 0.971442
vt 0.217405 0.971442
vt 0.217364 0.971400
vt 0.217405 0.971400
vt 0.217364 0.971362
vt 0.217405 0.971362
vt 0.217364 0.971330
vt 0.217405 0.971330
vt 0.218322 0.971260
vt 0.218280 0.971260
vt 0.218280 0.971223
vt 0.218322 0.971223
vt 0.218280 0.971182
vt 0.218322 0.971182
vt 0.218280 0.971138
vt 0.218322 0.971138
vt 0.218280 0.971091
vt 0.218322 0.971091
vt 0.218322 0.971382
vt 0.218322 0.971338
vt 0.218364 0.971338
vt 0.218364 0.971382
vt 0.218322 0.971301
vt 0.218364 0.971301
vt 0.218322 0.971267
vt 0.218364 0.971267
vt 0.218322 0.971236
vt 0.218364 0.971236
vt 0.217405 0.971612
vt 0.217405 0.971582
vt 0.217448 0.971582
vt 0.217448 0.971612
vt 0.217405 0.971547
vt 0.217448 0.971547
vt 0.217405 0.971510
vt 0.217448 0.971510
vt 0.217405 0.971471
vt 0.217448 0.971471
vt 0.217405 0.971432
vt 0.217448 0.971432
vt 0.217405 0.971395
vt 0.217448 0.971395
vt 0.217405 0.971360
vt 0.217448 0.971360
vt 0.217405 0.971330
vt 0.217448 0.971330
vt 0.218364 0.970760
vt 0.218364 0.970790
vt 0.218322 0.970790
vt 0.218322 0.970760
vt 0.218364 0.970824
vt 0.218322 0.970824
vt 0.218364 0.970862
vt 0.218322 0.970862
vt 0.218364 0.970905
vt 0.218322 0.970905
vt 0.217822 0.971091
vt 0.217790 0.971091
vt 0.217790 0.970760
vt 0.217822 0.970760
vt 0.218280 0.971091
vt 0.218276 0.971138
vt 0.218244 0.971134
vt 0.218248 0.971091
vt 0.217369 0.971138
vt 0.217364 0.971091
vt 0.217397 0.971091
vt 0.217401 0.971134
vt 0.218263 0.971183
vt 0.218233 0.971171
vt 0.217382 0.971183
vt 0.217412 0.971171
vt 0.218242 0.971224
vt 0.218215 0.971206
vt 0.217403 0.971224
vt 0.217430 0.971206
vt 0.218213 0.971260
vt 0.218190 0.971236
vt 0.217431 0.971260
vt 0.217455 0.971236
vt 0.218179 0.971290
vt 0.218160 0.971261
vt 0.217466 0.971290
vt 0.217484 0.971261
vt 0.218139 0.971312
vt 0.218126 0.971279
vt 0.217506 0.971312
vt 0.217518 0.971279
vt 0.218096 0.971325
vt 0.218090 0.971291
vt 0.217549 0.971325
vt 0.217555 0.971291
vt 0.218051 0.971330
vt 0.218051 0.971295
vt 0.217593 0.971330
vt 0.217593 0.971295
vt 0.218007 0.971325
vt 0.218013 0.971291
vt 0.217638 0.971325
vt 0.217632 0.971291
vt 0.217964 0.971312
vt 0.217976 0.971279
vt 0.217681 0.971312
vt 0.217668 0.971279
vt 0.217924 0.971290
vt 0.217942 0.971261
vt 0.217721 0.971290
vt 0.217702 0.971261
vt 0.217889 0.971260
vt 0.217913 0.971236
vt 0.217755 0.971260
vt 0.217732 0.971236
vt 0.217861 0.971224
vt 0.217888 0.971206
vt 0.217784 0.971224
vt 0.217756 0.971206
vt 0.217840 0.971183
vt 0.217870 0.971171
vt 0.217805 0.971183
vt 0.217775 0.971171
vt 0.217827 0.971138
vt 0.217859 0.971134
vt 0.217818 0.971138
vt 0.217786 0.971134
vt 0.217822 0.971091
vt 0.217855 0.971091
vt 0.218364 0.971713
vt 0.218322 0.971713
vt 0.217481 0.971373
vt 0.217481 0.971331
vt 0.217513 0.971330
vt 0.217513 0.971373
vt 0.217448 0.971373
vt 0.217448 0.971331
vt 0.217481 0.971330
vt 0.217481 0.971373
vt 0.218248 0.970760
vt 0.218280 0.970760
vt 0.218280 0.970760
vt 0.218322 0.970760
vt 0.217364 0.970760
vt 0.217397 0.970760
vt 0.218280 0.971260
vt 0.218322 0.971260
vt 0.217822 0.970760
vt 0.217855 0.970760
vt 0.218364 0.971236
vt 0.218322 0.971236
vn 0.9989 0.0478 -0.0000
vn 0.9817 0.1904 -0.0000
vn 0.9272 0.3746 -0.0000
vn 0.8378 0.5460 -0.0000
vn 0.7159 0.6982 -0.0000
vn 0.5652 0.8250 -0.0000
vn 0.3909 0.9204 0.0000
vn 0.1998 0.9798 0.0000
vn -0.0000 1.0000 0.0000
vn -0.1998 0.9798 -0.0000
vn -0.3909 0.9204 -0.0000
vn -0.5652 0.8250 -0.0000
vn -0.7159 0.6982 0.0000
vn -0.8378 0.5460 0.0000
vn -0.9272 0.3746 -0.0000
vn -0.9817 0.1904 -0.0000
vn -0.9989 0.0478 -0.0000
vn -0.9989 -0.0467 0.0000
vn -0.9812 -0.1927 0.0000
vn -0.9239 -0.3827 0.0000
vn -0.8315 -0.5556 0.0000
vn -0.7071 -0.7071 0.0000
vn -0.5556 -0.8315 0.0000
vn -0.3827 -0.9239 0.0000
vn -0.1951 -0.9808 0.0000
vn 0.0000 -1.0000 0.0000
vn 0.1951 -0.9808 0.0000
vn 0.3827 -0.9239 0.0000
vn 0.5556 -0.8315 0.0000
vn 0.7071 -0.7071 0.0000
vn 0.8315 -0.5556 0.0000
vn 0.9239 -0.3827 0.0000
vn 0.9812 -0.1927 0.0000
vn 0.9989 -0.0467 0.0000
vn -0.0259 0.0012 -0.9997
vn -0.0259 0.0013 -0.9997
vn -0.0259 0.0000 -0.9997
vn 0.0259 0.0012 0.9997
vn 0.0256 0.0049 0.9997
vn 0.0256 0.0051 0.9997
vn 0.0259 0.0013 0.9997
vn 0.0256 0.0049 -0.9997
vn 0.0259 0.0012 -0.9997
vn 0.0259 0.0013 -0.9997
vn 0.0256 0.0051 -0.9997
vn 0.0243 0.0098 0.9997
vn 0.0242 0.0100 0.9997
vn 0.0243 0.0098 -0.9997
vn 0.0242 0.0100 -0.9997
vn 0.0217 0.0143 0.9997
vn 0.0217 0.0143 -0.9997
vn 0.0182 0.0179 0.9997
vn 0.0182 0.0179 -0.9997
vn 0.0140 0.0208 0.9997
vn 0.0141 0.0207 0.9997
vn 0.0140 0.0208 -0.9997
vn 0.0141 0.0207 -0.9997
vn 0.0095 0.0227 0.9997
vn 0.0096 0.0227 0.9997
vn 0.0095 0.0227 -0.9997
vn 0.0096 0.0227 -0.9997
vn 0.0048 0.0239 0.9997
vn 0.0048 0.0239 -0.9997
vn -0.0000 0.0242 0.9997
vn -0.0000 0.0242 -0.9997
vn -0.0048 0.0239 0.9997
vn -0.0048 0.0239 -0.9997
vn -0.0095 0.0227 0.9997
vn -0.0096 0.0227 0.9997
vn -0.0095 0.0227 -0.9997
vn -0.0096 0.0227 -0.9997
vn -0.0140 0.0208 0.9997
vn -0.0141 0.0207 0.9997
vn -0.0140 0.0208 -0.9997
vn -0.0141 0.0207 -0.9997
vn -0.0182 0.0179 0.9997
vn -0.0182 0.0179 -0.9997
vn -0.0217 0.0143 0.9997
vn -0.0217 0.0143 -0.9997
vn -0.0243 0.0098 0.9997
vn -0.0242 0.0100 0.9997
vn -0.0243 0.0098 -0.9997
vn -0.0242 0.0100 -0.9997
vn -0.0256 0.0049 0.9997
vn -0.0256 0.0051 0.9997
vn -0.0256 0.0049 -0.9997
vn -0.0256 0.0051 -0.9997
vn -0.0259 0.0012 0.9997
vn -0.0259 0.0013 0.9997
vn -1.0000 0.0000 0.0000
vn 0.0099 -1.0000 0.0000
vn -0.0099 -1.0000 0.0000
vn 0.0259 0.0000 0.9997
vn 0.0259 0.0000 -0.9997
vn 1.0000 0.0000 0.0000
vn -0.0259 0.0000 0.9997
usemtl Atlas
s 1
f 1/1/1 2/2/1 4/3/2 3/4/2
f 3/4/2 4/3/2 6/5/3 5/6/3
f 5/6/3 6/5/3 8/7/4 7/8/4
f 7/8/4 8/7/4 10/9/5 9/10/5
f 9/11/5 10/12/5 12/13/6 11/14/6
f 11/14/6 12/13/6 14/15/7 13/16/7
f 13/16/7 14/15/7 16/17/8 15/18/8
f 15/18/8 16/17/8 18/19/9 17/20/9
f 17/20/9 18/19/9 20/21/10 19/22/10
f 19/22/10 20/21/10 22/23/11 21/24/11
f 21/24/11 22/23/11 24/25/12 23/26/12
f 23/26/12 24/25/12 26/27/13 25/28/13
f 25/29/13 26/30/13 28/31/14 27/32/14
f 27/32/14 28/31/14 30/33/15 29/34/15
f 29/34/15 30/33/15 32/35/16 31/36/16
f 31/36/16 32/35/16 34/37/17 33/38/17
f 35/39/18 37/40/19 38/41/19 36/42/18
f 37/40/19 39/43/20 40/44/20 38/41/19
f 39/43/20 41/45/21 42/46/21 40/44/20
f 41/45/21 43/47/22 44/48/22 42/46/21
f 43/49/22 45/50/23 46/51/23 44/52/22
f 45/50/23 47/53/24 48/54/24 46/51/23
f 47/53/24 49/55/25 50/56/25 48/54/24
f 49/55/25 51/57/26 52/58/26 50/56/25
f 51/57/26 53/59/27 54/60/27 52/58/26
f 53/59/27 55/61/28 56/62/28 54/60/27
f 55/61/28 57/63/29 58/64/29 56/62/28
f 57/63/29 59/65/30 60/66/30 58/64/29
f 59/67/30 61/68/31 62/69/31 60/70/30
f 61/68/31 63/71/32 64/72/32 62/69/31
f 63/71/32 65/73/33 66/74/33 64/72/32
f 65/73/33 67/75/34 68/76/34 66/74/33
f 34/77/35 68/78/36 75/79/37 71/80/37
f 1/81/38 3/82/39 37/83/40 35/84/41
f 4/85/42 2/86/43 36/87/44 38/88/45
f 3/82/39 5/89/46 39/90/47 37/83/40
f 6/91/48 4/85/42 38/88/45 40/92/49
f 5/89/46 7/93/50 41/94/50 39/90/47
f 8/95/51 6/91/48 40/92/49 42/96/51
f 7/93/50 9/97/52 43/98/52 41/94/50
f 10/99/53 8/95/51 42/96/51 44/100/53
f 9/97/52 11/101/54 45/102/55 43/98/52
f 12/103/56 10/99/53 44/100/53 46/104/57
f 11/101/54 13/105/58 47/106/59 45/102/55
f 14/107/60 12/103/56 46/104/57 48/108/61
f 13/105/58 15/109/62 49/110/62 47/106/59
f 16/111/63 14/107/60 48/108/61 50/112/63
f 15/109/62 17/113/64 51/114/64 49/110/62
f 18/115/65 16/111/63 50/112/63 52/116/65
f 17/113/64 19/117/66 53/118/66 51/114/64
f 20/119/67 18/115/65 52/116/65 54/120/67
f 19/117/66 21/121/68 55/122/69 53/118/66
f 22/123/70 20/119/67 54/120/67 56/124/71
f 21/121/68 23/125/72 57/126/73 55/122/69
f 24/127/74 22/123/70 56/124/71 58/128/75
f 23/125/72 25/129/76 59/130/76 57/126/73
f 26/131/77 24/127/74 58/128/75 60/132/77
f 25/129/76 27/133/78 61/134/78 59/130/76
f 28/135/79 26/131/77 60/132/77 62/136/79
f 27/133/78 29/137/80 63/138/81 61/134/78
f 30/139/82 28/135/79 62/136/79 64/140/83
f 29/137/80 31/141/84 65/142/85 63/138/81
f 32/143/86 30/139/82 64/140/83 66/144/87
f 31/141/84 33/145/88 67/146/89 65/142/85
f 34/77/35 32/143/86 66/144/87 68/78/36
f 35/39/18 36/42/18 73/147/90 74/148/90
f 69/149/91 70/150/91 74/151/91 73/152/91
f 72/153/92 71/154/92 75/155/92 76/156/92
f 1/81/38 35/84/41 74/157/93 70/158/93
f 33/38/17 34/37/17 71/159/90 72/160/90
f 36/87/44 2/86/43 69/161/94 73/162/94
f 2/2/1 1/1/1 70/163/95 69/164/95
f 67/146/89 33/145/88 72/165/96 76/166/96
f 68/76/34 67/75/34 76/167/95 75/168/95
