# Blender v3.0.0 OBJ File: 'Environment_ToriiGate.blend'
# www.blender.org
mtllib Environment_ToriiGate.mtl
o Environment_ToriiGate_CUBezierCurve.002
v 1.791387 0.000001 0.530485
v 1.791386 4.925198 0.129530
v 1.346616 0.000001 0.530485
v 1.346615 4.925198 0.129530
v 1.791387 0.000001 -0.315239
v 1.791386 4.925198 -0.315240
v 1.346617 0.000000 -0.315240
v 1.346616 4.925198 -0.315241
v 1.346617 1.194705 -0.315240
v 1.346617 0.419505 -0.315240
v 1.346617 1.000905 -0.315240
v 1.346617 0.807105 -0.315240
v 1.346617 0.613305 -0.315240
v 1.791386 1.194705 0.129530
v 1.791386 0.419505 0.318964
v 1.791386 1.013224 0.143950
v 1.791386 0.802176 0.185014
v 1.791386 0.593689 0.246471
v 1.791387 0.419505 -0.315239
v 1.791387 1.194705 -0.315240
v 1.791387 0.613305 -0.315239
v 1.791387 0.807105 -0.315239
v 1.791387 1.000905 -0.315240
v 1.346616 0.419505 0.318964
v 1.346616 1.194705 0.129530
v 1.346616 0.593689 0.246471
v 1.346616 0.802176 0.185014
v 1.346616 1.013224 0.143950
v 2.351492 3.982500 0.089749
v 2.351492 3.982500 -0.264387
v 2.351491 3.607025 0.089750
v 2.351492 3.607024 -0.264387
v 2.863293 5.320749 0.175962
v 2.863293 5.320749 -0.345041
v 2.601649 4.696632 0.175963
v 2.601649 4.696631 -0.345040
v 1.001301 5.320748 -0.345041
v 1.001301 4.696630 -0.345041
v 1.001301 4.696632 0.175963
v 1.001301 5.320748 0.175962
v 0.767423 5.320748 0.175962
v 0.767423 5.320748 -0.345041
v 0.767423 4.939756 -0.345041
v 0.767423 4.939757 0.175963
v -1.791387 0.000000 0.530485
v -1.791388 4.925197 0.129530
v -1.346616 0.000000 0.530485
v -1.346617 4.925197 0.129530
v -1.791387 -0.000000 -0.315239
v -1.791388 4.925197 -0.315240
v -1.346617 -0.000000 -0.315240
v -1.346618 4.925197 -0.315241
v -1.346617 1.194705 -0.315240
v -1.346617 0.419505 -0.315240
v -1.346617 1.000905 -0.315240
v -1.346617 0.807104 -0.315240
v -1.346617 0.613304 -0.315240
v -1.791387 1.194705 0.129530
v -1.791387 0.419504 0.318964
v -1.791387 1.013224 0.143950
v -1.791387 0.802175 0.185014
v -1.791387 0.593688 0.246471
v -1.791387 0.419504 -0.315239
v -1.791387 1.194705 -0.315239
v -1.791387 0.613304 -0.315239
v -1.791387 0.807104 -0.315239
v -1.791387 1.000904 -0.315239
v -1.346617 0.419505 0.318964
v -1.346617 1.194705 0.129530
v -1.346617 0.593689 0.246471
v -1.346617 0.802175 0.185014
v -1.346617 1.013224 0.143950
v -2.351493 3.982499 0.089749
v -2.351493 3.982499 -0.264387
v -2.351493 3.607024 0.089750
v -2.351493 3.607023 -0.264387
v -0.000001 3.982499 -0.264387
v -0.000001 3.607024 -0.264387
v -0.000001 3.607024 0.089749
v -0.000001 3.982499 0.089749
v -2.863295 5.320748 0.175962
v -2.863295 5.320748 -0.345040
v -2.601650 4.696631 0.175963
v -2.601651 4.696630 -0.345040
v -0.000001 5.320748 -0.345041
v -0.000001 4.939756 -0.345041
v -0.000001 4.939757 0.175962
v -0.000001 5.320748 0.175962
v -1.001303 5.320748 -0.345041
v -1.001303 4.696630 -0.345041
v -1.001303 4.696632 0.175963
v -1.001303 5.320748 0.175962
v -0.767425 5.320748 0.175962
v -0.767425 5.320748 -0.345041
v -0.767425 4.939756 -0.345041
v -0.767425 4.939757 0.175963
v 2.460686 4.994222 0.087861
v 2.460686 4.994222 -0.256940
v 0.860508 4.994222 -0.256940
v 0.860508 4.994222 0.087861
v 0.659516 4.994222 0.087861
v 0.659516 4.994222 -0.256940
v -2.460688 4.994221 0.087861
v -2.460688 4.994221 -0.256939
v -0.000001 4.994222 -0.256940
v -0.000001 4.994222 0.087861
v -0.860510 4.994222 -0.256940
v -0.860510 4.994222 0.087861
v -0.659518 4.994222 0.087861
v -0.659518 4.994222 -0.256940
v 2.460686 4.476077 -0.256940
v 2.460686 4.476077 0.087861
v 0.860508 4.476077 -0.256940
v 0.659516 4.476077 0.087861
v -0.000001 4.476077 0.087861
v -0.000001 4.476077 -0.256940
v 0.659516 4.476077 -0.256940
v 0.860508 4.476077 0.087861
v -2.460688 4.476076 -0.256939
v -2.460688 4.476076 0.087861
v -0.860510 4.476077 -0.256940
v -0.659518 4.476077 0.087861
v -0.659518 4.476077 -0.256940
v -0.860510 4.476077 0.087861
v 0.138580 3.826098 0.058600
v 0.138580 3.826098 -0.233238
v -0.170842 3.826098 0.058600
v -0.170842 3.826098 -0.233237
v 0.138580 4.605692 -0.233238
v 0.138580 4.605692 0.058600
v -0.170842 4.605692 -0.233237
v -0.170842 4.605691 0.058600
vt 0.027782 0.967176
vt 0.027829 0.967176
vt 0.027829 0.967572
vt 0.027782 0.967572
vt 0.027120 0.967572
vt 0.027142 0.967528
vt 0.027210 0.967528
vt 0.027210 0.967572
vt 0.027257 0.967445
vt 0.027210 0.967445
vt 0.027210 0.967049
vt 0.027257 0.967049
vt 0.027577 0.967662
vt 0.027577 0.967572
vt 0.027625 0.967572
vt 0.027625 0.967662
vt 0.027390 0.967705
vt 0.027390 0.967658
vt 0.027437 0.967658
vt 0.027437 0.967705
vt 0.027829 0.967049
vt 0.027829 0.967093
vt 0.027782 0.967093
vt 0.027782 0.967049
vt 0.027687 0.967180
vt 0.027735 0.967180
vt 0.027735 0.967574
vt 0.027687 0.967574
vt 0.027735 0.967049
vt 0.027735 0.967095
vt 0.027687 0.967095
vt 0.027687 0.967049
vt 0.027210 0.967572
vt 0.027210 0.967528
vt 0.027277 0.967528
vt 0.027300 0.967572
vt 0.027210 0.967445
vt 0.027162 0.967445
vt 0.027162 0.967049
vt 0.027210 0.967049
vt 0.027210 0.967466
vt 0.027161 0.967465
vt 0.027210 0.967487
vt 0.027156 0.967487
vt 0.027210 0.967507
vt 0.027150 0.967509
vt 0.027210 0.967507
vt 0.027269 0.967509
vt 0.027210 0.967487
vt 0.027263 0.967487
vt 0.027210 0.967466
vt 0.027258 0.967465
vt 0.027687 0.967160
vt 0.027735 0.967160
vt 0.027687 0.967137
vt 0.027735 0.967137
vt 0.027687 0.967115
vt 0.027735 0.967115
vt 0.027829 0.967114
vt 0.027782 0.967114
vt 0.027829 0.967135
vt 0.027782 0.967135
vt 0.027829 0.967155
vt 0.027782 0.967155
vt 0.027956 0.968049
vt 0.027919 0.968049
vt 0.027919 0.967799
vt 0.027956 0.967799
vt 0.027877 0.967049
vt 0.027917 0.967049
vt 0.027917 0.967299
vt 0.027877 0.967299
vt 0.027877 0.967549
vt 0.027914 0.967549
vt 0.027914 0.967799
vt 0.027877 0.967799
vt 0.027917 0.967049
vt 0.027956 0.967049
vt 0.027956 0.967299
vt 0.027917 0.967299
vt 0.027577 0.967435
vt 0.027522 0.967435
vt 0.027522 0.967353
vt 0.027577 0.967353
vt 0.027415 0.967435
vt 0.027415 0.967353
vt 0.027140 0.967572
vt 0.027196 0.967572
vt 0.027196 0.967654
vt 0.027140 0.967654
vt 0.027496 0.967435
vt 0.027456 0.967435
vt 0.027456 0.967353
vt 0.027496 0.967353
vt 0.027300 0.967706
vt 0.027244 0.967706
vt 0.027244 0.967639
vt 0.027300 0.967639
vt 0.027522 0.967630
vt 0.027456 0.967658
vt 0.027456 0.967460
vt 0.027522 0.967460
vt 0.027085 0.967572
vt 0.027140 0.967572
vt 0.027140 0.967742
vt 0.027085 0.967742
vt 0.027456 0.967658
vt 0.027390 0.967630
vt 0.027390 0.967460
vt 0.027456 0.967460
vt 0.027577 0.967658
vt 0.027577 0.967460
vt 0.027656 0.967629
vt 0.027656 0.967685
vt 0.027630 0.967685
vt 0.027630 0.967629
vt 0.027829 0.967445
vt 0.027829 0.967049
vt 0.027877 0.967049
vt 0.027877 0.967445
vt 0.027120 0.967572
vt 0.027030 0.967572
vt 0.027030 0.967528
vt 0.027097 0.967528
vt 0.027342 0.967445
vt 0.027342 0.967049
vt 0.027390 0.967049
vt 0.027390 0.967445
vt 0.027300 0.967572
vt 0.027347 0.967572
vt 0.027347 0.967662
vt 0.027300 0.967662
vt 0.027197 0.967655
vt 0.027244 0.967655
vt 0.027244 0.967702
vt 0.027197 0.967702
vt 0.027877 0.967572
vt 0.027829 0.967572
vt 0.027829 0.967528
vt 0.027877 0.967528
vt 0.027782 0.967180
vt 0.027782 0.967574
vt 0.027735 0.967574
vt 0.027735 0.967180
vt 0.027735 0.967049
vt 0.027782 0.967049
vt 0.027782 0.967095
vt 0.027735 0.967095
vt 0.027390 0.967572
vt 0.027322 0.967528
vt 0.027390 0.967528
vt 0.027030 0.967445
vt 0.027030 0.967049
vt 0.027077 0.967049
vt 0.027077 0.967445
vt 0.027079 0.967465
vt 0.027030 0.967466
vt 0.027083 0.967487
vt 0.027030 0.967487
vt 0.027089 0.967509
vt 0.027030 0.967507
vt 0.027330 0.967509
vt 0.027390 0.967507
vt 0.027336 0.967487
vt 0.027390 0.967487
vt 0.027341 0.967465
vt 0.027390 0.967466
vt 0.027735 0.967160
vt 0.027782 0.967160
vt 0.027735 0.967137
vt 0.027782 0.967137
vt 0.027735 0.967115
vt 0.027782 0.967115
vt 0.027829 0.967507
vt 0.027877 0.967507
vt 0.027829 0.967487
vt 0.027877 0.967487
vt 0.027829 0.967466
vt 0.027877 0.967466
vt 0.027956 0.967549
vt 0.027919 0.967549
vt 0.027917 0.967549
vt 0.027877 0.968049
vt 0.027914 0.968049
vt 0.027917 0.967549
vt 0.027577 0.967272
vt 0.027522 0.967272
vt 0.027415 0.967272
vt 0.027140 0.967735
vt 0.027196 0.967735
vt 0.027496 0.967272
vt 0.027456 0.967272
vt 0.027244 0.967639
vt 0.027244 0.967572
vt 0.027300 0.967572
vt 0.027300 0.967639
vt 0.027522 0.967077
vt 0.027522 0.967247
vt 0.027456 0.967247
vt 0.027456 0.967049
vt 0.027085 0.967572
vt 0.027085 0.967742
vt 0.027030 0.967742
vt 0.027030 0.967572
vt 0.027456 0.967049
vt 0.027456 0.967247
vt 0.027390 0.967247
vt 0.027390 0.967077
vt 0.027577 0.967049
vt 0.027577 0.967247
vt 0.027630 0.967574
vt 0.027656 0.967574
vt 0.027656 0.967629
vt 0.027630 0.967629
vt 0.028030 0.967381
vt 0.027993 0.967381
vt 0.027993 0.967310
vt 0.028030 0.967310
vt 0.028030 0.967572
vt 0.027993 0.967572
vt 0.027993 0.967402
vt 0.028030 0.967402
vt 0.028030 0.967240
vt 0.027993 0.967240
vt 0.028030 0.967049
vt 0.028030 0.967219
vt 0.027993 0.967219
vt 0.027993 0.967049
vt 0.027956 0.967381
vt 0.027956 0.967310
vt 0.027993 0.967310
vt 0.027993 0.967381
vt 0.027956 0.967572
vt 0.027956 0.967402
vt 0.027993 0.967402
vt 0.027993 0.967572
vt 0.027956 0.967240
vt 0.027993 0.967240
vt 0.027956 0.967049
vt 0.027993 0.967049
vt 0.027993 0.967219
vt 0.027956 0.967219
vt 0.027577 0.967240
vt 0.027633 0.967240
vt 0.027633 0.967310
vt 0.027577 0.967310
vt 0.027577 0.967049
vt 0.027633 0.967049
vt 0.027633 0.967219
vt 0.027577 0.967219
vt 0.027687 0.967402
vt 0.027633 0.967402
vt 0.027633 0.967381
vt 0.027687 0.967381
vt 0.027687 0.967310
vt 0.027633 0.967310
vt 0.027633 0.967240
vt 0.027687 0.967240
vt 0.027633 0.967381
vt 0.027577 0.967381
vt 0.027522 0.967713
vt 0.027522 0.967658
vt 0.027559 0.967658
vt 0.027559 0.967713
vt 0.027577 0.967402
vt 0.027633 0.967402
vt 0.027633 0.967572
vt 0.027577 0.967572
vt 0.027687 0.967219
vt 0.027633 0.967219
vt 0.027633 0.967049
vt 0.027687 0.967049
vt 0.027687 0.967572
vt 0.027633 0.967572
vt 0.027390 0.967655
vt 0.027390 0.967710
vt 0.027353 0.967710
vt 0.027353 0.967655
vt 0.027447 0.967698
vt 0.027447 0.967658
vt 0.027484 0.967658
vt 0.027484 0.967698
vt 0.027484 0.967658
vt 0.027522 0.967658
vt 0.027522 0.967698
vt 0.027484 0.967698
vt 0.027211 0.967572
vt 0.027244 0.967572
vt 0.027244 0.967655
vt 0.027211 0.967655
vt 0.027656 0.967574
vt 0.027687 0.967574
vt 0.027687 0.967657
vt 0.027656 0.967657
vt 0.027718 0.967657
vt 0.027687 0.967657
vt 0.027687 0.967574
vt 0.027718 0.967574
vt 0.027390 0.967655
vt 0.027357 0.967655
vt 0.027357 0.967572
vt 0.027390 0.967572
vn 0.0000 -0.0000 -1.0000
vn -1.0000 -0.0000 -0.0000
vn 1.0000 0.0000 0.0000
vn 0.0000 -1.0000 0.0000
vn 0.0000 1.0000 0.0000
vn -0.0000 0.0396 0.9992
vn 0.0000 0.0000 1.0000
vn -0.0000 0.4502 0.8929
vn -0.0000 0.4175 0.9087
vn 0.0000 0.1353 0.9908
vn -0.0000 0.2371 0.9715
vn -0.0000 0.3340 0.9426
vn 0.9222 -0.3866 0.0000
vn -0.7207 -0.6933 0.0000
vn -0.9222 -0.3866 0.0000
vn 0.7207 -0.6933 0.0000
usemtl Atlas
s 1
f 20/1/1 9/2/1 8/3/1 6/4/1
f 3/5/2 24/6/2 10/7/2 7/8/2
f 14/9/3 20/10/3 6/11/3 2/12/3
f 3/13/4 7/14/4 5/15/4 1/16/4
f 8/17/5 4/18/5 2/19/5 6/20/5
f 7/21/1 10/22/1 19/23/1 5/24/1
f 25/25/6 14/26/6 2/27/7 4/28/7
f 1/29/8 15/30/9 24/31/9 3/32/8
f 5/33/3 19/34/3 15/35/3 1/36/3
f 9/37/2 25/38/2 4/39/2 8/40/2
f 25/38/2 9/37/2 11/41/2 28/42/2
f 28/42/2 11/41/2 12/43/2 27/44/2
f 27/44/2 12/43/2 13/45/2 26/46/2
f 26/46/2 13/45/2 10/7/2 24/6/2
f 15/35/3 19/34/3 21/47/3 18/48/3
f 18/48/3 21/47/3 22/49/3 17/50/3
f 17/50/3 22/49/3 23/51/3 16/52/3
f 16/52/3 23/51/3 20/10/3 14/9/3
f 14/26/6 25/25/6 28/53/10 16/54/10
f 16/54/10 28/53/10 27/55/11 17/56/11
f 17/56/11 27/55/11 26/57/12 18/58/12
f 18/58/12 26/57/12 24/31/9 15/30/9
f 19/23/1 10/22/1 13/59/1 21/60/1
f 21/60/1 13/59/1 12/61/1 22/62/1
f 22/62/1 12/61/1 11/63/1 23/64/1
f 23/64/1 11/63/1 9/2/1 20/1/1
f 29/65/5 30/66/5 77/67/5 80/68/5
f 30/69/1 32/70/1 78/71/1 77/72/1
f 32/73/4 31/74/4 79/75/4 78/76/4
f 31/77/7 29/78/7 80/79/7 79/80/7
f 41/81/5 42/82/5 85/83/5 88/84/5
f 42/82/1 43/85/1 86/86/1 85/83/1
f 43/87/4 44/88/4 87/89/4 86/90/4
f 44/91/7 41/92/7 88/93/7 87/94/7
f 34/95/13 33/96/13 35/97/13 36/98/13
f 35/99/7 33/100/7 40/101/7 39/102/7
f 36/103/4 35/104/4 39/105/4 38/106/4
f 34/107/1 36/108/1 38/109/1 37/110/1
f 33/111/5 34/107/5 37/110/5 40/112/5
f 39/102/7 40/101/7 41/92/7 44/91/7
f 38/113/14 39/114/14 44/115/14 43/116/14
f 37/110/1 38/109/1 43/85/1 42/82/1
f 40/112/5 37/110/5 42/82/5 41/81/5
f 64/117/1 50/118/1 52/119/1 53/120/1
f 47/121/3 51/122/3 54/123/3 68/124/3
f 58/125/2 46/126/2 50/127/2 64/128/2
f 47/129/4 45/130/4 49/131/4 51/132/4
f 52/133/5 50/134/5 46/135/5 48/136/5
f 51/137/1 49/138/1 63/139/1 54/140/1
f 69/141/6 48/142/7 46/143/7 58/144/6
f 45/145/8 47/146/8 68/147/9 59/148/9
f 49/149/2 45/130/2 59/150/2 63/151/2
f 53/152/3 52/153/3 48/154/3 69/155/3
f 69/155/3 72/156/3 55/157/3 53/152/3
f 72/156/3 71/158/3 56/159/3 55/157/3
f 71/158/3 70/160/3 57/161/3 56/159/3
f 70/160/3 68/124/3 54/123/3 57/161/3
f 59/150/2 62/162/2 65/163/2 63/151/2
f 62/162/2 61/164/2 66/165/2 65/163/2
f 61/164/2 60/166/2 67/167/2 66/165/2
f 60/166/2 58/125/2 64/128/2 67/167/2
f 58/144/6 60/168/10 72/169/10 69/141/6
f 60/168/10 61/170/11 71/171/11 72/169/10
f 61/170/11 62/172/12 70/173/12 71/171/11
f 62/172/12 59/148/9 68/147/9 70/173/12
f 63/139/1 65/174/1 57/175/1 54/140/1
f 65/174/1 66/176/1 56/177/1 57/175/1
f 66/176/1 67/178/1 55/179/1 56/177/1
f 67/178/1 64/117/1 53/120/1 55/179/1
f 73/180/5 80/68/5 77/67/5 74/181/5
f 74/181/1 77/72/1 78/71/1 76/182/1
f 76/183/4 78/76/4 79/75/4 75/184/4
f 75/185/7 79/80/7 80/79/7 73/180/7
f 93/186/5 88/84/5 85/83/5 94/187/5
f 94/187/1 85/83/1 86/86/1 95/188/1
f 95/189/4 86/90/4 87/89/4 96/190/4
f 96/191/7 87/94/7 88/93/7 93/192/7
f 82/193/15 84/194/15 83/195/15 81/196/15
f 83/197/7 91/198/7 92/199/7 81/200/7
f 84/201/4 90/202/4 91/203/4 83/204/4
f 82/205/1 89/206/1 90/207/1 84/208/1
f 81/209/5 92/210/5 89/206/5 82/205/5
f 91/198/7 96/191/7 93/192/7 92/199/7
f 90/211/16 95/212/16 96/213/16 91/214/16
f 89/206/1 94/187/1 95/188/1 90/207/1
f 92/210/5 93/186/5 94/187/5 89/206/5
f 101/215/5 102/216/5 105/217/5 106/218/5
f 97/219/5 98/220/5 99/221/5 100/222/5
f 100/222/5 99/221/5 102/216/5 101/215/5
f 109/223/5 106/218/5 105/217/5 110/224/5
f 103/225/5 108/226/5 107/227/5 104/228/5
f 108/226/5 109/223/5 110/224/5 107/227/5
f 114/229/4 115/230/4 116/231/4 117/232/4
f 112/233/4 118/234/4 113/235/4 111/236/4
f 118/234/4 114/229/4 117/232/4 113/235/4
f 122/237/4 123/238/4 116/231/4 115/230/4
f 120/239/4 119/240/4 121/241/4 124/242/4
f 124/242/4 121/241/4 123/238/4 122/237/4
f 102/243/1 117/244/1 116/245/1 105/246/1
f 98/247/1 111/248/1 113/249/1 99/250/1
f 108/251/7 124/252/7 122/253/7 109/254/7
f 106/255/7 115/256/7 114/257/7 101/258/7
f 105/246/1 116/245/1 123/259/1 110/260/1
f 104/261/2 119/262/2 120/263/2 103/264/2
f 107/265/1 121/266/1 119/267/1 104/268/1
f 99/250/1 113/249/1 117/244/1 102/243/1
f 109/254/7 122/253/7 115/256/7 106/255/7
f 100/269/7 118/270/7 112/271/7 97/272/7
f 110/260/1 123/259/1 121/266/1 107/265/1
f 103/273/7 120/274/7 124/252/7 108/251/7
f 101/258/7 114/257/7 118/270/7 100/269/7
f 97/275/3 112/276/3 111/277/3 98/278/3
f 74/279/2 76/280/2 75/281/2 73/282/2
f 30/283/3 29/284/3 31/285/3 32/286/3
f 126/287/1 128/288/1 131/289/1 129/290/1
f 128/291/2 127/292/2 132/293/2 131/294/2
f 125/295/3 126/296/3 129/297/3 130/298/3
f 127/299/7 125/300/7 130/301/7 132/302/7
