# Blender v3.0.0 OBJ File: 'Environment_WoodenBeam.blend'
# www.blender.org
mtllib Environment_WoodenBeam.mtl
o Environment_WoodenBeam_Cube.182
v -0.187168 -0.009280 0.187168
v -0.187168 5.141158 0.187168
v -0.187168 -0.009280 -0.187168
v -0.187168 5.141158 -0.187168
v 0.187168 -0.009280 0.187168
v 0.187168 5.141158 0.187168
v 0.187168 -0.009280 -0.187168
v 0.187168 5.141158 -0.187168
vt 0.214264 0.967109
vt 0.214264 0.966109
vt 0.214464 0.966109
vt 0.214464 0.967109
vt 0.214664 0.966109
vt 0.214664 0.967109
vt 0.214464 0.967109
vt 0.214464 0.966109
vt 0.215064 0.966109
vt 0.215064 0.967109
vt 0.214864 0.967109
vt 0.214864 0.966109
vt 0.214664 0.967109
vt 0.214664 0.966109
vt 0.214864 0.966109
vt 0.214864 0.967109
vt 0.215064 0.966254
vt 0.215064 0.966182
vt 0.215264 0.966182
vt 0.215264 0.966254
vt 0.215264 0.966109
vt 0.215264 0.966182
vt 0.215064 0.966182
vt 0.215064 0.966109
vn -1.0000 0.0000 0.0000
vn 0.0000 0.0000 -1.0000
vn 1.0000 0.0000 0.0000
vn 0.0000 0.0000 1.0000
vn 0.0000 -1.0000 0.0000
vn 0.0000 1.0000 0.0000
usemtl Atlas
s off
f 1/1/1 2/2/1 4/3/1 3/4/1
f 3/5/2 4/6/2 8/7/2 7/8/2
f 7/9/3 8/10/3 6/11/3 5/12/3
f 5/13/4 6/14/4 2/15/4 1/16/4
f 3/17/5 7/18/5 5/19/5 1/20/5
f 8/21/6 4/22/6 2/23/6 6/24/6
