# Blender v3.0.0 OBJ File: 'Environment_Cabinet_Shelves.blend'
# www.blender.org
mtllib Environment_Cabinet_Shelves.mtl
o Environment_Cabinet_Shelves_Cube.256
v 1.900000 0.605705 0.882915
v 1.900000 0.554661 0.818192
v 1.900000 0.569612 0.863958
v 1.900000 0.554661 -0.818192
v 1.900000 0.605705 -0.882915
v 1.900000 0.569612 -0.863958
v 1.900000 0.699671 0.818192
v 1.900000 0.648627 0.882915
v 1.900000 0.684721 0.863958
v 1.900000 0.648627 -0.882915
v 1.900000 0.699671 -0.818192
v 1.900000 0.684721 -0.863958
v 2.000000 0.569612 0.863958
v 2.000000 0.605705 0.882915
v 2.000000 0.554661 0.818192
v 2.000000 0.569612 -0.863958
v 2.000000 0.554661 -0.818192
v 2.000000 0.605705 -0.882915
v 2.000000 0.684721 0.863958
v 2.000000 0.699671 0.818192
v 2.000000 0.648627 0.882915
v 2.000000 0.684721 -0.863958
v 2.000000 0.648627 -0.882915
v 2.000000 0.699671 -0.818192
v -1.900000 0.605705 0.882915
v -1.900000 0.554661 0.818192
v -1.900000 0.569612 0.863958
v -1.900000 0.554661 -0.818192
v -1.900000 0.605705 -0.882915
v -1.900000 0.569612 -0.863958
v -1.900000 0.699671 0.818192
v -1.900000 0.648627 0.882915
v -1.900000 0.684721 0.863958
v -1.900000 0.648627 -0.882915
v -1.900000 0.699671 -0.818192
v -1.900000 0.684721 -0.863958
v -2.000000 0.569612 0.863958
v -2.000000 0.605705 0.882915
v -2.000000 0.554661 0.818192
v -2.000000 0.569612 -0.863958
v -2.000000 0.554661 -0.818192
v -2.000000 0.605705 -0.882915
v -2.000000 0.684721 0.863958
v -2.000000 0.699671 0.818192
v -2.000000 0.648627 0.882915
v -2.000000 0.684721 -0.863958
v -2.000000 0.648627 -0.882915
v -2.000000 0.699671 -0.818192
v -0.000000 0.605705 -0.882915
v -0.000000 0.554661 -0.818192
v -0.000000 0.569612 -0.863958
v 0.000000 0.554661 0.818192
v 0.000000 0.605705 0.882915
v 0.000000 0.569612 0.863958
v -0.000000 0.699671 -0.818192
v -0.000000 0.648627 -0.882915
v -0.000000 0.684721 -0.863958
v 0.000000 0.648627 0.882915
v 0.000000 0.699671 0.818192
v 0.000000 0.684721 0.863958
v 1.900000 -0.605705 0.882915
v 1.900000 -0.554661 0.818192
v 1.900000 -0.569612 0.863958
v 1.900000 -0.554661 -0.818192
v 1.900000 -0.605705 -0.882915
v 1.900000 -0.569612 -0.863958
v 1.900000 -0.699671 0.818192
v 1.900000 -0.648627 0.882915
v 1.900000 -0.684721 0.863958
v 1.900000 -0.648627 -0.882915
v 1.900000 -0.699671 -0.818192
v 1.900000 -0.684721 -0.863958
v 2.000000 -0.569612 0.863958
v 2.000000 -0.605705 0.882915
v 2.000000 -0.554661 0.818192
v 2.000000 -0.569612 -0.863958
v 2.000000 -0.554661 -0.818192
v 2.000000 -0.605705 -0.882915
v 2.000000 -0.684721 0.863958
v 2.000000 -0.699671 0.818192
v 2.000000 -0.648627 0.882915
v 2.000000 -0.684721 -0.863958
v 2.000000 -0.648627 -0.882915
v 2.000000 -0.699671 -0.818192
v 2.000000 0.000000 -0.818192
v 2.000000 0.000000 0.818192
v 2.000000 0.000000 0.863958
v 1.900000 0.000000 -0.818192
v 2.000000 0.000000 -0.863958
v 2.000000 0.000000 0.882915
v 1.900000 0.000000 0.882915
v 1.900000 0.000000 -0.863958
v 1.900000 0.000000 0.818192
v 1.900000 0.000000 0.863958
v 2.000000 0.000000 -0.882915
v 1.900000 0.000000 -0.882915
v -1.900000 -0.605705 0.882915
v -1.900000 -0.554661 0.818192
v -1.900000 -0.569612 0.863958
v -1.900000 -0.554661 -0.818192
v -1.900000 -0.605705 -0.882915
v -1.900000 -0.569612 -0.863958
v -1.900000 -0.699671 0.818192
v -1.900000 -0.648627 0.882915
v -1.900000 -0.684721 0.863958
v -1.900000 -0.648627 -0.882915
v -1.900000 -0.699671 -0.818192
v -1.900000 -0.684721 -0.863958
v -2.000000 -0.569612 0.863958
v -2.000000 -0.605705 0.882915
v -2.000000 -0.554661 0.818192
v -2.000000 -0.569612 -0.863958
v -2.000000 -0.554661 -0.818192
v -2.000000 -0.605705 -0.882915
v -2.000000 -0.684721 0.863958
v -2.000000 -0.699671 0.818192
v -2.000000 -0.648627 0.882915
v -2.000000 -0.684721 -0.863958
v -2.000000 -0.648627 -0.882915
v -2.000000 -0.699671 -0.818192
v -0.000000 -0.605705 -0.882915
v -0.000000 -0.554661 -0.818192
v -0.000000 -0.569612 -0.863958
v 0.000000 -0.554661 0.818192
v 0.000000 -0.605705 0.882915
v 0.000000 -0.569612 0.863958
v -0.000000 -0.699671 -0.818192
v -0.000000 -0.648627 -0.882915
v -0.000000 -0.684721 -0.863958
v 0.000000 -0.648627 0.882915
v 0.000000 -0.699671 0.818192
v 0.000000 -0.684721 0.863958
v -2.000000 0.000000 -0.818192
v -2.000000 0.000000 0.818192
v -2.000000 0.000000 0.863958
v -1.900000 0.000000 -0.818192
v -2.000000 0.000000 -0.863958
v -2.000000 0.000000 0.882915
v -1.900000 0.000000 0.882915
v -1.900000 0.000000 -0.863958
v -1.900000 0.000000 0.818192
v -1.900000 0.000000 0.863958
v -2.000000 0.000000 -0.882915
v -1.900000 0.000000 -0.882915
v 0.000000 0.042072 0.835655
v 0.000000 0.057022 0.791388
v 0.000000 0.005978 0.853991
v -0.000000 0.042072 -0.835655
v -0.000000 0.005978 -0.853991
v -0.000000 0.057022 -0.791388
v 0.000000 -0.073037 0.835655
v 0.000000 -0.036944 0.853991
v 0.000000 -0.087988 0.791388
v -0.000000 -0.073037 -0.835655
v -0.000000 -0.087988 -0.791388
v -0.000000 -0.036944 -0.853991
v -1.952253 0.042072 -0.835655
v -1.952253 0.057022 -0.791388
v -1.952253 0.005978 -0.853991
v -1.952253 0.042072 0.835655
v -1.952253 0.005978 0.853991
v -1.952253 0.057022 0.791388
v -1.952253 -0.073037 -0.835655
v -1.952253 -0.036944 -0.853991
v -1.952253 -0.087988 -0.791388
v -1.952253 -0.073037 0.835655
v -1.952253 -0.087988 0.791388
v -1.952253 -0.036944 0.853991
v 1.952253 0.042072 -0.835655
v 1.952253 0.057022 -0.791388
v 1.952253 0.005978 -0.853991
v 1.952253 0.042072 0.835655
v 1.952253 0.005978 0.853991
v 1.952253 0.057022 0.791388
v 1.952253 -0.073037 -0.835655
v 1.952253 -0.036944 -0.853991
v 1.952253 -0.087988 -0.791388
v 1.952253 -0.073037 0.835655
v 1.952253 -0.087988 0.791388
v 1.952253 -0.036944 0.853991
vt 0.027425 0.969219
vt 0.027425 0.969406
vt 0.027422 0.969406
vt 0.027422 0.969219
vt 0.027184 0.969396
vt 0.027415 0.969396
vt 0.027415 0.969583
vt 0.027184 0.969583
vt 0.027564 0.969209
vt 0.027567 0.969212
vt 0.027569 0.969219
vt 0.027569 0.969453
vt 0.027567 0.969459
vt 0.027564 0.969462
vt 0.027559 0.969462
vt 0.027556 0.969459
vt 0.027554 0.969453
vt 0.027554 0.969219
vt 0.027556 0.969212
vt 0.027559 0.969209
vt 0.027422 0.969209
vt 0.027425 0.969209
vt 0.026697 0.969593
vt 0.026928 0.969593
vt 0.026928 0.969603
vt 0.026697 0.969603
vt 0.027422 0.969986
vt 0.027425 0.969986
vt 0.027425 0.969996
vt 0.027422 0.969996
vt 0.026690 0.969593
vt 0.026690 0.969603
vt 0.027429 0.969986
vt 0.027429 0.969996
vt 0.027429 0.969219
vt 0.027429 0.969209
vt 0.026934 0.969593
vt 0.026934 0.969603
vt 0.026934 0.969406
vt 0.026928 0.969406
vt 0.027422 0.969396
vt 0.027422 0.969583
vt 0.027433 0.969799
vt 0.027433 0.969986
vt 0.027429 0.969799
vt 0.027425 0.969799
vt 0.026697 0.969406
vt 0.027429 0.969406
vt 0.027433 0.969219
vt 0.027622 0.969459
vt 0.027622 0.969462
vt 0.027488 0.969986
vt 0.027488 0.969996
vt 0.027668 0.969712
vt 0.027672 0.969715
vt 0.027613 0.969715
vt 0.027613 0.969712
vt 0.027488 0.969209
vt 0.027488 0.969219
vt 0.027668 0.969465
vt 0.027667 0.969471
vt 0.027613 0.969471
vt 0.027613 0.969465
vt 0.027667 0.969706
vt 0.027613 0.969706
vt 0.027622 0.969209
vt 0.027622 0.969212
vt 0.027622 0.969219
vt 0.027622 0.969453
vt 0.027672 0.969462
vt 0.027613 0.969462
vt 0.026690 0.969406
vt 0.027178 0.969583
vt 0.027178 0.969396
vt 0.027422 0.969799
vt 0.027425 0.969593
vt 0.027422 0.969593
vt 0.027184 0.969209
vt 0.027415 0.969209
vt 0.027187 0.970209
vt 0.027183 0.970209
vt 0.027179 0.970207
vt 0.027178 0.970200
vt 0.027178 0.969966
vt 0.027179 0.969959
vt 0.027183 0.969957
vt 0.027187 0.969957
vt 0.027190 0.969959
vt 0.027192 0.969966
vt 0.027192 0.970200
vt 0.027190 0.970207
vt 0.027425 0.969603
vt 0.027422 0.969603
vt 0.026697 0.969219
vt 0.026697 0.969209
vt 0.026928 0.969209
vt 0.026928 0.969219
vt 0.027422 0.969613
vt 0.027422 0.969603
vt 0.027425 0.969603
vt 0.027425 0.969613
vt 0.026690 0.969219
vt 0.026690 0.969209
vt 0.027429 0.969603
vt 0.027429 0.969613
vt 0.027429 0.969593
vt 0.027429 0.969603
vt 0.026934 0.969209
vt 0.026934 0.969219
vt 0.027422 0.969209
vt 0.027433 0.969613
vt 0.027433 0.969593
vt 0.027246 0.969957
vt 0.027246 0.969959
vt 0.027488 0.969603
vt 0.027488 0.969613
vt 0.027668 0.969718
vt 0.027613 0.969718
vt 0.027613 0.969715
vt 0.027672 0.969715
vt 0.027488 0.969593
vt 0.027488 0.969603
vt 0.027668 0.969965
vt 0.027613 0.969965
vt 0.027613 0.969958
vt 0.027667 0.969958
vt 0.027613 0.969724
vt 0.027667 0.969724
vt 0.027246 0.970207
vt 0.027246 0.970209
vt 0.027246 0.970200
vt 0.027246 0.969966
vt 0.027672 0.969968
vt 0.027613 0.969968
vt 0.027178 0.969209
vt 0.027551 0.969219
vt 0.027554 0.969219
vt 0.027554 0.969406
vt 0.027551 0.969406
vt 0.027415 0.969770
vt 0.027415 0.969957
vt 0.027184 0.969957
vt 0.027184 0.969770
vt 0.027681 0.969209
vt 0.027685 0.969209
vt 0.027689 0.969212
vt 0.027690 0.969219
vt 0.027690 0.969453
vt 0.027689 0.969459
vt 0.027685 0.969462
vt 0.027681 0.969462
vt 0.027678 0.969459
vt 0.027676 0.969453
vt 0.027676 0.969219
vt 0.027678 0.969212
vt 0.027551 0.969209
vt 0.027554 0.969209
vt 0.026940 0.969219
vt 0.026940 0.969209
vt 0.027171 0.969209
vt 0.027171 0.969219
vt 0.027554 0.969986
vt 0.027554 0.969996
vt 0.027551 0.969996
vt 0.027551 0.969986
vt 0.026934 0.969219
vt 0.026934 0.969209
vt 0.027547 0.969996
vt 0.027547 0.969986
vt 0.027547 0.969219
vt 0.027547 0.969209
vt 0.027178 0.969209
vt 0.027178 0.969219
vt 0.027178 0.969406
vt 0.027171 0.969406
vt 0.027178 0.969770
vt 0.027178 0.969957
vt 0.027543 0.969799
vt 0.027547 0.969799
vt 0.027543 0.969986
vt 0.027551 0.969799
vt 0.026940 0.969406
vt 0.027547 0.969406
vt 0.027543 0.969406
vt 0.027543 0.969219
vt 0.027558 0.969712
vt 0.027554 0.969715
vt 0.027558 0.969465
vt 0.027559 0.969471
vt 0.027559 0.969706
vt 0.027554 0.969462
vt 0.026934 0.969406
vt 0.027422 0.969957
vt 0.027422 0.969770
vt 0.027554 0.969799
vt 0.027551 0.969593
vt 0.027554 0.969593
vt 0.027184 0.969583
vt 0.027415 0.969583
vt 0.027304 0.970209
vt 0.027301 0.970207
vt 0.027299 0.970200
vt 0.027299 0.969966
vt 0.027301 0.969959
vt 0.027304 0.969957
vt 0.027309 0.969957
vt 0.027312 0.969959
vt 0.027314 0.969966
vt 0.027314 0.970200
vt 0.027312 0.970207
vt 0.027309 0.970209
vt 0.027554 0.969603
vt 0.027551 0.969603
vt 0.026940 0.969593
vt 0.027171 0.969593
vt 0.027171 0.969603
vt 0.026940 0.969603
vt 0.027554 0.969613
vt 0.027551 0.969613
vt 0.027551 0.969603
vt 0.027554 0.969603
vt 0.026934 0.969593
vt 0.026934 0.969603
vt 0.027547 0.969613
vt 0.027547 0.969603
vt 0.027547 0.969593
vt 0.027547 0.969603
vt 0.027178 0.969593
vt 0.027178 0.969603
vt 0.027178 0.969583
vt 0.027543 0.969613
vt 0.027543 0.969593
vt 0.027558 0.969718
vt 0.027554 0.969715
vt 0.027558 0.969965
vt 0.027559 0.969958
vt 0.027559 0.969724
vt 0.027554 0.969968
vt 0.027422 0.969583
vt 0.027170 0.969987
vt 0.027165 0.969987
vt 0.027165 0.969795
vt 0.027170 0.969795
vt 0.027162 0.969987
vt 0.027156 0.969987
vt 0.027156 0.969795
vt 0.027162 0.969795
vt 0.027173 0.969795
vt 0.027173 0.969987
vt 0.027162 0.969987
vt 0.027162 0.969795
vt 0.027675 0.969654
vt 0.027675 0.969846
vt 0.027672 0.969846
vt 0.027672 0.969654
vt 0.027170 0.969603
vt 0.027165 0.969603
vt 0.027680 0.969654
vt 0.027675 0.969462
vt 0.027680 0.969462
vt 0.026696 0.969795
vt 0.026696 0.969603
vt 0.026920 0.969603
vt 0.026920 0.969795
vt 0.027683 0.969654
vt 0.027683 0.969462
vt 0.026932 0.969987
vt 0.026932 0.969795
vt 0.027672 0.969462
vt 0.026926 0.969795
vt 0.026926 0.969987
vt 0.026690 0.969603
vt 0.026690 0.969795
vt 0.026926 0.969795
vt 0.026926 0.969603
vt 0.026690 0.969987
vt 0.026696 0.969987
vt 0.027683 0.969846
vt 0.027680 0.969846
vt 0.026932 0.969603
vt 0.027156 0.969603
vt 0.027162 0.969603
vt 0.026926 0.969987
vt 0.026920 0.969987
vt 0.027173 0.969603
vt 0.026926 0.969603
vt 0.027162 0.969603
vn 0.0000 0.2395 -0.9709
vn -0.0000 0.4650 -0.8853
vn 0.0000 -0.9876 0.1572
vn -0.0000 -0.9876 -0.1572
vn 1.0000 -0.0000 0.0000
vn 0.0000 0.9876 -0.1572
vn -0.0000 0.9876 0.1572
vn -0.0000 0.4650 0.8853
vn -0.0000 0.2395 0.9709
vn 0.0000 0.9506 -0.3105
vn -0.0000 -0.1188 0.9929
vn 0.0000 0.0000 1.0000
vn 0.0000 -0.1188 -0.9929
vn 0.0000 0.0000 -1.0000
vn -0.0000 0.9506 0.3105
vn -0.0000 -0.7639 -0.6453
vn 0.0000 -0.7639 0.6453
vn 0.0000 -0.2395 0.9709
vn -0.0000 -0.2395 -0.9709
vn -1.0000 0.0000 0.0000
vn 0.0000 -0.4650 -0.8853
vn -0.0000 -0.4650 0.8853
vn 0.0000 -0.9506 -0.3105
vn -0.0000 0.1188 0.9929
vn 0.0000 0.1188 -0.9929
vn 0.0000 -0.9506 0.3105
vn -0.0000 0.7639 -0.6453
vn 0.0000 0.7639 0.6453
vn -0.0000 -0.2329 -0.9725
vn -0.0000 0.2329 -0.9725
vn 0.0000 -0.7562 0.6543
vn 0.0000 -0.9868 0.1621
vn -0.0000 -0.7562 -0.6543
vn -0.0000 0.4529 -0.8916
vn 0.0000 0.2329 0.9725
vn -0.0000 0.4529 0.8916
vn 0.0000 -0.2329 0.9725
vn -0.0000 0.9868 -0.1621
vn 0.0000 0.9868 0.1621
vn -0.0000 -0.9868 -0.1621
vn -0.0000 0.9474 -0.3200
vn 0.0000 0.9474 0.3200
usemtl Atlas
s 1
f 10/1/1 56/2/1 57/3/2 12/4/2
f 52/5/3 50/6/4 4/7/4 2/8/3
f 14/9/5 13/10/5 15/11/5 17/12/5 16/13/5 18/14/5 23/15/5 22/16/5 24/17/5 20/18/5 19/19/5 21/20/5
f 10/1/1 12/4/2 22/21/2 23/22/1
f 11/23/6 7/24/7 20/25/7 24/26/6
f 9/27/8 8/28/9 21/29/9 19/30/8
f 12/31/10 11/23/6 24/26/6 22/32/10
f 8/28/9 1/33/11 14/34/12 21/29/9
f 5/35/13 10/1/1 23/22/1 18/36/14
f 7/24/7 9/37/15 19/38/15 20/25/7
f 60/39/15 9/37/15 7/24/7 59/40/7
f 51/41/16 6/42/16 4/7/4 50/6/4
f 54/43/17 3/44/17 1/33/11 53/45/18
f 53/45/18 1/33/11 8/28/9 58/46/9
f 55/47/6 59/40/7 7/24/7 11/23/6
f 49/48/19 5/35/13 6/49/16 51/41/16
f 18/14/5 16/13/5 89/50/5 95/51/5
f 14/34/12 1/33/11 91/52/12 90/53/12
f 6/54/20 5/55/20 96/56/20 92/57/20
f 5/35/13 18/36/14 95/58/14 96/59/14
f 3/60/20 2/61/20 93/62/20 94/63/20
f 2/61/20 4/64/20 88/65/20 93/62/20
f 13/10/5 14/9/5 90/66/5 87/67/5
f 15/11/5 13/10/5 87/67/5 86/68/5
f 17/12/5 15/11/5 86/68/5 85/69/5
f 1/70/20 3/60/20 94/63/20 91/71/20
f 4/64/20 6/54/20 92/57/20 88/65/20
f 16/13/5 17/12/5 85/69/5 89/50/5
f 12/31/10 57/72/10 55/47/6 11/23/6
f 3/73/17 54/74/17 52/5/3 2/8/3
f 5/35/13 49/48/19 56/2/1 10/1/1
f 58/46/9 8/28/9 9/27/8 60/75/8
f 34/76/1 36/77/2 57/3/2 56/2/1
f 52/5/3 26/78/3 28/79/4 50/6/4
f 38/80/20 45/81/20 43/82/20 44/83/20 48/84/20 46/85/20 47/86/20 42/87/20 40/88/20 41/89/20 39/90/20 37/91/20
f 34/76/1 47/92/1 46/93/2 36/77/2
f 35/94/6 48/95/6 44/96/7 31/97/7
f 33/98/8 43/99/8 45/100/9 32/101/9
f 36/102/10 46/103/10 48/95/6 35/94/6
f 32/101/9 45/100/9 38/104/12 25/105/11
f 29/106/13 42/107/14 47/92/1 34/76/1
f 31/97/7 44/96/7 43/108/15 33/109/15
f 60/39/15 59/40/7 31/97/7 33/109/15
f 51/41/16 50/6/4 28/79/4 30/110/16
f 54/43/17 53/45/18 25/105/11 27/111/17
f 53/45/18 58/46/9 32/101/9 25/105/11
f 55/47/6 35/94/6 31/97/7 59/40/7
f 49/48/19 51/41/16 30/112/16 29/106/13
f 42/87/20 143/113/20 137/114/20 40/88/20
f 38/104/12 138/115/12 139/116/12 25/105/11
f 30/117/5 140/118/5 144/119/5 29/120/5
f 29/106/13 144/121/14 143/122/14 42/107/14
f 27/123/5 142/124/5 141/125/5 26/126/5
f 26/126/5 141/125/5 136/127/5 28/128/5
f 37/91/20 135/129/20 138/130/20 38/80/20
f 39/90/20 134/131/20 135/129/20 37/91/20
f 41/89/20 133/132/20 134/131/20 39/90/20
f 25/133/5 139/134/5 142/124/5 27/123/5
f 28/128/5 136/127/5 140/118/5 30/117/5
f 40/88/20 137/114/20 133/132/20 41/89/20
f 36/102/10 35/94/6 55/47/6 57/72/10
f 27/135/17 26/78/3 52/5/3 54/74/17
f 29/106/13 34/76/1 56/2/1 49/48/19
f 58/46/9 60/75/8 33/98/8 32/101/9
f 70/136/19 72/137/21 129/138/21 128/139/19
f 124/140/7 62/141/7 64/142/6 122/143/6
f 74/144/5 81/145/5 79/146/5 80/147/5 84/148/5 82/149/5 83/150/5 78/151/5 76/152/5 77/153/5 75/154/5 73/155/5
f 70/136/19 83/156/19 82/157/21 72/137/21
f 71/158/4 84/159/4 80/160/3 67/161/3
f 69/162/22 79/163/22 81/164/18 68/165/18
f 72/166/23 82/167/23 84/159/4 71/158/4
f 68/165/18 81/164/18 74/168/12 61/169/24
f 65/170/25 78/171/14 83/156/19 70/136/19
f 67/161/3 80/160/3 79/172/26 69/173/26
f 132/174/26 131/175/3 67/161/3 69/173/26
f 123/176/27 122/143/6 64/142/6 66/177/27
f 126/178/28 125/179/9 61/169/24 63/180/28
f 125/179/9 130/181/18 68/165/18 61/169/24
f 127/182/4 71/158/4 67/161/3 131/175/3
f 121/183/1 123/184/27 66/185/27 65/170/25
f 78/151/5 95/51/5 89/50/5 76/152/5
f 74/168/12 90/53/12 91/52/12 61/169/24
f 66/186/20 92/57/20 96/56/20 65/187/20
f 65/170/25 96/59/14 95/58/14 78/171/14
f 63/188/20 94/63/20 93/62/20 62/189/20
f 62/189/20 93/62/20 88/65/20 64/190/20
f 73/155/5 87/67/5 90/66/5 74/144/5
f 75/154/5 86/68/5 87/67/5 73/155/5
f 77/153/5 85/69/5 86/68/5 75/154/5
f 61/191/20 91/71/20 94/63/20 63/188/20
f 64/190/20 88/65/20 92/57/20 66/186/20
f 76/152/5 89/50/5 85/69/5 77/153/5
f 72/166/23 71/158/4 127/182/4 129/192/23
f 63/193/28 62/141/7 124/140/7 126/194/28
f 65/170/25 70/136/19 128/139/19 121/183/1
f 130/181/18 132/195/22 69/162/22 68/165/18
f 106/196/19 128/139/19 129/138/21 108/197/21
f 124/140/7 122/143/6 100/198/6 98/199/7
f 110/200/20 109/201/20 111/202/20 113/203/20 112/204/20 114/205/20 119/206/20 118/207/20 120/208/20 116/209/20 115/210/20 117/211/20
f 106/196/19 108/197/21 118/212/21 119/213/19
f 107/214/4 103/215/3 116/216/3 120/217/4
f 105/218/22 104/219/18 117/220/18 115/221/22
f 108/222/23 107/214/4 120/217/4 118/223/23
f 104/219/18 97/224/24 110/225/12 117/220/18
f 101/226/25 106/196/19 119/213/19 114/227/14
f 103/215/3 105/228/26 115/229/26 116/216/3
f 132/174/26 105/228/26 103/215/3 131/175/3
f 123/176/27 102/230/27 100/198/6 122/143/6
f 126/178/28 99/231/28 97/224/24 125/179/9
f 125/179/9 97/224/24 104/219/18 130/181/18
f 127/182/4 131/175/3 103/215/3 107/214/4
f 121/183/1 101/226/25 102/232/27 123/184/27
f 114/205/20 112/204/20 137/114/20 143/113/20
f 110/225/12 97/224/24 139/116/12 138/115/12
f 102/233/5 101/234/5 144/119/5 140/118/5
f 101/226/25 114/227/14 143/122/14 144/121/14
f 99/235/5 98/236/5 141/125/5 142/124/5
f 98/236/5 100/237/5 136/127/5 141/125/5
f 109/201/20 110/200/20 138/130/20 135/129/20
f 111/202/20 109/201/20 135/129/20 134/131/20
f 113/203/20 111/202/20 134/131/20 133/132/20
f 97/238/5 99/235/5 142/124/5 139/134/5
f 100/237/5 102/233/5 140/118/5 136/127/5
f 112/204/20 113/203/20 133/132/20 137/114/20
f 108/222/23 129/192/23 127/182/4 107/214/4
f 99/239/28 126/194/28 124/140/7 98/199/7
f 101/226/25 121/183/1 128/139/19 106/196/19
f 130/181/18 104/219/18 105/218/22 132/195/22
f 164/240/29 159/241/30 149/242/30 156/243/29
f 166/244/31 167/245/32 153/246/32 151/247/31
f 156/243/29 154/248/33 163/249/33 164/240/29
f 159/241/30 157/250/34 148/251/34 149/242/30
f 147/252/35 173/253/35 172/254/36 145/255/36
f 176/256/29 156/243/29 149/242/30 171/257/30
f 152/258/37 147/252/35 161/259/35 168/260/37
f 150/261/38 158/262/38 162/263/39 146/264/39
f 151/265/31 152/258/37 168/260/37 166/266/31
f 153/246/32 167/245/32 165/267/40 155/268/40
f 147/252/35 145/255/36 160/269/36 161/259/35
f 154/270/33 155/268/40 165/267/40 163/271/33
f 157/272/41 158/262/38 150/261/38 148/273/41
f 145/274/42 146/264/39 162/263/39 160/275/42
f 169/276/41 148/273/41 150/261/38 170/277/38
f 151/265/31 178/278/31 180/279/37 152/258/37
f 153/246/32 155/268/40 177/280/40 179/281/32
f 171/257/30 149/242/30 148/251/34 169/282/34
f 145/274/42 172/283/42 174/284/39 146/264/39
f 156/243/29 176/256/29 175/285/33 154/248/33
f 154/270/33 175/286/33 177/280/40 155/268/40
f 152/258/37 180/279/37 173/253/35 147/252/35
f 150/261/38 146/264/39 174/284/39 170/277/38
f 178/287/31 151/247/31 153/246/32 179/281/32
