# Blender v3.0.0 OBJ File: 'Floor_Wood.blend'
# www.blender.org
mtllib Floor_Wood.mtl
o Floor_Wood_Cube.192
v -2.000000 -0.500000 2.000000
v -2.000000 0.000000 2.000000
v -2.000000 -0.500000 -2.000000
v -2.000000 0.000000 -2.000000
v 2.000000 -0.500000 2.000000
v 2.000000 0.000000 2.000000
v 2.000000 -0.500000 -2.000000
v 2.000000 0.000000 -2.000000
v 0.036942 -0.019376 -2.000000
v 1.963058 -0.019376 2.000000
v 1.963058 0.105147 2.000000
v 1.963058 0.105147 -2.000000
v -1.963058 0.105147 -2.000000
v -1.963058 0.105147 2.000000
v -1.296392 0.105147 2.000000
v -0.703608 0.105147 2.000000
v 0.036941 0.105147 2.000000
v 0.629725 0.105147 2.000000
v 1.370275 0.105147 2.000000
v 1.370275 0.105147 -2.000000
v 0.629725 0.105147 -2.000000
v 0.036942 0.105147 -2.000000
v -0.703608 0.105147 -2.000000
v -1.296392 0.105147 -2.000000
v -1.370275 0.105147 2.000000
v -0.036941 0.105147 2.000000
v -0.629725 0.105147 2.000000
v 0.703608 0.105147 2.000000
v 1.296392 0.105147 2.000000
v 1.296392 0.105147 -2.000000
v 0.703608 0.105147 -2.000000
v -0.629725 0.105147 -2.000000
v -0.036941 0.105147 -2.000000
v -1.370275 0.105147 -2.000000
v 0.629725 -0.019376 -2.000000
v 1.370275 -0.019376 -2.000000
v 1.963058 -0.019376 -2.000000
v -0.703608 -0.019376 2.000000
v -1.296392 -0.019376 2.000000
v 0.629725 -0.019376 2.000000
v 0.036941 -0.019376 2.000000
v 0.703608 -0.019376 -2.000000
v -0.629725 -0.019376 -2.000000
v 1.296392 -0.019376 2.000000
v 0.703608 -0.019376 2.000000
v -1.963058 -0.019376 -2.000000
v 1.370275 -0.019376 2.000000
v -1.296392 -0.019376 -2.000000
v -0.703608 -0.019376 -2.000000
v 1.296392 -0.019376 -2.000000
v -0.629725 -0.019376 2.000000
v -0.036941 -0.019376 2.000000
v -1.370275 -0.019376 2.000000
v -1.963058 -0.019376 2.000000
v -1.370275 -0.019376 -2.000000
v -0.036941 -0.019376 -2.000000
v -0.629725 0.105147 1.764163
v -0.629725 0.105147 0.926929
v -0.036941 0.105147 0.926929
v -0.036941 0.105147 1.764163
v -0.629725 -0.019376 0.926929
v -0.629725 -0.019376 1.764163
v -0.036941 -0.019376 1.764163
v -0.036941 -0.019376 0.926929
v 1.296392 0.105147 -0.634401
v 1.296392 0.105147 -1.428669
v 0.703608 0.105147 -1.428669
v 0.703608 0.105147 -0.634401
v 0.703608 -0.019376 -0.634401
v 0.703608 -0.019376 -1.428669
v 1.296392 -0.019376 -1.428669
v 1.296392 -0.019376 -0.634401
v -1.370275 0.105147 -0.050006
v -1.370275 0.105147 -0.955809
v -1.963058 0.105147 -0.955809
v -1.963058 0.105147 -0.050006
v -1.963058 -0.019376 -0.050006
v -1.963058 -0.019376 -0.955809
v -1.370275 -0.019376 -0.955809
v -1.370275 -0.019376 -0.050006
v -1.370275 0.060754 -0.825375
v -1.963058 0.105147 -0.651249
v -1.963058 -0.019376 -0.656172
v -1.370275 -0.019376 -0.825375
v -1.437124 0.105147 -0.815607
v -1.370275 0.050089 -0.720163
v -1.370275 0.054168 -0.442235
v -1.963058 0.105147 -0.550550
v -1.963058 0.105147 -0.272134
v -1.963058 -0.019376 -0.276241
v -1.963058 -0.019376 -0.554170
v -1.370275 -0.019376 -0.720163
v -1.370275 -0.019376 -0.442235
v -1.447040 0.105147 -0.431018
v -1.453184 0.105147 -0.708049
v -0.629725 0.076425 1.425556
v -0.629725 0.083796 1.211506
v -0.036941 0.105147 1.425556
v -0.036941 0.105147 1.211506
v -0.629725 -0.019376 1.425556
v -0.629725 -0.019376 1.211506
v -0.036941 -0.019376 1.211506
v -0.036941 -0.019376 1.425556
v -0.540430 0.105147 1.211506
v -0.523724 0.105147 1.425556
v 1.296392 0.083444 -1.317093
v 1.296392 0.068586 -1.005383
v 0.703608 0.105147 -1.317093
v 0.703608 0.105147 -1.005383
v 0.703608 -0.019376 -1.005383
v 0.703608 -0.019376 -1.317093
v 1.296392 -0.019376 -1.317093
v 1.296392 -0.019376 -1.005383
v 1.191465 0.105147 -1.005383
v 1.209955 0.105147 -1.317093
v -0.629725 0.105147 -1.130923
v -0.629725 0.105147 -1.205144
v -0.629725 -0.019376 -1.205144
v -0.629725 -0.019376 -1.130923
v -0.036941 0.105147 -1.205144
v -0.036941 0.105147 -1.130923
v -0.036941 -0.019376 -1.205144
v -0.036941 -0.019376 -1.130923
v -0.703608 0.105147 0.046119
v -0.703608 0.105147 -0.046119
v -1.296392 0.105147 -0.046119
v -1.296392 0.105147 0.046119
v -1.296392 -0.019376 0.046119
v -1.296392 -0.019376 -0.046119
v -0.703608 -0.019376 -0.046119
v -0.703608 -0.019376 0.046119
v 0.629725 0.105147 0.985273
v 0.629725 0.105147 0.890537
v 0.036942 0.105147 0.890537
v 0.036942 0.105147 0.985273
v 0.036942 -0.019376 0.985273
v 0.036942 -0.019376 0.890537
v 0.629725 -0.019376 0.890537
v 0.629725 -0.019376 0.985273
v 0.703608 -0.019376 -0.328585
v 0.703608 -0.019376 -0.404972
v 1.296392 -0.019376 -0.404972
v 1.296392 -0.019376 -0.328585
v 1.296392 0.105147 -0.404972
v 1.296392 0.105147 -0.328585
v 0.703608 0.105147 -0.328585
v 0.703608 0.105147 -0.404972
v 1.370275 0.105147 -0.038360
v 1.370275 0.105147 0.038360
v 1.963058 -0.019376 -0.038360
v 1.963058 -0.019376 0.038360
v 1.963058 0.105147 0.038360
v 1.963058 0.105147 -0.038360
v 1.370275 -0.019376 0.038360
v 1.370275 -0.019376 -0.038360
v -1.963058 -0.019376 0.979815
v -1.963058 -0.019376 1.060420
v -1.370275 -0.019376 1.060420
v -1.370275 -0.019376 0.979815
v -1.370275 0.105147 0.979815
v -1.370275 0.105147 1.060420
v -1.963058 0.105147 1.060420
v -1.963058 0.105147 0.979815
vt 0.028937 0.969183
vt 0.028880 0.969183
vt 0.028880 0.968731
vt 0.028937 0.968731
vt 0.028767 0.969183
vt 0.028711 0.969183
vt 0.028711 0.968731
vt 0.028767 0.968731
vt 0.028824 0.969183
vt 0.028767 0.969183
vt 0.028767 0.968731
vt 0.028824 0.968731
vt 0.028880 0.968731
vt 0.028824 0.969183
vt 0.028711 0.968731
vt 0.028711 0.968279
vt 0.029162 0.968279
vt 0.029162 0.968731
vt 0.028260 0.968731
vt 0.028260 0.968279
vt 0.028711 0.968279
vt 0.028711 0.968731
vt 0.093604 0.967721
vt 0.093604 0.967837
vt 0.093538 0.967837
vt 0.093538 0.967721
vt 0.093886 0.967854
vt 0.093886 0.967828
vt 0.093900 0.967828
vt 0.093900 0.967854
vt 0.093872 0.967854
vt 0.093886 0.967854
vt 0.093886 0.967969
vt 0.093872 0.967969
vt 0.094454 0.967270
vt 0.094468 0.967270
vt 0.094468 0.967492
vt 0.094454 0.967492
vt 0.094281 0.967985
vt 0.094214 0.967985
vt 0.094214 0.967764
vt 0.094281 0.967764
vt 0.093738 0.967501
vt 0.093738 0.967827
vt 0.093671 0.967827
vt 0.093671 0.967501
vt 0.093471 0.967969
vt 0.093471 0.967854
vt 0.093538 0.967854
vt 0.093538 0.967969
vt 0.093777 0.967827
vt 0.093791 0.967827
vt 0.093791 0.968048
vt 0.093777 0.968048
vt 0.094471 0.967721
vt 0.094457 0.967721
vt 0.094457 0.967501
vt 0.094471 0.967501
vt 0.094429 0.967827
vt 0.094443 0.967827
vt 0.094443 0.968049
vt 0.094429 0.968049
vt 0.094214 0.967764
vt 0.094214 0.967501
vt 0.094281 0.967501
vt 0.094281 0.967764
vt 0.093914 0.967619
vt 0.093900 0.967619
vt 0.093900 0.967501
vt 0.093914 0.967501
vt 0.093738 0.967981
vt 0.093738 0.968007
vt 0.093671 0.968007
vt 0.093671 0.967981
vt 0.093538 0.967527
vt 0.093471 0.967527
vt 0.093471 0.967501
vt 0.093538 0.967501
vt 0.094348 0.967721
vt 0.094348 0.967501
vt 0.094415 0.967501
vt 0.094415 0.967721
vt 0.094457 0.967721
vt 0.094471 0.967721
vt 0.094471 0.967827
vt 0.094457 0.967827
vt 0.094440 0.967375
vt 0.094454 0.967375
vt 0.094454 0.967481
vt 0.094440 0.967481
vt 0.093900 0.967992
vt 0.093914 0.967992
vt 0.093914 0.968017
vt 0.093900 0.968017
vt 0.094214 0.967828
vt 0.094214 0.967854
vt 0.094147 0.967854
vt 0.094147 0.967828
vt 0.094454 0.967375
vt 0.094440 0.967375
vt 0.094440 0.967049
vt 0.094454 0.967049
vt 0.093485 0.967969
vt 0.093499 0.967969
vt 0.093499 0.968036
vt 0.093485 0.968036
vt 0.093604 0.967837
vt 0.093671 0.967837
vt 0.093671 0.967952
vt 0.093604 0.967952
vt 0.093950 0.967952
vt 0.093964 0.967952
vt 0.093964 0.968019
vt 0.093950 0.968019
vt 0.093886 0.968036
vt 0.093872 0.968036
vt 0.093872 0.967969
vt 0.093886 0.967969
vt 0.094440 0.967490
vt 0.094373 0.967490
vt 0.094373 0.967269
vt 0.094440 0.967269
vt 0.093992 0.967952
vt 0.093992 0.968019
vt 0.093978 0.968019
vt 0.093978 0.967952
vt 0.093763 0.967827
vt 0.093777 0.967827
vt 0.093777 0.968048
vt 0.093763 0.968048
vt 0.094091 0.968019
vt 0.094077 0.968019
vt 0.094077 0.967952
vt 0.094091 0.967952
vt 0.094105 0.968019
vt 0.094091 0.968019
vt 0.094091 0.967952
vt 0.094105 0.967952
vt 0.094348 0.967721
vt 0.094415 0.967721
vt 0.094415 0.967942
vt 0.094348 0.967942
vt 0.093900 0.967837
vt 0.093914 0.967837
vt 0.093914 0.967902
vt 0.093900 0.967902
vt 0.094281 0.967722
vt 0.094348 0.967722
vt 0.094348 0.967944
vt 0.094281 0.967944
vt 0.093749 0.967827
vt 0.093763 0.967827
vt 0.093763 0.968048
vt 0.093749 0.968048
vt 0.094443 0.967501
vt 0.094457 0.967501
vt 0.094457 0.967764
vt 0.094443 0.967764
vt 0.093671 0.967501
vt 0.093671 0.967619
vt 0.093604 0.967619
vt 0.093604 0.967501
vt 0.093471 0.967969
vt 0.093485 0.967969
vt 0.093485 0.968036
vt 0.093471 0.968036
vt 0.093922 0.968042
vt 0.093922 0.967952
vt 0.093936 0.967952
vt 0.093936 0.968042
vt 0.093538 0.967953
vt 0.093604 0.967953
vt 0.093604 0.968017
vt 0.093886 0.967854
vt 0.093900 0.967854
vt 0.093900 0.967969
vt 0.093886 0.967969
vt 0.093499 0.967969
vt 0.093513 0.967969
vt 0.093513 0.968036
vt 0.093499 0.968036
vt 0.093872 0.967527
vt 0.093872 0.967501
vt 0.093886 0.967501
vt 0.093886 0.967527
vt 0.093805 0.967827
vt 0.093738 0.967827
vt 0.093738 0.967501
vt 0.093805 0.967501
vt 0.094175 0.967960
vt 0.094189 0.967960
vt 0.094189 0.968027
vt 0.094175 0.968027
vt 0.093950 0.967952
vt 0.093950 0.968042
vt 0.093936 0.968042
vt 0.093936 0.967952
vt 0.093805 0.967985
vt 0.093805 0.967764
vt 0.093872 0.967764
vt 0.093872 0.967985
vt 0.093604 0.967721
vt 0.093671 0.967721
vt 0.093671 0.967837
vt 0.093604 0.967837
vt 0.094415 0.967501
vt 0.094429 0.967501
vt 0.094429 0.967619
vt 0.094415 0.967619
vt 0.094049 0.968019
vt 0.094035 0.968019
vt 0.094035 0.967952
vt 0.094049 0.967952
vt 0.094454 0.967049
vt 0.094468 0.967049
vt 0.094468 0.967270
vt 0.094454 0.967270
vt 0.093872 0.967854
vt 0.093872 0.967622
vt 0.093886 0.967622
vt 0.093886 0.967854
vt 0.093886 0.967969
vt 0.093900 0.967969
vt 0.093900 0.968036
vt 0.093886 0.968036
vt 0.094281 0.967722
vt 0.094281 0.967501
vt 0.094348 0.967501
vt 0.094348 0.967722
vt 0.094035 0.967952
vt 0.094035 0.968019
vt 0.094020 0.968019
vt 0.094020 0.967952
vt 0.093671 0.967827
vt 0.093738 0.967827
vt 0.093738 0.967892
vt 0.093671 0.967892
vt 0.093538 0.967590
vt 0.093538 0.967622
vt 0.093471 0.967622
vt 0.093481 0.967590
vt 0.093886 0.967590
vt 0.093872 0.967590
vt 0.094214 0.967789
vt 0.094147 0.967789
vt 0.093900 0.967789
vt 0.093889 0.967789
vt 0.153760 0.965161
vt 0.153760 0.965129
vt 0.153770 0.965129
vt 0.093538 0.967565
vt 0.093483 0.967565
vt 0.094214 0.967733
vt 0.094214 0.967765
vt 0.094147 0.967765
vt 0.094147 0.967733
vt 0.094281 0.967944
vt 0.094348 0.967944
vt 0.094348 0.968034
vt 0.094281 0.968034
vt 0.093738 0.967904
vt 0.093681 0.967904
vt 0.093914 0.967914
vt 0.093900 0.967914
vt 0.093604 0.967905
vt 0.093538 0.967905
vt 0.093538 0.967863
vt 0.093604 0.967863
vt 0.153960 0.965431
vt 0.153970 0.965443
vt 0.153961 0.965443
vt 0.093900 0.967950
vt 0.093914 0.967950
vt 0.093538 0.967940
vt 0.093604 0.967940
vt 0.093683 0.967940
vt 0.093738 0.967940
vt 0.094415 0.967953
vt 0.094429 0.967953
vt 0.094429 0.968017
vt 0.094415 0.968017
vt 0.093604 0.967653
vt 0.093545 0.967634
vt 0.093538 0.967619
vt 0.093604 0.967619
vt 0.094429 0.967652
vt 0.094415 0.967653
vt 0.093671 0.967645
vt 0.093604 0.967664
vt 0.093604 0.967652
vt 0.093671 0.967633
vt 0.153827 0.965158
vt 0.153834 0.965174
vt 0.153827 0.965173
vt 0.093546 0.967678
vt 0.093604 0.967696
vt 0.093538 0.967501
vt 0.093604 0.967501
vt 0.093909 0.967633
vt 0.093900 0.967633
vt 0.094429 0.967664
vt 0.094415 0.967664
vt 0.093900 0.967733
vt 0.093900 0.967765
vt 0.093888 0.967765
vt 0.093886 0.967733
vt 0.093886 0.967565
vt 0.093872 0.967565
vt 0.094415 0.967863
vt 0.094429 0.967863
vt 0.094429 0.967905
vt 0.094419 0.967905
vt 0.094417 0.967940
vt 0.094429 0.967940
vt 0.094429 0.967721
vt 0.094415 0.967721
vt 0.094415 0.967696
vt 0.094429 0.967695
vt 0.093604 0.967695
vt 0.093671 0.967677
vt 0.093604 0.967664
vt 0.093547 0.967647
vt 0.153835 0.965217
vt 0.153827 0.965260
vt 0.153827 0.965216
vt 0.093908 0.967645
vt 0.093900 0.967645
vt 0.093914 0.967721
vt 0.093900 0.967721
vt 0.093900 0.967677
vt 0.093908 0.967677
vt 0.153827 0.965184
vt 0.153836 0.965186
vt 0.153760 0.965105
vt 0.153772 0.965105
vt 0.153760 0.965066
vt 0.153972 0.965479
vt 0.153960 0.965479
vt 0.153961 0.965521
vt 0.093671 0.967952
vt 0.093671 0.968042
vt 0.093604 0.968042
vt 0.093604 0.967952
vt 0.094147 0.967501
vt 0.094214 0.967501
vt 0.093471 0.967854
vt 0.093538 0.967854
vt 0.094203 0.968027
vt 0.094189 0.968027
vt 0.094189 0.967960
vt 0.094203 0.967960
vt 0.094133 0.968019
vt 0.094119 0.968019
vt 0.094119 0.967952
vt 0.094133 0.967952
vt 0.093886 0.967501
vt 0.093900 0.967501
vt 0.093513 0.968036
vt 0.093513 0.967969
vt 0.093527 0.967969
vt 0.093527 0.968036
vt 0.094147 0.968027
vt 0.094147 0.967960
vt 0.094161 0.967960
vt 0.094161 0.968027
vt 0.094373 0.967269
vt 0.094373 0.967049
vt 0.094440 0.967049
vt 0.094440 0.967269
vt 0.093805 0.967501
vt 0.093872 0.967501
vt 0.093872 0.967764
vt 0.093805 0.967764
vt 0.094443 0.967764
vt 0.094457 0.967764
vt 0.094457 0.968027
vt 0.094443 0.968027
vt 0.093964 0.968019
vt 0.093964 0.967952
vt 0.093978 0.967952
vt 0.093978 0.968019
vt 0.094077 0.967952
vt 0.094077 0.968019
vt 0.094063 0.968019
vt 0.094063 0.967952
vt 0.094429 0.967501
vt 0.094443 0.967501
vt 0.094443 0.967827
vt 0.094429 0.967827
vt 0.094415 0.967837
vt 0.094429 0.967837
vt 0.094161 0.968027
vt 0.094161 0.967960
vt 0.094175 0.967960
vt 0.094175 0.968027
vt 0.094020 0.967952
vt 0.094020 0.968019
vt 0.094006 0.968019
vt 0.094006 0.967952
vt 0.093538 0.967837
vt 0.093604 0.967837
vt 0.094147 0.967854
vt 0.094214 0.967854
vt 0.094214 0.967960
vt 0.094348 0.968048
vt 0.094348 0.967942
vt 0.094415 0.967942
vt 0.094415 0.968048
vt 0.094147 0.967952
vt 0.094147 0.968019
vt 0.094133 0.968019
vt 0.094133 0.967952
vt 0.094105 0.968019
vt 0.094105 0.967952
vt 0.094119 0.967952
vt 0.094119 0.968019
vt 0.093791 0.967827
vt 0.093805 0.967827
vt 0.093805 0.968049
vt 0.093791 0.968049
vt 0.093914 0.967837
vt 0.093900 0.967837
vt 0.094006 0.968019
vt 0.093992 0.968019
vt 0.093992 0.967952
vt 0.094006 0.967952
vt 0.094049 0.967952
vt 0.094063 0.967952
vt 0.094063 0.968019
vt 0.094049 0.968019
vt 0.094429 0.967837
vt 0.094415 0.967837
vn -1.0000 0.0000 0.0000
vn 0.0000 0.0000 -1.0000
vn 1.0000 0.0000 0.0000
vn 0.0000 0.0000 1.0000
vn 0.0000 -1.0000 0.0000
vn 0.0000 1.0000 0.0000
vn -0.2319 0.9700 0.0728
vn 0.2393 0.9531 0.1854
vn 0.5599 0.7844 0.2670
vn 0.5389 0.8354 -0.1086
vn 0.5519 0.8338 -0.0122
vn 0.5597 0.8245 0.0836
vn -0.2483 0.9683 0.0264
vn -0.2607 0.9620 -0.0816
vn 0.2911 0.9562 0.0314
vn 0.3276 0.9403 -0.0927
usemtl Atlas
s off
f 1/1/1 2/2/1 4/3/1 3/4/1
f 3/5/2 4/6/2 8/7/2 7/8/2
f 7/9/3 8/10/3 6/11/3 5/12/3
f 5/12/4 6/13/4 2/2/4 1/14/4
f 3/15/5 7/16/5 5/17/5 1/18/5
f 8/19/6 4/20/6 2/21/6 6/22/6
f 76/23/6 163/24/6 160/25/6 73/26/6
f 27/27/1 57/28/1 62/29/1 51/30/1
f 18/31/3 40/32/3 139/33/3 132/34/3
f 153/35/3 150/36/3 37/37/3 12/38/3
f 12/39/6 20/40/6 148/41/6 153/42/6
f 35/43/5 138/44/5 137/45/5 9/46/5
f 135/47/6 17/48/6 18/49/6 132/50/6
f 125/51/3 130/52/3 49/53/3 23/54/3
f 16/55/3 38/56/3 131/57/3 124/58/3
f 149/59/1 154/60/1 47/61/1 19/62/1
f 146/63/6 28/64/6 29/65/6 145/66/6
f 74/67/3 79/68/3 55/69/3 34/70/3
f 68/71/6 147/72/6 144/73/6 65/74/6
f 60/75/6 57/76/6 27/77/6 26/78/6
f 49/79/5 130/80/5 129/81/5 48/82/5
f 25/83/3 53/84/3 158/85/3 161/86/3
f 162/87/1 157/88/1 54/89/1 14/90/1
f 68/91/1 69/92/1 141/93/1 147/94/1
f 63/95/5 52/96/5 51/97/5 62/98/5
f 22/99/1 9/100/1 137/101/1 134/102/1
f 30/103/2 50/104/2 42/105/2 31/106/2
f 136/107/5 139/108/5 40/109/5 41/110/5
f 34/111/2 55/112/2 46/113/2 13/114/2
f 15/115/4 39/116/4 38/117/4 16/118/4
f 23/119/6 24/120/6 126/121/6 125/122/6
f 26/123/4 27/124/4 51/125/4 52/126/4
f 24/127/1 48/128/1 129/129/1 126/130/1
f 17/131/4 41/132/4 40/133/4 18/134/4
f 14/135/4 54/136/4 53/137/4 25/138/4
f 128/139/5 131/140/5 38/141/5 39/142/5
f 31/143/1 42/144/1 70/145/1 67/146/1
f 154/147/5 151/148/5 10/149/5 47/150/5
f 127/151/1 128/152/1 39/153/1 15/154/1
f 29/155/3 44/156/3 143/157/3 145/158/3
f 55/159/5 79/160/5 78/161/5 46/162/5
f 23/163/2 49/164/2 48/165/2 24/166/2
f 117/167/1 32/168/1 43/169/1 118/170/1
f 50/104/5 71/171/5 70/172/5 42/173/5
f 135/174/1 136/175/1 41/176/1 17/177/1
f 28/178/4 45/179/4 44/180/4 29/181/4
f 60/182/3 26/183/3 52/184/3 63/185/3
f 21/186/6 22/187/6 134/188/6 133/189/6
f 21/190/2 35/191/2 9/192/2 22/193/2
f 33/194/3 120/195/3 122/196/3 56/197/3
f 149/198/6 19/199/6 11/200/6 152/201/6
f 77/202/5 80/203/5 159/204/5 156/205/5
f 13/206/1 46/207/1 78/208/1 75/209/1
f 19/210/4 47/211/4 10/212/4 11/213/4
f 11/214/3 10/215/3 151/216/3 152/217/3
f 121/218/3 59/219/3 64/220/3 123/221/3
f 12/222/2 37/223/2 36/224/2 20/225/2
f 37/226/5 150/227/5 155/228/5 36/229/5
f 32/230/2 33/231/2 56/232/2 43/233/2
f 30/234/6 31/235/6 67/236/6 66/237/6
f 99/238/6 59/239/6 58/240/6 104/241/6
f 102/242/3 64/220/3 59/219/3 99/243/3
f 103/244/5 63/95/5 62/98/5 100/245/5
f 100/246/1 62/29/1 57/28/1 96/247/1
f 58/248/7 97/249/7 104/250/7
f 60/75/6 98/251/6 105/252/6 57/76/6
f 64/253/5 102/254/5 101/255/5 61/256/5
f 43/257/5 56/258/5 122/259/5 118/260/5
f 108/261/6 115/262/6 66/237/6 67/236/6
f 67/146/1 70/145/1 111/263/1 108/264/1
f 110/265/5 113/266/5 72/267/5 69/268/5
f 66/269/8 115/270/8 106/271/8
f 109/272/1 110/273/1 69/92/1 68/91/1
f 70/172/5 71/171/5 112/274/5 111/275/5
f 68/71/6 65/74/6 114/276/6 109/277/6
f 66/278/3 71/279/3 50/280/3 30/281/3
f 82/282/6 85/283/6 74/284/6 75/285/6
f 83/286/1 82/287/1 75/209/1 78/208/1
f 92/288/5 91/289/5 83/290/5 84/291/5
f 78/161/5 79/160/5 84/291/5 83/290/5
f 74/292/9 85/293/9 81/294/9
f 76/23/6 73/26/6 94/295/6 89/296/6
f 34/297/6 13/298/6 75/285/6 74/284/6
f 81/299/3 84/300/3 79/68/3 74/67/3
f 82/287/1 83/286/1 91/301/1 88/302/1
f 61/303/1 101/304/1 97/305/1 58/306/1
f 63/185/3 103/307/3 98/308/3 60/182/3
f 65/309/3 72/310/3 113/311/3 107/312/3
f 106/313/3 112/314/3 71/279/3 66/278/3
f 77/315/1 76/316/1 89/317/1 90/318/1
f 90/319/5 93/320/5 80/203/5 77/202/5
f 85/283/6 82/282/6 88/321/6 95/322/6
f 94/323/10 73/324/10 87/325/10
f 84/300/3 81/299/3 86/326/3 92/327/3
f 73/328/3 80/329/3 93/330/3 87/331/3
f 89/296/6 94/295/6 95/322/6 88/321/6
f 93/320/5 90/319/5 91/289/5 92/288/5
f 90/318/1 89/317/1 88/302/1 91/301/1
f 87/331/3 93/330/3 92/327/3 86/326/3
f 94/323/11 87/325/11 86/332/11 95/333/11
f 81/294/12 85/293/12 95/333/12 86/332/12
f 105/252/6 98/251/6 99/238/6 104/241/6
f 101/255/5 102/254/5 103/244/5 100/245/5
f 97/305/1 101/304/1 100/246/1 96/247/1
f 98/308/3 103/307/3 102/242/3 99/243/3
f 96/334/13 105/335/13 104/250/13 97/249/13
f 105/335/14 96/334/14 57/336/14
f 115/262/6 108/261/6 109/277/6 114/276/6
f 113/266/5 110/265/5 111/275/5 112/274/5
f 112/314/3 106/313/3 107/312/3 113/311/3
f 110/273/1 109/272/1 108/264/1 111/263/1
f 106/271/15 115/270/15 114/337/15 107/338/15
f 114/337/16 65/339/16 107/338/16
f 32/340/6 117/341/6 120/342/6 33/343/6
f 119/344/5 123/345/5 64/253/5 61/256/5
f 116/346/6 58/240/6 59/239/6 121/347/6
f 119/348/2 116/349/2 121/350/2 123/351/2
f 117/352/4 118/353/4 122/354/4 120/355/4
f 58/306/1 116/356/1 119/357/1 61/303/1
f 125/358/4 126/359/4 129/360/4 130/361/4
f 127/362/2 124/363/2 131/364/2 128/365/2
f 127/366/6 15/367/6 16/368/6 124/369/6
f 140/370/5 143/371/5 44/372/5 45/373/5
f 146/374/1 140/375/1 45/376/1 28/377/1
f 135/378/2 132/379/2 139/380/2 136/381/2
f 133/382/4 134/383/4 137/384/4 138/385/4
f 133/386/3 138/387/3 35/388/3 21/389/3
f 144/390/3 142/391/3 72/310/3 65/309/3
f 141/392/4 142/393/4 144/394/4 147/395/4
f 143/396/2 140/397/2 146/398/2 145/399/2
f 69/268/5 72/267/5 142/400/5 141/401/5
f 157/402/5 158/403/5 53/404/5 54/136/5
f 162/405/6 14/406/6 25/407/6 161/408/6
f 153/409/4 148/410/4 155/411/4 150/412/4
f 149/413/2 152/414/2 151/415/2 154/416/2
f 20/417/1 36/418/1 155/419/1 148/420/1
f 160/421/3 159/422/3 80/329/3 73/328/3
f 161/423/2 158/424/2 157/425/2 162/426/2
f 159/427/4 160/428/4 163/429/4 156/430/4
f 76/316/1 77/315/1 156/431/1 163/432/1
