# Blender v3.0.0 OBJ File: 'Wall_Door.blend'
# www.blender.org
mtllib Wall_Door.mtl
o Door_Cube.211
v 2.000000 0.529776 -1.581377
v 2.000000 0.670680 -1.581377
v 2.000000 0.670680 -1.779516
v 2.000000 0.529776 -1.779516
v -2.000000 0.670680 -1.581376
v -2.000000 0.529776 -1.779516
v -2.000000 0.529776 -1.581376
v -2.000000 0.670680 -1.779516
v -2.000000 4.175995 -1.764099
v 2.000000 4.175995 -1.764099
v -2.000000 4.227536 -1.581376
v -2.000000 0.655437 -1.779516
v -2.000000 0.655437 -1.581376
v -2.000000 4.227536 -1.779516
v -1.854938 0.655437 -1.581376
v -1.854938 4.227536 -1.581376
v -1.854938 4.227536 -1.779516
v -1.854938 0.655437 -1.779516
v 2.000000 4.227536 -1.581376
v 2.000000 0.655437 -1.779516
v 2.000000 0.655437 -1.581376
v 2.000000 4.227536 -1.779516
v 1.854938 0.655437 -1.581376
v 1.854938 4.227536 -1.581376
v 1.854938 4.227536 -1.779516
v 1.854938 0.655437 -1.779516
v 2.000000 4.226771 -1.517750
v -2.000000 4.226772 -1.779516
v -2.000000 4.226772 -1.517749
v 2.000000 4.226771 -1.779516
v -2.000000 4.058900 -1.517749
v 2.000000 4.058900 -1.517750
v 2.000000 4.058900 -1.779516
v -2.000000 4.058900 -1.779516
v -2.000000 0.601972 -1.764099
v 2.000000 0.601972 -1.764099
v 1.984315 1.893764 -1.642423
v -1.879536 1.893764 -1.779516
v -1.879536 1.893764 -1.642423
v 1.984315 1.893764 -1.779516
v -1.879536 1.749509 -1.642423
v 1.984315 1.749509 -1.642423
v 1.984315 1.749509 -1.779516
v -1.879536 1.749509 -1.779516
v 1.984315 3.203798 -1.642423
v -1.879536 3.203798 -1.779516
v -1.879536 3.203798 -1.642423
v 1.984315 3.203798 -1.779516
v -1.879536 3.059543 -1.642423
v 1.984315 3.059543 -1.642423
v 1.984315 3.059543 -1.779516
v -1.879536 3.059543 -1.779516
v -1.343906 4.189767 -1.617292
v -1.343906 0.655437 -1.779516
v -1.343906 0.655437 -1.617292
v -1.343906 4.189767 -1.779516
v -1.198843 0.655437 -1.617292
v -1.198843 4.189767 -1.617292
v -1.198843 4.189767 -1.779516
v -1.198843 0.655437 -1.779516
v -0.705631 4.189767 -1.617292
v -0.705631 0.655437 -1.779516
v -0.705631 0.655437 -1.617292
v -0.705631 4.189767 -1.779516
v -0.560569 0.655437 -1.617292
v -0.560569 4.189767 -1.617292
v -0.560569 4.189767 -1.779516
v -0.560569 0.655437 -1.779516
v -0.067356 4.189767 -1.617292
v -0.067356 0.655437 -1.779516
v -0.067356 0.655437 -1.617292
v -0.067356 4.189767 -1.779516
v 0.077706 0.655437 -1.617292
v 0.077706 4.189767 -1.617292
v 0.077706 4.189767 -1.779516
v 0.077706 0.655437 -1.779516
v 0.570918 4.189767 -1.617292
v 0.570918 0.655437 -1.779516
v 0.570918 0.655437 -1.617292
v 0.570918 4.189767 -1.779516
v 0.715981 0.655437 -1.617292
v 0.715981 4.189767 -1.617292
v 0.715981 4.189767 -1.779516
v 0.715981 0.655437 -1.779516
v 1.209193 4.189767 -1.617292
v 1.209193 0.655437 -1.779516
v 1.209193 0.655437 -1.617292
v 1.209193 4.189767 -1.779516
v 1.354255 0.655437 -1.617292
v 1.354255 4.189767 -1.617292
v 1.354255 4.189767 -1.779516
v 1.354255 0.655437 -1.779516
vt 0.023855 0.970511
vt 0.023866 0.970511
vt 0.023866 0.970906
vt 0.023855 0.970906
vt 0.023884 0.970906
vt 0.023884 0.970511
vt 0.023651 0.970906
vt 0.023651 0.970920
vt 0.023643 0.970920
vt 0.023643 0.970906
vt 0.023899 0.970511
vt 0.023899 0.970906
vt 0.023891 0.970906
vt 0.023891 0.970511
vt 0.023939 0.970893
vt 0.023947 0.970893
vt 0.023844 0.970511
vt 0.023844 0.970906
vt 0.024041 0.970996
vt 0.024041 0.970754
vt 0.024051 0.970754
vt 0.024051 0.970996
vt 0.024062 0.970754
vt 0.024051 0.970754
vt 0.024051 0.970511
vt 0.024062 0.970511
vt 0.023995 0.970754
vt 0.023983 0.970754
vt 0.023983 0.970511
vt 0.023995 0.970511
vt 0.023928 0.970893
vt 0.023928 0.970907
vt 0.023917 0.970907
vt 0.023917 0.970893
vt 0.023960 0.970511
vt 0.023972 0.970511
vt 0.023972 0.970754
vt 0.023960 0.970754
vt 0.023939 0.970893
vt 0.023939 0.970907
vt 0.023928 0.970907
vt 0.023928 0.970893
vt 0.024062 0.970996
vt 0.024051 0.970996
vt 0.024051 0.970754
vt 0.024062 0.970754
vt 0.024051 0.970511
vt 0.024051 0.970754
vt 0.024041 0.970754
vt 0.024041 0.970511
vt 0.023972 0.970754
vt 0.023972 0.970511
vt 0.023983 0.970511
vt 0.023983 0.970754
vt 0.023643 0.970921
vt 0.023632 0.970921
vt 0.023632 0.970906
vt 0.023643 0.970906
vt 0.023995 0.970754
vt 0.023995 0.970511
vt 0.023632 0.970921
vt 0.023621 0.970921
vt 0.023621 0.970906
vt 0.023632 0.970906
vt 0.023830 0.970906
vt 0.023830 0.970511
vt 0.023844 0.970511
vt 0.023844 0.970906
vt 0.023830 0.970906
vt 0.023816 0.970906
vt 0.023816 0.970511
vt 0.023830 0.970511
vt 0.023875 0.970906
vt 0.023866 0.970906
vt 0.023866 0.970511
vt 0.023875 0.970511
vt 0.023908 0.970893
vt 0.023917 0.970893
vt 0.023917 0.970911
vt 0.023908 0.970911
vt 0.023875 0.970511
vt 0.023884 0.970511
vt 0.023899 0.970893
vt 0.023908 0.970893
vt 0.023907 0.970511
vt 0.023915 0.970511
vt 0.023915 0.970893
vt 0.023907 0.970893
vt 0.023899 0.970511
vt 0.023907 0.970511
vt 0.023907 0.970893
vt 0.023899 0.970893
vt 0.023938 0.970893
vt 0.023938 0.970511
vt 0.023953 0.970893
vt 0.023953 0.970511
vt 0.023960 0.970511
vt 0.023960 0.970893
vt 0.023923 0.970893
vt 0.023915 0.970893
vt 0.023915 0.970511
vt 0.023923 0.970511
vt 0.023923 0.970511
vt 0.023930 0.970511
vt 0.023930 0.970893
vt 0.023923 0.970893
vt 0.023945 0.970893
vt 0.023938 0.970893
vt 0.023938 0.970511
vt 0.023945 0.970511
vt 0.023945 0.970893
vt 0.023945 0.970511
vt 0.023953 0.970511
vt 0.023953 0.970893
vt 0.024089 0.970511
vt 0.024089 0.970751
vt 0.024080 0.970751
vt 0.024080 0.970511
vt 0.024097 0.970511
vt 0.024106 0.970511
vt 0.024106 0.970751
vt 0.024097 0.970751
vt 0.024029 0.970751
vt 0.024018 0.970751
vt 0.024018 0.970511
vt 0.024029 0.970511
vt 0.024029 0.970993
vt 0.024018 0.970993
vt 0.024018 0.970754
vt 0.024029 0.970754
vt 0.024071 0.970511
vt 0.024071 0.970751
vt 0.024062 0.970751
vt 0.024062 0.970511
vt 0.024080 0.970754
vt 0.024089 0.970754
vt 0.024089 0.970993
vt 0.024080 0.970993
vt 0.023983 0.970993
vt 0.023972 0.970993
vt 0.023972 0.970754
vt 0.023983 0.970754
vt 0.023960 0.970754
vt 0.023972 0.970754
vt 0.023972 0.970993
vt 0.023960 0.970993
vt 0.024071 0.970754
vt 0.024071 0.970993
vt 0.024062 0.970993
vt 0.024062 0.970754
vt 0.024089 0.970511
vt 0.024097 0.970511
vt 0.024097 0.970751
vt 0.024089 0.970751
vt 0.024041 0.970751
vt 0.024029 0.970751
vt 0.024029 0.970511
vt 0.024041 0.970511
vt 0.023983 0.970754
vt 0.023995 0.970754
vt 0.023995 0.970993
vt 0.023983 0.970993
vt 0.024080 0.970511
vt 0.024080 0.970751
vt 0.024071 0.970751
vt 0.024071 0.970511
vt 0.024097 0.970754
vt 0.024106 0.970754
vt 0.024106 0.970993
vt 0.024097 0.970993
vt 0.024018 0.970751
vt 0.024006 0.970751
vt 0.024006 0.970511
vt 0.024018 0.970511
vt 0.024041 0.970993
vt 0.024029 0.970993
vt 0.024029 0.970754
vt 0.024041 0.970754
vt 0.024080 0.970754
vt 0.024080 0.970993
vt 0.024071 0.970993
vt 0.024071 0.970754
vt 0.024089 0.970754
vt 0.024097 0.970754
vt 0.024097 0.970993
vt 0.024089 0.970993
vt 0.024018 0.970993
vt 0.024006 0.970993
vt 0.024006 0.970754
vt 0.024018 0.970754
vt 0.023995 0.970754
vt 0.024006 0.970754
vt 0.024006 0.970993
vt 0.023995 0.970993
vt 0.023816 0.970511
vt 0.023816 0.970906
vt 0.023621 0.970906
vt 0.023621 0.970511
vn 0.0000 -1.0000 0.0000
vn 0.0000 -0.0000 1.0000
vn 1.0000 0.0000 0.0000
vn -0.0000 0.0000 -1.0000
vn -1.0000 0.0000 0.0000
vn 0.0000 1.0000 0.0000
usemtl Atlas
s 1
f 7/1/1 6/2/1 4/3/1 1/4/1
f 1/4/2 2/5/2 5/6/2 7/1/2
f 1/7/3 4/8/3 3/9/3 2/10/3
f 4/11/4 6/12/4 8/13/4 3/14/4
f 7/15/5 5/16/5 8/13/5 6/12/5
f 2/17/6 3/14/6 8/13/6 5/18/6
f 13/19/5 11/20/5 14/21/5 12/22/5
f 15/23/3 18/24/3 17/25/3 16/26/3
f 13/27/2 15/28/2 16/29/2 11/30/2
f 11/31/6 16/32/6 17/33/6 14/34/6
f 14/35/4 17/36/4 18/37/4 12/38/4
f 12/39/1 18/40/1 15/41/1 13/42/1
f 21/43/3 20/44/3 22/45/3 19/46/3
f 23/47/5 24/48/5 25/49/5 26/50/5
f 21/51/2 19/52/2 24/53/2 23/54/2
f 19/55/6 22/56/6 25/57/6 24/58/6
f 22/59/4 20/60/4 26/50/4 25/49/4
f 20/61/1 21/62/1 23/63/1 26/64/1
f 29/65/6 27/66/6 30/67/6 28/68/6
f 31/69/1 34/70/1 33/71/1 32/72/1
f 29/73/2 31/74/2 32/75/2 27/76/2
f 27/77/3 32/78/3 33/79/3 30/80/3
f 30/80/4 33/79/4 34/81/4 28/82/4
f 28/83/5 34/84/5 31/74/5 29/73/5
f 40/85/4 43/86/4 44/87/4 38/88/4
f 39/89/2 41/90/2 42/91/2 37/92/2
f 41/93/1 44/87/1 43/86/1 42/94/1
f 39/95/6 37/96/6 40/97/6 38/98/6
f 48/99/4 51/100/4 52/101/4 46/102/4
f 47/103/2 49/104/2 50/105/2 45/106/2
f 49/107/1 52/108/1 51/109/1 50/110/1
f 47/111/6 45/112/6 48/113/6 46/114/6
f 55/115/5 53/116/5 56/117/5 54/118/5
f 57/119/3 60/120/3 59/121/3 58/122/3
f 55/123/2 57/124/2 58/125/2 53/126/2
f 56/127/4 59/128/4 60/129/4 54/130/4
f 63/131/5 61/132/5 64/133/5 62/134/5
f 65/135/3 68/136/3 67/137/3 66/138/3
f 63/139/2 65/140/2 66/141/2 61/142/2
f 64/143/4 67/144/4 68/145/4 62/146/4
f 71/147/5 69/148/5 72/149/5 70/150/5
f 73/151/3 76/152/3 75/153/3 74/154/3
f 71/155/2 73/156/2 74/157/2 69/158/2
f 72/159/4 75/160/4 76/161/4 70/162/4
f 79/163/5 77/164/5 80/165/5 78/166/5
f 81/167/3 84/168/3 83/169/3 82/170/3
f 79/171/2 81/172/2 82/173/2 77/174/2
f 80/175/4 83/176/4 84/177/4 78/178/4
f 87/179/5 85/180/5 88/181/5 86/182/5
f 89/183/3 92/184/3 91/185/3 90/186/3
f 87/187/2 89/188/2 90/189/2 85/190/2
f 88/191/4 91/192/4 92/193/4 86/194/4
usemtl Light
f 10/195/2 9/196/2 35/197/2 36/198/2
o Wall_Door_Cube.212
v 2.000000 -0.000000 -1.785559
v 2.000000 0.457279 -1.785559
v 2.000000 0.457279 -1.983699
v 2.000000 -0.000000 -1.983699
v -2.000000 0.457279 -1.785559
v -2.000000 -0.000000 -1.983699
v -2.000000 -0.000000 -1.785559
v -2.000000 0.457279 -1.983698
v -2.000000 -0.000000 -2.468282
v -2.000000 -0.000000 -1.968282
v -2.000000 4.175995 -2.468281
v -2.000000 4.175995 -1.968281
v 2.000000 -0.000000 -2.468282
v 2.000000 -0.000000 -1.968282
v 2.000000 4.175995 -2.468281
v 2.000000 4.175995 -1.968281
v -2.000000 0.563468 -2.468281
v -2.000000 0.563468 -1.968282
v 2.000000 0.563468 -2.468281
v 2.000000 0.563468 -1.968282
v -2.000000 4.875277 -1.968281
v -2.000000 4.875277 -2.468281
v 2.000000 4.875277 -2.468281
v 2.000000 4.875277 -1.968281
v 0.878787 4.175995 -2.020847
v 1.114178 4.175995 -2.020847
v 0.878787 4.904276 -2.020847
v 1.114178 4.904276 -2.020847
v 0.878787 4.175995 -1.742439
v 1.114178 4.175995 -1.742439
v 0.878787 4.904276 -1.742439
v 1.114178 4.904276 -1.742439
v -2.000000 5.170373 -1.968281
v -2.000000 5.170373 -2.468281
v 2.000000 5.170373 -2.468281
v 2.000000 5.170373 -1.968281
v -2.000000 4.875277 -1.673118
v 2.000000 4.875277 -1.673118
v -2.000000 5.170373 -1.673118
v 2.000000 5.170373 -1.673118
v -1.056334 4.175995 -2.020847
v -0.820944 4.175995 -2.020847
v -1.056334 4.904276 -2.020847
v -0.820944 4.904276 -2.020847
v -1.056334 4.175995 -1.742439
v -0.820944 4.175995 -1.742439
v -1.056334 4.904276 -1.742439
v -0.820944 4.904276 -1.742439
v 1.790862 4.175995 -2.468281
v -1.790862 4.175995 -2.468281
v 1.790862 4.175995 -1.968281
v -1.790862 4.175995 -1.968281
v 1.790862 -0.000000 -2.468282
v -1.790862 -0.000000 -2.468282
v -1.790862 -0.000000 -1.968282
v 1.790862 -0.000000 -1.968282
v -1.790862 0.563468 -1.968282
v 1.790862 0.563468 -1.968282
v 1.790862 0.563468 -2.468281
v -1.790862 0.563468 -2.468281
v 1.790862 4.875277 -2.468281
v -1.790862 4.875277 -2.468281
v -1.790862 4.875277 -1.968281
v 1.790862 4.875277 -1.968281
v -1.790862 5.170373 -2.468281
v 1.790862 5.170373 -2.468281
v 1.790862 5.170373 -1.968281
v -1.790862 5.170373 -1.968281
v -1.790862 4.875277 -1.673118
v 1.790862 4.875277 -1.673118
v -1.790862 5.170373 -1.673118
v 1.790862 5.170373 -1.673118
v 2.000000 4.031200 -2.468281
v 2.000000 4.031200 -1.968282
v 1.790862 4.031200 -1.968282
v 1.790862 4.031200 -2.468281
v -2.000000 4.031200 -1.968282
v -2.000000 4.031200 -2.468281
v -1.790862 4.031200 -1.968282
v -1.790862 4.031200 -2.468281
vt 0.029378 0.971701
vt 0.029356 0.971701
vt 0.029356 0.971417
vt 0.029378 0.971417
vt 0.029533 0.971475
vt 0.029523 0.971475
vt 0.029523 0.971452
vt 0.029533 0.971452
vt 0.029356 0.971417
vt 0.029356 0.971701
vt 0.029333 0.971701
vt 0.029333 0.971417
vt 0.029514 0.971475
vt 0.029514 0.971452
vt 0.029523 0.971452
vt 0.029523 0.971475
vt 0.029490 0.971417
vt 0.029500 0.971417
vt 0.029500 0.971701
vt 0.029490 0.971701
vt 0.029255 0.971614
vt 0.029280 0.971614
vt 0.029280 0.971621
vt 0.029255 0.971621
vt 0.029550 0.971132
vt 0.029550 0.971147
vt 0.029543 0.971147
vt 0.029543 0.971132
vt 0.029333 0.971444
vt 0.029309 0.971444
vt 0.029309 0.971417
vt 0.029333 0.971417
vt 0.029719 0.971147
vt 0.029719 0.971132
vt 0.029747 0.971132
vt 0.029747 0.971147
vt 0.029786 0.971402
vt 0.029810 0.971402
vt 0.029810 0.971417
vt 0.029786 0.971417
vt 0.029719 0.971417
vt 0.029719 0.971402
vt 0.029747 0.971402
vt 0.029747 0.971417
vt 0.093637 0.969582
vt 0.093637 0.969597
vt 0.093603 0.969597
vt 0.093603 0.969582
vt 0.029333 0.971614
vt 0.029309 0.971614
vt 0.029255 0.971417
vt 0.029280 0.971417
vt 0.029280 0.971444
vt 0.029255 0.971444
vt 0.029810 0.971417
vt 0.029810 0.971402
vt 0.029825 0.971402
vt 0.029825 0.971417
vt 0.093589 0.970071
vt 0.093613 0.970071
vt 0.093613 0.970105
vt 0.093589 0.970105
vt 0.093642 0.970071
vt 0.093666 0.970071
vt 0.093666 0.970105
vt 0.093642 0.970105
vt 0.029311 0.971147
vt 0.029311 0.971132
vt 0.029481 0.971132
vt 0.029481 0.971147
vt 0.029500 0.971452
vt 0.029500 0.971417
vt 0.029517 0.971417
vt 0.029517 0.971452
vt 0.029550 0.971452
vt 0.029533 0.971452
vt 0.029533 0.971417
vt 0.029550 0.971417
vt 0.029567 0.971452
vt 0.029567 0.971417
vt 0.029581 0.971417
vt 0.029581 0.971452
vt 0.029500 0.971452
vt 0.029514 0.971452
vt 0.029761 0.971132
vt 0.029761 0.971147
vt 0.029747 0.971147
vt 0.029747 0.971132
vt 0.029255 0.971655
vt 0.029280 0.971655
vt 0.029280 0.971669
vt 0.029255 0.971669
vt 0.029309 0.971655
vt 0.029333 0.971655
vt 0.029333 0.971669
vt 0.029309 0.971669
vt 0.029270 0.971132
vt 0.029270 0.971147
vt 0.029255 0.971147
vt 0.029255 0.971132
vt 0.029476 0.971701
vt 0.029476 0.971686
vt 0.029490 0.971686
vt 0.029490 0.971701
vt 0.029294 0.971669
vt 0.029294 0.971655
vt 0.029476 0.971431
vt 0.029476 0.971417
vt 0.029490 0.971417
vt 0.029490 0.971431
vt 0.029294 0.971655
vt 0.029294 0.971669
vt 0.029517 0.971452
vt 0.029517 0.971417
vt 0.029533 0.971417
vt 0.029533 0.971452
vt 0.029567 0.971452
vt 0.029550 0.971452
vt 0.029550 0.971417
vt 0.029567 0.971417
vt 0.029594 0.971417
vt 0.029594 0.971452
vt 0.029608 0.971417
vt 0.029608 0.971452
vt 0.029594 0.971452
vt 0.029594 0.971417
vt 0.093876 0.969582
vt 0.093876 0.969597
vt 0.093841 0.969597
vt 0.093841 0.969582
vt 0.029786 0.971132
vt 0.029810 0.971132
vt 0.029810 0.971147
vt 0.029786 0.971147
vt 0.029761 0.971402
vt 0.029761 0.971417
vt 0.029747 0.971417
vt 0.029747 0.971402
vt 0.029311 0.971402
vt 0.029304 0.971402
vt 0.029304 0.971147
vt 0.029810 0.971147
vt 0.029810 0.971132
vt 0.029825 0.971132
vt 0.029825 0.971147
vt 0.029786 0.971147
vt 0.029786 0.971132
vt 0.029550 0.971402
vt 0.029550 0.971417
vt 0.029543 0.971417
vt 0.029543 0.971402
vt 0.029786 0.971417
vt 0.029786 0.971402
vt 0.093637 0.969852
vt 0.093637 0.969866
vt 0.093603 0.969866
vt 0.093603 0.969852
vt 0.029270 0.971402
vt 0.029270 0.971417
vt 0.029255 0.971417
vt 0.029255 0.971402
vt 0.029508 0.971132
vt 0.029508 0.971147
vt 0.029481 0.971417
vt 0.029481 0.971402
vt 0.029508 0.971402
vt 0.029508 0.971417
vt 0.093876 0.969852
vt 0.093876 0.969866
vt 0.093841 0.969866
vt 0.093841 0.969852
vt 0.029378 0.971671
vt 0.029378 0.971417
vt 0.029402 0.971417
vt 0.029402 0.971671
vt 0.029311 0.971417
vt 0.029304 0.971132
vt 0.029333 0.971621
vt 0.029309 0.971621
vt 0.029304 0.971417
vt 0.029476 0.971586
vt 0.029451 0.971586
vt 0.029451 0.971417
vt 0.029402 0.971671
vt 0.029402 0.971417
vt 0.029427 0.971417
vt 0.029427 0.971671
vt 0.029451 0.971417
vt 0.029451 0.971586
vt 0.029427 0.971586
vt 0.029427 0.971417
vn 0.0000 -0.0000 1.0000
vn 1.0000 0.0000 0.0000
vn -0.0000 0.0000 -1.0000
vn -1.0000 0.0000 0.0000
vn 0.0000 1.0000 0.0000
vn 0.0000 -1.0000 0.0000
usemtl Atlas
s 1
f 93/199/7 94/200/7 97/201/7 99/202/7
f 93/203/8 96/204/8 95/205/8 94/206/8
f 96/207/9 98/208/9 100/209/9 95/210/9
f 99/211/10 97/212/10 100/213/10 98/214/10
f 94/215/11 95/216/11 100/217/11 97/218/11
f 170/219/10 169/220/10 104/221/10 103/222/10
f 169/223/7 171/224/7 144/225/7 104/226/7
f 111/227/8 112/228/8 106/229/8 105/230/8
f 149/231/7 110/232/7 102/233/7 147/234/7
f 146/235/12 147/236/12 102/237/12 101/238/12
f 112/239/7 150/240/7 148/241/7 106/242/7
f 107/243/9 141/244/9 153/245/9 115/246/9
f 165/247/8 166/248/8 112/228/8 111/227/8
f 101/249/10 102/250/10 110/251/10 109/252/10
f 113/253/12 155/254/12 161/255/12 129/256/12
f 103/257/10 104/258/10 113/259/10 114/260/10
f 108/261/8 107/262/8 115/263/8 116/264/8
f 168/265/9 165/266/9 111/267/9 151/268/9
f 117/269/9 119/270/9 120/271/9 118/272/9
f 121/273/7 122/274/7 124/275/7 123/276/7
f 119/277/10 117/278/10 121/279/10 123/280/10
f 118/272/8 120/281/8 124/282/8 122/274/8
f 128/283/11 159/284/11 164/285/11 132/286/11
f 114/287/10 113/288/10 125/289/10 126/290/10
f 116/291/8 115/292/8 127/293/8 128/294/8
f 115/295/9 153/296/9 158/297/9 127/298/9
f 129/299/7 161/300/7 163/301/7 131/302/7
f 116/291/8 128/294/8 132/303/8 130/304/8
f 162/305/7 130/306/7 132/307/7 164/308/7
f 125/289/10 113/288/10 129/309/10 131/310/10
f 133/311/9 135/312/9 136/313/9 134/314/9
f 137/315/7 138/316/7 140/317/7 139/318/7
f 135/319/10 133/320/10 137/315/10 139/318/10
f 134/321/8 136/322/8 140/323/8 138/324/8
f 104/325/7 144/326/7 155/327/7 113/328/7
f 105/329/12 106/330/12 148/331/12 145/332/12
f 160/333/11 125/334/11 131/335/11 163/336/11
f 172/337/9 142/338/9 141/339/9 168/265/9
f 156/340/12 116/341/12 130/342/12 162/343/12
f 158/344/11 159/284/11 128/283/11 127/345/11
f 167/346/7 166/347/7 108/348/7 143/349/7
f 126/350/11 125/334/11 160/333/11 157/351/11
f 142/352/9 103/353/9 114/354/9 154/355/9
f 154/356/9 114/357/9 126/358/9 157/359/9
f 151/268/9 111/267/9 105/360/9 145/361/9
f 109/362/9 152/363/9 146/364/9 101/365/9
f 143/366/7 108/367/7 116/368/7 156/369/7
f 171/224/7 167/346/7 143/349/7 144/225/7
f 160/333/11 163/336/11 164/285/11 159/284/11
f 162/305/7 164/308/7 163/301/7 161/300/7
f 154/356/9 157/359/9 158/297/9 153/296/9
f 159/284/11 158/344/11 157/351/11 160/333/11
f 142/352/9 154/355/9 153/245/9 141/244/9
f 156/340/12 162/343/12 161/255/12 155/254/12
f 151/370/11 152/371/11 149/372/11 150/373/11
f 149/231/7 147/234/7 148/241/7 150/240/7
f 151/268/9 145/361/9 146/364/9 152/363/9
f 147/236/12 146/235/12 145/332/12 148/331/12
f 143/366/7 156/369/7 155/327/7 144/326/7
f 170/374/9 172/337/9 152/363/9 109/362/9
f 150/240/7 112/239/7 166/347/7 167/346/7
f 141/339/9 107/375/9 165/266/9 168/265/9
f 107/376/8 108/377/8 166/248/8 165/247/8
f 103/378/9 142/338/9 172/337/9 170/374/9
f 152/363/8 172/379/8 171/380/8 149/381/8
f 110/232/7 149/231/7 171/224/7 169/223/7
f 109/252/10 110/251/10 169/220/10 170/219/10
f 172/382/12 168/383/12 167/384/12 171/385/12
f 150/386/10 167/387/10 168/388/10 151/389/10
