# Blender v3.0.0 OBJ File: 'Wall_Shoji_Interior.blend'
# www.blender.org
mtllib Wall_Shoji_Interior.mtl
o Wall_Shoji_Interior_Cube.046
v -2.000000 0.693051 -0.261733
v -2.000000 0.833955 -0.261734
v -2.000000 0.833955 0.261732
v -2.000000 0.693051 0.261732
v 2.000000 0.833955 -0.261733
v 2.000000 0.693051 0.261733
v 2.000000 0.693051 -0.261733
v 2.000000 0.833955 0.261733
v 1.972230 4.339270 -0.118431
v -1.977871 4.339270 -0.118432
v 2.000000 4.324790 -0.261733
v 2.000000 0.818711 0.261734
v 2.000000 0.818711 -0.261732
v 2.000000 4.324790 0.261733
v 1.854937 0.818711 -0.261732
v 1.854937 4.324790 -0.261733
v 1.854937 4.324790 0.261733
v 1.854937 0.818711 0.261734
v -2.000000 4.324790 -0.261734
v -2.000000 0.818711 0.261732
v -2.000000 0.818711 -0.261734
v -2.000000 4.324790 0.261732
v -1.854938 0.818711 -0.261734
v -1.854938 4.324790 -0.261734
v -1.854938 4.324790 0.261732
v -1.854938 0.818711 0.261732
v -2.000000 4.390046 -0.303760
v 2.000000 4.390047 0.299472
v 2.000000 4.390047 -0.303760
v -2.000000 4.390046 0.299471
v 2.000000 4.222175 -0.303760
v -2.000000 4.222175 -0.303760
v -2.000000 4.222175 0.299471
v 2.000000 4.222175 0.299472
v 1.972230 0.765246 -0.118431
v -1.977871 0.765246 -0.118432
v -1.966964 2.057039 -0.161313
v 1.862184 2.057039 0.216735
v 1.862184 2.057039 -0.161313
v -1.966964 2.057039 0.216734
v 1.862184 1.912784 -0.161313
v -1.966964 1.912784 -0.161313
v -1.966964 1.912784 0.216734
v 1.862184 1.912784 0.216735
v -1.966964 3.367073 -0.161313
v 1.862184 3.367073 0.216735
v 1.862184 3.367073 -0.161313
v -1.966964 3.367073 0.216734
v 1.862184 3.222818 -0.161313
v -1.966964 3.222818 -0.161313
v -1.966964 3.222818 0.216734
v 1.862184 3.222818 0.216735
v 1.343905 4.353042 -0.202652
v 1.343905 0.818711 0.225928
v 1.343905 0.818711 -0.202651
v 1.343905 4.353042 0.225928
v 1.198843 0.818711 -0.202651
v 1.198843 4.353042 -0.202652
v 1.198843 4.353042 0.225927
v 1.198843 0.818711 0.225928
v 0.705631 4.353042 -0.202652
v 0.705631 0.818711 0.225928
v 0.705631 0.818711 -0.202652
v 0.705631 4.353042 0.225927
v 0.560568 0.818711 -0.202652
v 0.560568 4.353042 -0.202652
v 0.560568 4.353042 0.225927
v 0.560568 0.818711 0.225928
v 0.067356 4.353042 -0.202652
v 0.067356 0.818711 0.225927
v 0.067356 0.818711 -0.202652
v 0.067356 4.353042 0.225927
v -0.077706 0.818711 -0.202652
v -0.077706 4.353042 -0.202652
v -0.077706 4.353042 0.225927
v -0.077706 0.818711 0.225927
v -0.570918 4.353042 -0.202652
v -0.570919 0.818711 0.225927
v -0.570918 0.818711 -0.202652
v -0.570919 4.353042 0.225927
v -0.715981 0.818711 -0.202652
v -0.715981 4.353042 -0.202652
v -0.715981 4.353042 0.225927
v -0.715981 0.818711 0.225927
v -1.209193 4.353042 -0.202652
v -1.209193 0.818711 0.225927
v -1.209193 0.818711 -0.202652
v -1.209193 4.353042 0.225927
v -1.354255 0.818711 -0.202652
v -1.354255 4.353042 -0.202653
v -1.354255 4.353042 0.225927
v -1.354255 0.818711 0.225927
v 1.972230 4.339270 0.176329
v -1.977871 4.339270 0.176328
v 1.972230 0.765246 0.176329
v -1.977871 0.765246 0.176328
v -2.000000 0.728682 -0.322261
v -2.000000 0.728682 0.322260
v 2.000000 0.728682 0.322261
v 2.000000 0.728682 -0.322260
v -2.000000 -0.037384 0.322260
v -2.000000 -0.037384 -0.322261
v 2.000000 -0.037384 0.322261
v 2.000000 -0.037384 -0.322260
vt 0.033527 0.966176
vt 0.033575 0.966176
vt 0.033575 0.966537
vt 0.033527 0.966537
vt 0.034126 0.966542
vt 0.034113 0.966542
vt 0.034113 0.966180
vt 0.034126 0.966180
vt 0.033208 0.966537
vt 0.033208 0.966585
vt 0.033195 0.966585
vt 0.033195 0.966537
vt 0.033820 0.966537
vt 0.033820 0.966176
vt 0.033833 0.966176
vt 0.033833 0.966537
vt 0.033208 0.966537
vt 0.033221 0.966537
vt 0.033221 0.966585
vt 0.033208 0.966585
vt 0.033479 0.966176
vt 0.033527 0.966176
vt 0.033527 0.966537
vt 0.033479 0.966537
vt 0.033670 0.966176
vt 0.033670 0.966499
vt 0.033622 0.966499
vt 0.033622 0.966176
vt 0.033718 0.966176
vt 0.033766 0.966176
vt 0.033766 0.966499
vt 0.033718 0.966499
vt 0.034168 0.966141
vt 0.034155 0.966141
vt 0.034155 0.965818
vt 0.034168 0.965818
vt 0.033182 0.966537
vt 0.033195 0.966537
vt 0.033195 0.966585
vt 0.033182 0.966585
vt 0.034153 0.966180
vt 0.034166 0.966180
vt 0.034166 0.966503
vt 0.034153 0.966503
vt 0.033934 0.966547
vt 0.033921 0.966547
vt 0.033921 0.966500
vt 0.033934 0.966500
vt 0.033670 0.966176
vt 0.033718 0.966176
vt 0.033718 0.966499
vt 0.033670 0.966499
vt 0.033622 0.966176
vt 0.033622 0.966499
vt 0.033575 0.966499
vt 0.033575 0.966176
vt 0.034168 0.966141
vt 0.034168 0.965818
vt 0.034182 0.965818
vt 0.034182 0.966141
vt 0.033947 0.966500
vt 0.033947 0.966547
vt 0.033934 0.966547
vt 0.033934 0.966500
vt 0.034179 0.966180
vt 0.034179 0.966503
vt 0.034166 0.966503
vt 0.034166 0.966180
vt 0.033908 0.966547
vt 0.033908 0.966500
vt 0.033921 0.966500
vt 0.033921 0.966547
vt 0.033369 0.966537
vt 0.033369 0.966176
vt 0.033424 0.966176
vt 0.033424 0.966537
vt 0.033424 0.966176
vt 0.033479 0.966176
vt 0.033479 0.966537
vt 0.033424 0.966537
vt 0.034113 0.966542
vt 0.034098 0.966542
vt 0.034098 0.966180
vt 0.034113 0.966180
vt 0.033892 0.966500
vt 0.033908 0.966500
vt 0.033908 0.966554
vt 0.033892 0.966554
vt 0.033820 0.966537
vt 0.033805 0.966537
vt 0.033805 0.966176
vt 0.033820 0.966176
vt 0.033742 0.966499
vt 0.033757 0.966499
vt 0.033757 0.966553
vt 0.033742 0.966553
vt 0.034139 0.966180
vt 0.034153 0.966180
vt 0.034153 0.966526
vt 0.034139 0.966526
vt 0.034142 0.965818
vt 0.034155 0.965818
vt 0.034155 0.966165
vt 0.034142 0.966165
vt 0.034094 0.965818
vt 0.034129 0.965818
vt 0.034129 0.966165
vt 0.034094 0.966165
vt 0.034060 0.966165
vt 0.034060 0.965818
vt 0.034094 0.965818
vt 0.034094 0.966165
vt 0.034142 0.966165
vt 0.034129 0.966165
vt 0.034129 0.965818
vt 0.034142 0.965818
vt 0.034139 0.966526
vt 0.034126 0.966526
vt 0.034126 0.966180
vt 0.034139 0.966180
vt 0.034064 0.966180
vt 0.034098 0.966180
vt 0.034098 0.966526
vt 0.034064 0.966526
vt 0.034029 0.966526
vt 0.034029 0.966180
vt 0.034064 0.966526
vt 0.033912 0.966180
vt 0.033912 0.966500
vt 0.033873 0.966500
vt 0.033873 0.966180
vt 0.033982 0.965818
vt 0.034021 0.965818
vt 0.034021 0.966138
vt 0.033982 0.966138
vt 0.033654 0.966499
vt 0.033667 0.966499
vt 0.033667 0.966818
vt 0.033654 0.966818
vt 0.033575 0.966499
vt 0.033588 0.966499
vt 0.033588 0.966818
vt 0.033575 0.966818
vt 0.033943 0.965818
vt 0.033943 0.966138
vt 0.033904 0.966138
vt 0.033904 0.965818
vt 0.033951 0.966180
vt 0.033990 0.966180
vt 0.033990 0.966500
vt 0.033951 0.966500
vt 0.033628 0.966499
vt 0.033641 0.966499
vt 0.033641 0.966818
vt 0.033628 0.966818
vt 0.033601 0.966499
vt 0.033614 0.966499
vt 0.033614 0.966818
vt 0.033601 0.966818
vt 0.033873 0.966180
vt 0.033873 0.966500
vt 0.033834 0.966500
vt 0.033834 0.966180
vt 0.033943 0.965818
vt 0.033982 0.965818
vt 0.033982 0.966138
vt 0.033943 0.966138
vt 0.033792 0.966815
vt 0.033779 0.966815
vt 0.033779 0.966495
vt 0.033792 0.966495
vt 0.033683 0.966818
vt 0.033670 0.966818
vt 0.033670 0.966499
vt 0.033683 0.966499
vt 0.033805 0.966176
vt 0.033805 0.966495
vt 0.033766 0.966495
vt 0.033766 0.966176
vt 0.034021 0.965818
vt 0.034060 0.965818
vt 0.034060 0.966138
vt 0.034021 0.966138
vt 0.033641 0.966499
vt 0.033654 0.966499
vt 0.033654 0.966818
vt 0.033641 0.966818
vt 0.033614 0.966499
vt 0.033628 0.966499
vt 0.033628 0.966818
vt 0.033614 0.966818
vt 0.033912 0.966500
vt 0.033912 0.966180
vt 0.033951 0.966180
vt 0.033951 0.966500
vt 0.033990 0.966180
vt 0.034029 0.966180
vt 0.034029 0.966500
vt 0.033990 0.966500
vt 0.033779 0.966815
vt 0.033766 0.966815
vt 0.033766 0.966495
vt 0.033779 0.966495
vt 0.033588 0.966499
vt 0.033601 0.966499
vt 0.033601 0.966818
vt 0.033588 0.966818
vt 0.033251 0.966537
vt 0.033251 0.966176
vt 0.033310 0.966176
vt 0.033310 0.966537
vt 0.033310 0.966176
vt 0.033369 0.966176
vt 0.033369 0.966537
vt 0.033310 0.966537
vt 0.033904 0.965818
vt 0.033904 0.966180
vt 0.033834 0.966180
vt 0.033834 0.965818
vt 0.033742 0.966568
vt 0.033683 0.966568
vt 0.033683 0.966499
vt 0.033742 0.966499
vt 0.033182 0.966537
vt 0.033182 0.966176
vt 0.033892 0.966569
vt 0.033834 0.966569
vt 0.033834 0.966500
vt 0.033892 0.966500
vt 0.033508 0.966176
vt 0.033508 0.965818
vt 0.033834 0.965818
vt 0.033834 0.966176
vt 0.033182 0.965818
vt 0.033508 0.965818
vt 0.033508 0.966176
vt 0.033182 0.966176
vn 0.0000 -1.0000 0.0000
vn 0.0000 -0.0000 -1.0000
vn -1.0000 0.0000 0.0000
vn -0.0000 0.0000 1.0000
vn 1.0000 0.0000 0.0000
vn 0.0000 1.0000 0.0000
usemtl Atlas
s 1
f 7/1/1 6/2/1 4/3/1 1/4/1
f 1/5/2 2/6/2 5/7/2 7/8/2
f 1/9/3 4/10/3 3/11/3 2/12/3
f 4/13/4 6/14/4 8/15/4 3/16/4
f 7/17/5 5/18/5 8/19/5 6/20/5
f 2/21/6 3/22/6 8/23/6 5/24/6
f 13/25/5 11/26/5 14/27/5 12/28/5
f 15/29/3 18/30/3 17/31/3 16/32/3
f 13/33/2 15/34/2 16/35/2 11/36/2
f 11/37/6 16/38/6 17/39/6 14/40/6
f 14/41/4 17/42/4 18/43/4 12/44/4
f 12/45/1 18/46/1 15/47/1 13/48/1
f 21/49/3 20/50/3 22/51/3 19/52/3
f 23/53/5 24/54/5 25/55/5 26/56/5
f 21/57/2 19/58/2 24/59/2 23/60/2
f 19/61/6 22/62/6 25/63/6 24/64/6
f 22/65/4 20/66/4 26/67/4 25/68/4
f 20/69/1 21/70/1 23/71/1 26/72/1
f 29/73/6 27/74/6 30/75/6 28/76/6
f 31/77/1 34/78/1 33/79/1 32/80/1
f 29/81/2 31/82/2 32/83/2 27/84/2
f 27/85/3 32/86/3 33/87/3 30/88/3
f 30/89/4 33/90/4 34/91/4 28/92/4
f 28/93/5 34/94/5 31/95/5 29/96/5
f 40/97/4 43/98/4 44/99/4 38/100/4
f 39/101/2 41/102/2 42/103/2 37/104/2
f 41/105/1 44/106/1 43/107/1 42/108/1
f 39/109/6 37/110/6 40/111/6 38/112/6
f 48/113/4 51/114/4 52/115/4 46/116/4
f 47/117/2 49/118/2 50/119/2 45/120/2
f 49/121/1 52/122/1 51/123/1 50/124/1
f 47/125/6 45/126/6 48/113/6 46/127/6
f 55/128/5 53/129/5 56/130/5 54/131/5
f 57/132/3 60/133/3 59/134/3 58/135/3
f 55/136/2 57/137/2 58/138/2 53/139/2
f 56/140/4 59/141/4 60/142/4 54/143/4
f 63/144/5 61/145/5 64/146/5 62/147/5
f 65/148/3 68/149/3 67/150/3 66/151/3
f 63/152/2 65/153/2 66/154/2 61/155/2
f 64/156/4 67/157/4 68/158/4 62/159/4
f 71/160/5 69/161/5 72/162/5 70/163/5
f 73/164/3 76/165/3 75/166/3 74/167/3
f 71/168/2 73/169/2 74/170/2 69/171/2
f 72/172/4 75/173/4 76/174/4 70/175/4
f 79/176/5 77/177/5 80/178/5 78/179/5
f 81/180/3 84/181/3 83/182/3 82/183/3
f 79/184/2 81/185/2 82/186/2 77/187/2
f 80/188/4 83/189/4 84/190/4 78/191/4
f 87/192/5 85/193/5 88/194/5 86/195/5
f 89/196/3 92/197/3 91/198/3 90/199/3
f 87/200/2 89/201/2 90/202/2 85/203/2
f 88/204/4 91/205/4 92/206/4 86/207/4
f 100/208/6 97/209/6 98/210/6 99/211/6
f 104/212/1 103/213/1 101/214/1 102/215/1
f 99/216/4 98/217/4 101/218/4 103/219/4
f 100/220/5 99/221/5 103/222/5 104/223/5
f 97/209/2 100/208/2 104/224/2 102/225/2
f 98/226/3 97/227/3 102/228/3 101/229/3
usemtl Light
f 10/230/2 9/231/2 35/232/2 36/233/2
f 94/234/4 96/235/4 95/236/4 93/237/4
